<?xml version="1.0" encoding="utf-8"?>
<!-- Generator: Adobe Illustrator 18.1.1, SVG Export Plug-In . SVG Version: 6.00 Build 0)  -->
<svg version="1.1" id="Layer_1" xmlns="http://www.w3.org/2000/svg" xmlns:xlink="http://www.w3.org/1999/xlink" x="0px" y="0px"
	 viewBox="0 0 230 65" enable-background="new 0 0 230 65" xml:space="preserve">
<g>
	<path fill="#E8B646" d="M67.1,40.4c-0.2-4.7,1.7-9.5,4.2-13c2.5-3.4,9.8-9.6,14.9-7.9c3.7,1.2,2.6,6.1-0.7,6.4
		c-0.7,0.1-1.5-0.1-2-0.5v0c-2.9-2.2,0.4-5.7,2.4-4l0,0c0.5,0.4,0.8,1.2,0.6,1.8c-0.4,1-2.1,1.1-2.2-0.2c-0.1-0.6,0.9,0.2,1.1-0.3
		c0.4-1.2-2-1.3-2.2,0.3c-0.1,0.9,0.6,1.7,1.4,1.9c2.7,0.8,4.3-3.6,1.5-4.6c-4.8-1.7-11.6,4.2-14,7.4C69.5,31.4,67.7,35.8,67.1,40.4
		"/>
	<path fill="#E8B646" d="M39.8,43.1c3.7-0.4,7.5,2.9,6.2,7.4c-1.3,4.4-5.7,6.2-9.6,5.5c-7.4-1.3-10.7-11.7-4.9-17.4
		c3.9-3.8,11.2-4.2,15.7,0.7c7.3,7.8,6.3,19.2,18.6,23.3c-2.7-1-5-3.1-6.9-5.4c-3.5-4.4-6.7-10.7-5.1-15.8c1.1-3.4,5.9-4,7.5-0.6
		c0.6,1.2,0.5,2.8-0.4,3.9c-0.4,0.6-0.9,0.8-1.2,1.5C59,47.7,59.5,49,60,49.6c-1.9-0.3-2.1-2-1.3-3.3c-3.7,1.2-3.9-3.1-2-3.4
		c-0.5,0.9,0,2.4,1.2,2.4c1.4,0.1,2.1-0.7,2.5-1.9c0.4-1.6-1-3.5-3.1-3.2c-1.4,0.2-2,0.9-2.5,1.9c-2,4.3,1.8,11.6,4.4,14.8
		c4,4.9,10.5,7.7,16.8,6.4c1.4-0.3,2.6-0.7,3.6-1.3c0.3,0.1,0.6,0.3,0.9,0.4c-1.4,0.9-2.9,1.5-4.5,1.9c-3.2,0.7-7,0.5-11.3-1
		C52,59.1,53.4,45.8,45.7,39.8c-4.4-3.4-10.5-2.4-13.8,0.9c-5.1,5.1-0.5,14.4,5.3,14.4c3.7,0.1,6.7-1,8-4.7c0.6-1.6-1.3-1.5-2.4-2.8
		C41.4,45.7,42.3,44.2,39.8,43.1 M81.4,60.7c0.8-0.7,1.6-1.6,2.4-2.6c5.7-7.2,1.3-16.9-5.3-18.7c-2.3-0.6-4.9-0.3-6.5,1.7
		c-2.2,2.8,1.2,5.1,2.6,3.4c0.6-0.7-2.6-2.3-0.9-2.7c1.6-0.4,2.5,0.6,2.4,2.2c-0.1,1.3-1.2,2.6-3.1,2.4c-2.5-0.2-4.1-3.8-1-6.4
		c-0.9,0.6-1.8,1.4-2.1,2.6c-0.8,3.4,2.4,6.6,5.6,5.3c3.4-1.4,2.2-6.4,0.7-7.8c4.3,1.2,9,4.5,9,9.5c0,0.4-0.3,0.6-0.6,0.6
		c-0.4,0-0.6-0.3-0.6-0.6c0-3.7-2.3-6.9-6-8.1c2.4,2.9,0.9,7-2,7.9c-2.6,0.8-5.8-0.2-6.9-3.4c-0.3-1-0.3-2.1,0-3.3
		C71,36,83,36.3,86.5,46.5c1.9,5.5-0.2,11-4.2,14.5C82,60.9,81.7,60.8,81.4,60.7"/>
	<path fill-rule="evenodd" clip-rule="evenodd" fill="#E8B646" d="M84.5,51.4c0.4,0,0.7,0.3,0.7,0.7c0,0.4-0.3,0.7-0.7,0.7
		c-0.4,0-0.7-0.3-0.7-0.7C83.8,51.7,84.1,51.4,84.5,51.4"/>
	<path fill-rule="evenodd" clip-rule="evenodd" fill="#E8B646" d="M83.8,53.9c0.3,0,0.6,0.3,0.6,0.6c0,0.3-0.3,0.6-0.6,0.6
		c-0.3,0-0.6-0.3-0.6-0.6C83.2,54.1,83.5,53.9,83.8,53.9"/>
	<path fill-rule="evenodd" clip-rule="evenodd" fill="#E8B646" d="M82.8,56.1c0.3,0,0.5,0.2,0.5,0.5c0,0.3-0.2,0.5-0.5,0.5
		c-0.3,0-0.5-0.2-0.5-0.5C82.4,56.3,82.6,56.1,82.8,56.1"/>
	<path fill-rule="evenodd" clip-rule="evenodd" fill="#E8B646" d="M90.8,43.8c-0.2,0.4-0.6,0.6-1.1,0.5c-0.4-0.2-0.6-0.6-0.5-1.1
		c0.2-0.4,0.6-0.6,1.1-0.5C90.8,42.9,91,43.4,90.8,43.8"/>
	<path fill-rule="evenodd" clip-rule="evenodd" fill="#E8B646" d="M88.2,42.1c-0.1,0.4-0.6,0.6-0.9,0.4c-0.4-0.1-0.6-0.6-0.4-0.9
		c0.1-0.4,0.6-0.6,1-0.4C88.1,41.3,88.3,41.7,88.2,42.1"/>
	<path fill-rule="evenodd" clip-rule="evenodd" fill="#E8B646" d="M86.2,39.8c-0.1,0.3-0.4,0.4-0.7,0.3c-0.3-0.1-0.4-0.4-0.3-0.7
		c0.1-0.3,0.4-0.4,0.7-0.3C86.2,39.2,86.3,39.5,86.2,39.8"/>
	<path fill-rule="evenodd" clip-rule="evenodd" fill="#E8B646" d="M35.2,52.7C35,53,34.7,53.1,34.4,53c-0.3-0.1-0.4-0.5-0.3-0.8
		c0.1-0.3,0.5-0.4,0.8-0.3C35.2,52.1,35.3,52.4,35.2,52.7"/>
	<path fill-rule="evenodd" clip-rule="evenodd" fill="#E8B646" d="M33.4,51.4c-0.1,0.3-0.4,0.4-0.7,0.2c-0.3-0.1-0.4-0.4-0.2-0.7
		c0.1-0.3,0.4-0.4,0.7-0.2C33.4,50.8,33.5,51.1,33.4,51.4"/>
	<path fill-rule="evenodd" clip-rule="evenodd" fill="#E8B646" d="M32.1,49.7c-0.1,0.2-0.3,0.3-0.5,0.2c-0.2-0.1-0.3-0.3-0.2-0.5
		c0.1-0.2,0.3-0.3,0.5-0.2C32.2,49.3,32.2,49.5,32.1,49.7"/>
	<path fill-rule="evenodd" clip-rule="evenodd" fill="#E8B646" d="M37.1,53.4c0,0-0.1,0-0.2,0c-0.1,0-0.1,0-0.2,0
		c-0.3,0-0.6-0.3-0.5-0.7c0-0.2,0.2-0.4,0.4-0.5h0c3.1-1.3,4-5.9-1.6-6.3c-1.8-0.1-3.5,0.3-4.8,1.2c0-0.3-0.1-0.5-0.1-0.8
		c1.4-0.9,3.1-1.4,4.9-1.4C42,45.1,41.6,52,37.1,53.4 M28.5,48.9c-1,1.4-1.4,3.2-0.9,5c1.5,5.6,8.3,6.8,13.2,5.2
		c1.6-0.5,1.8,1.8,0.3,2.3C35.7,63.1,28.4,60,26.8,54c-0.6-2.2,0.1-4.4,1.5-6C28.3,48.3,28.4,48.6,28.5,48.9"/>
	<path fill-rule="evenodd" clip-rule="evenodd" fill="#E8B646" d="M65.2,63.2c-4.9-1.8-9.3-5.4-11.8-11.4c-0.6-1.5-2-0.5-1.6,0.5
		C54.9,58.4,59.6,62,65.2,63.2"/>
	<path fill-rule="evenodd" clip-rule="evenodd" fill="#E8B646" d="M52.7,46.5c-0.8-2.8-0.4-7.2,0.3-10c0.6-2.5-2.1-2.6-2.2-0.7
		C50.5,39.1,50.9,42.9,52.7,46.5"/>
	<path fill-rule="evenodd" clip-rule="evenodd" fill="#E8B646" d="M121.4,10.6c-2.6,0.6-5.8,3.2-6.4,6.8c-0.6-3.7-3.7-6.2-6.4-6.8
		c1.9-0.5,4.6-0.5,5.7,2.6c-0.1-2.5-3.1-3.7-1.5-7.4c0.8-1.9,1.7-2,2.2-5.8c0.5,3.9,1.4,3.9,2.2,5.8c1.5,3.7-1.5,4.9-1.5,7.4
		C116.8,10.1,119.5,10.1,121.4,10.6"/>
	<path fill="#E8B646" d="M162.9,40.4c0.2-4.7-1.7-9.5-4.2-13c-2.5-3.4-9.8-9.6-14.9-7.9c-3.7,1.2-2.6,6.1,0.7,6.4
		c0.7,0.1,1.5-0.1,2-0.5v0c2.9-2.2-0.4-5.7-2.4-4v0c-0.5,0.4-0.8,1.2-0.6,1.8c0.4,1,2.1,1.1,2.2-0.2c0.1-0.6-0.9,0.2-1.1-0.3
		c-0.4-1.2,2-1.3,2.2,0.3c0.1,0.9-0.6,1.7-1.4,1.9c-2.7,0.8-4.3-3.6-1.5-4.6c4.8-1.7,11.6,4.2,14,7.4
		C160.6,31.4,162.4,35.8,162.9,40.4"/>
	<path fill-rule="evenodd" clip-rule="evenodd" fill="#E8B646" d="M145.6,51.4c-0.4,0-0.7,0.3-0.7,0.7c0,0.4,0.3,0.7,0.7,0.7
		c0.4,0,0.7-0.3,0.7-0.7C146.3,51.7,146,51.4,145.6,51.4"/>
	<path fill-rule="evenodd" clip-rule="evenodd" fill="#E8B646" d="M146.2,53.9c-0.3,0-0.6,0.3-0.6,0.6c0,0.3,0.3,0.6,0.6,0.6
		c0.3,0,0.6-0.3,0.6-0.6C146.8,54.1,146.6,53.9,146.2,53.9"/>
	<path fill-rule="evenodd" clip-rule="evenodd" fill="#E8B646" d="M147.2,56.1c-0.3,0-0.5,0.2-0.5,0.5c0,0.3,0.2,0.5,0.5,0.5
		c0.3,0,0.5-0.2,0.5-0.5C147.7,56.3,147.5,56.1,147.2,56.1"/>
	<path fill-rule="evenodd" clip-rule="evenodd" fill="#E8B646" d="M139.2,43.8c0.2,0.4,0.6,0.6,1.1,0.5c0.4-0.2,0.6-0.6,0.5-1.1
		c-0.2-0.4-0.7-0.6-1.1-0.5C139.3,42.9,139.1,43.4,139.2,43.8"/>
	<path fill-rule="evenodd" clip-rule="evenodd" fill="#E8B646" d="M141.9,42.1c0.1,0.4,0.6,0.6,0.9,0.4c0.4-0.1,0.6-0.6,0.4-0.9
		c-0.1-0.4-0.6-0.6-0.9-0.4C141.9,41.3,141.7,41.7,141.9,42.1"/>
	<path fill-rule="evenodd" clip-rule="evenodd" fill="#E8B646" d="M143.9,39.8c0.1,0.3,0.4,0.4,0.7,0.3c0.3-0.1,0.4-0.4,0.3-0.7
		c-0.1-0.3-0.4-0.4-0.7-0.3C143.9,39.2,143.8,39.5,143.9,39.8"/>
	<path fill-rule="evenodd" clip-rule="evenodd" fill="#E8B646" d="M194.9,52.7c0.1,0.3,0.5,0.4,0.8,0.3c0.3-0.1,0.4-0.5,0.3-0.8
		c-0.1-0.3-0.5-0.4-0.8-0.3C194.9,52.1,194.8,52.4,194.9,52.7"/>
	<path fill-rule="evenodd" clip-rule="evenodd" fill="#E8B646" d="M196.6,51.4c0.1,0.3,0.4,0.4,0.7,0.2c0.3-0.1,0.4-0.4,0.2-0.7
		c-0.1-0.3-0.4-0.4-0.7-0.2C196.6,50.8,196.5,51.1,196.6,51.4"/>
	<path fill-rule="evenodd" clip-rule="evenodd" fill="#E8B646" d="M197.9,49.7c0.1,0.2,0.3,0.3,0.5,0.2c0.2-0.1,0.3-0.3,0.2-0.5
		c-0.1-0.2-0.3-0.3-0.5-0.2C197.9,49.3,197.8,49.5,197.9,49.7"/>
	<path fill-rule="evenodd" clip-rule="evenodd" fill="#E8B646" d="M164.8,63.2c4.9-1.8,9.3-5.4,11.8-11.4c0.6-1.5,2-0.5,1.6,0.5
		C175.2,58.4,170.4,62,164.8,63.2"/>
	<path fill-rule="evenodd" clip-rule="evenodd" fill="#E8B646" d="M177.3,46.5c0.8-2.8,0.4-7.2-0.3-10c-0.6-2.5,2.1-2.6,2.2-0.7
		C179.5,39.1,179.2,42.9,177.3,46.5"/>
	<path fill="#E8B646" d="M137,44.1c1.7,2.3,1.5,5.5-0.4,7.6c-2.5,2.6-7,1.7-7.9-1.7c-1.1-4,3.8-4.5,3.3-2.1c-0.2,1,0.9,0.4,1.3-0.2
		c1.8-3.4-3.1-5-5.1-0.9c-1.9,3.8,2.2,8.3,7.2,6.6c4.6-1.6,5.3-8.2,0.8-11.3c5,0.1,9.2-5.3,8.7-9.9c-0.8-7.3-9.3-9.4-13-5.2
		c-3.5,3.9-0.2,9.7,4.2,9.4c3.4-0.2,4.4-4.1,2.2-5.7c-0.9-0.7-2.3-0.5-2.9,0.4c-0.6,0.9-0.4,2.1,0.4,1.7c1-0.5,3-0.3,2.3,1.4
		c-1.2,3.1-6.6,0.9-6.8-3c-0.2-4.5,5.6-7.1,9.6-3.2c3.4,3.3,3.1,9.2-1.9,11.9c-4.8,2.6-10.3-0.4-11.6-5.3c-1.2-4.3,0.6-9.1,3.7-12.4
		c8.2-8.6,24-5.7,30.1,6.5c5.5,11,2.5,21.9-6.1,28.8c-3.4,2.7-6.5,4.1-10.6,4.9c-6.6,1.3-13.3,0.4-18.7-3.1c-3.1-2-5.2-4.9-4-6.5
		c0.5-0.7,1.3-0.9,2.1-0.4c0.2-1-0.1-1.8-1.1-2.1c-1.4-0.4-3.7,0.7-3.2,3.4c0.3,1.5,2.8,4.3,5.8,6.2c4.7,3,10.8,4.1,16.7,3.5
		c-10.1,1.9-20.3-1.6-25.9-10.4l-0.7,1c1.1,1.7,2.4,3,3.8,4.3c-1.6-0.4-2.9,0.5-3.2,1.7c-0.6,2.4,2.8,3.3,3.3,1.1
		c0.3-1.5-1.7-1.3-1.2-0.4c0.1,0.2,0.5,0.4,0.8,0.1c0.1,0.9-1.1,1.2-1.8,0.5c-1.3-1.3,0.7-4,3.3-2c6.8,5.4,16.2,6.7,24.9,4.1
		c3-0.9,8.1-3.2,10.4-5c9.7-7.3,10.9-16.2,11-27.5c0.1-6.1,7-6.2,7.5-3c0.3,2.6-2.2,3.6-3.6,1.9c-0.4-0.5-0.3-2,0.7-2.2
		c-2.1-0.9-3.1,3.7,0.8,4c4.4,0.4,4.5-7.2-0.9-7.3c-3.1,0-5.6,2.1-5.5,6.3c0.1,6.7,0.2,13.9-3.4,19.9c2.3-4.6,3.4-9.9,2.4-15.4
		c-0.9-5.1-3.5-9.8-3.7-14.3c0-1.4,0.4-3.3,1.7-3.8c-3.3-1.3-5.9,1.9-3,7.2c-7.5-9.5-21.7-10.9-29.2-2.9c-4.6,4.8-6.5,13-1.4,17.9
		C132.6,42.9,134.8,41.1,137,44.1 M115.8,52.6c5.5-8.2,8.1-19.2,3.9-28.3c2.1,1.2,5.2,0.6,6.3-1.6c2.2-4.3-3.1-7.5-5.9-4.8
		c-1.1,1-1.3,3.2,0.2,4.1c0.8,0.5,1.6,0.1,1.3-0.3c-1.5-1.9,0-4.8,2.4-3.5c2.1,1.1,2,5.5-2,5.5c-1.4,0-2.9-0.6-3.7-1.8
		c-0.4-0.6-1-0.2-0.6,0.5c3.6,5.9,3.7,13.4,1.7,20.3c1.4-7,0.2-14.8-3.3-21.1l-0.7,1.2c5.3,8.9,5,20.6-0.3,29
		c-6.1,9.8-15.4,14-26.9,11.9c5.9,0.6,12-0.5,16.7-3.5c3-1.9,5.4-4.6,5.8-6.2c0.5-2.7-1.8-3.8-3.2-3.4c-1,0.3-1.3,1-1.1,2.1
		c0.8-0.6,1.6-0.4,2.1,0.4c1.2,1.6-0.9,4.5-4,6.5c-5.4,3.5-12.1,4.4-18.7,3.1c-4.1-0.8-7.2-2.2-10.6-4.9
		c-8.7-6.9-11.7-17.8-6.1-28.8C75,16.5,90.8,13.6,99,22.2c3.1,3.3,4.9,8.2,3.7,12.4c-1.3,4.9-6.9,7.9-11.6,5.3
		c-5-2.7-5.3-8.6-1.9-11.9c4-3.9,9.8-1.3,9.6,3.2c-0.2,3.9-5.5,6.1-6.8,3c-0.7-1.7,1.3-1.9,2.3-1.4c0.8,0.4,0.9-0.8,0.4-1.7
		c-0.6-1-1.9-1.1-2.9-0.4c-2.2,1.6-1.1,5.5,2.2,5.7c4.4,0.2,7.6-5.5,4.2-9.4c-3.7-4.2-12.2-2.1-13,5.2c-0.5,4.5,3.7,10,8.7,9.9
		c-4.5,3.2-3.8,9.8,0.8,11.3c4.9,1.7,9-2.8,7.2-6.6c-2.1-4.1-6.9-2.6-5.1,0.9c0.3,0.6,1.5,1.2,1.3,0.2c-0.4-2.4,4.4-1.9,3.3,2.1
		c-0.9,3.4-5.4,4.3-7.9,1.7c-2-2.1-2.1-5.3-0.4-7.6c2.2-3,4.4-1.2,8.2-4.8c5.1-4.9,3.2-13.1-1.4-17.9c-7.5-8-21.7-6.7-29.2,2.9
		c2.8-5.3,0.2-8.5-3-7.2c1.4,0.5,1.8,2.5,1.7,3.8c-0.2,4.5-2.7,9.1-3.7,14.3c-1,5.5,0.1,10.8,2.4,15.4c-3.6-6-3.5-13.2-3.4-19.9
		c0.1-4.2-2.5-6.3-5.5-6.3c-5.4,0.1-5.4,7.7-0.9,7.3c3.9-0.3,2.9-4.9,0.8-4c1,0.3,1.1,1.8,0.7,2.2c-1.4,1.7-4,0.7-3.6-1.9
		c0.4-3.2,7.4-3.1,7.5,3c0.1,11.3,1.3,20.2,11,27.5c2.4,1.8,7.5,4.1,10.4,5c8.7,2.6,18,1.3,24.9-4.1c2.6-1.9,4.6,0.7,3.3,2
		c-0.7,0.7-1.9,0.4-1.8-0.5c0.3,0.3,0.7,0.2,0.8-0.1c0.5-0.9-1.5-1.1-1.2,0.4c0.5,2.2,3.9,1.2,3.3-1.1c-0.3-1.1-1.6-2.1-3.2-1.7
		C112.7,56.8,114.4,54.6,115.8,52.6 M114.7,51.1c-4.9-8.6-5.2-20.2,0.3-28.9c3.3-5.3,8.7-9.8,15.4-8.7c-6.7-5.1-12.9,2.1-16.1,7.5
		c-3.7,6.4-5,14.4-3.6,21.5c-2-6.9-1.9-14.4,1.7-20.3c0.4-0.6-0.2-1-0.6-0.5c-0.8,1.2-2.3,1.8-3.7,1.8c-4,0-4.1-4.4-2-5.5
		c2.4-1.3,3.8,1.6,2.4,3.5c-0.3,0.4,0.5,0.7,1.3,0.3c1.5-0.9,1.2-3.1,0.2-4.1c-2.9-2.6-8.1,0.5-5.9,4.8c1.1,2.2,4.2,2.8,6.3,1.6
		c-4.1,9-1.6,19.9,3.7,28L114.7,51.1z M114.8,19.4c-3.2-5.2-9.3-10.5-15.1-5.9c5.4-0.9,11.6,2.6,14.4,7.1L114.8,19.4z"/>
	<path fill-rule="evenodd" clip-rule="evenodd" fill="#E8B646" d="M115,35.8c4,0,7.5,0.3,10.7,0.7c-3.2,0.4-6.6,0.7-10.7,0.7
		c-4.1,0-7.5-0.3-10.7-0.7C107.6,36.1,111,35.8,115,35.8"/>
	<path fill-rule="evenodd" clip-rule="evenodd" fill="#E8B646" d="M44.6,57.5c0,1,1.5,1.3,2.3,0.6c0.4-0.3,0.6-0.7,0.7-1.1
		c0.2-0.9-0.4-1.9-1.2-2.3c-1.2-0.7-2.6-0.4-3.8,0.3l-0.1,0.1l-0.4-0.8l0.1-0.1c1-0.6,2.2-0.9,3.4-0.7c1,0.2,1.9,0.7,2.4,1.5
		c0.3,0.4,0.4,0.9,0.5,1.4c0.1,1.3-0.6,2.2-1.4,2.6c-0.4,0.8-0.2,1.4,0.6,1.7c-0.9,0.2-1.5-0.6-1.1-1.5l0,0
		c-1.3,0.4-2.8-0.1-2.9-1.6c-0.1-0.8,0.6-1.9,1.5-1.7c0.6,0.1,1,0.8,0.6,1.4C45.4,57.7,44.9,57.8,44.6,57.5"/>
	<path fill-rule="evenodd" clip-rule="evenodd" fill="#E8B646" d="M185.5,57.5c0,1-1.5,1.3-2.3,0.6c-0.4-0.3-0.6-0.7-0.7-1.1
		c-0.2-0.9,0.4-1.9,1.2-2.3c1.2-0.7,2.6-0.4,3.8,0.3l0.1,0.1l0.4-0.8l-0.1-0.1c-1-0.6-2.2-0.9-3.4-0.7c-1,0.2-1.9,0.7-2.4,1.5
		c-0.3,0.4-0.4,0.9-0.5,1.4c-0.1,1.3,0.6,2.2,1.4,2.6c0.4,0.8,0.2,1.4-0.6,1.7c0.9,0.2,1.5-0.6,1.1-1.5l0,0c1.3,0.4,2.8-0.1,2.9-1.6
		c0.1-0.8-0.6-1.9-1.5-1.7c-0.6,0.1-1,0.8-0.6,1.4C184.6,57.7,185.1,57.8,185.5,57.5"/>
	<path fill-rule="evenodd" clip-rule="evenodd" fill="#E8B646" d="M193,53.4c0,0,0.1,0,0.2,0c0.1,0,0.1,0,0.2,0
		c0.3,0,0.6-0.3,0.5-0.7c0-0.2-0.2-0.4-0.4-0.5h0c-3.1-1.3-4-5.9,1.6-6.3c1.8-0.1,3.5,0.3,4.8,1.2c0-0.3,0.1-0.5,0.1-0.8
		c-1.4-0.9-3.1-1.4-4.9-1.4C188,45.1,188.4,52,193,53.4 M201.6,48.9c1,1.4,1.4,3.2,0.9,5c-1.5,5.6-8.3,6.8-13.2,5.2
		c-1.6-0.5-1.8,1.8-0.3,2.3c5.3,1.7,12.6-1.4,14.2-7.3c0.6-2.2-0.1-4.4-1.5-6C201.7,48.3,201.7,48.6,201.6,48.9"/>
	<path fill="#E8B646" d="M190.3,43.1c-3.7-0.4-7.5,2.9-6.2,7.4c1.3,4.4,5.7,6.2,9.6,5.5c7.4-1.3,10.7-11.7,4.9-17.4
		c-3.9-3.8-11.2-4.2-15.7,0.7c-7.3,7.8-6.3,19.2-18.6,23.3c2.7-1,5-3.1,6.9-5.4c3.5-4.4,6.7-10.7,5.1-15.8c-1.1-3.4-5.9-4-7.5-0.6
		c-0.6,1.2-0.5,2.8,0.4,3.9c0.4,0.6,0.9,0.8,1.2,1.5c0.7,1.2,0.2,2.6-0.3,3.1c1.9-0.3,2.1-2,1.3-3.3c3.6,1.2,3.9-3.1,2-3.4
		c0.5,0.9,0,2.4-1.2,2.4c-1.4,0.1-2.1-0.7-2.5-1.9c-0.4-1.6,1-3.5,3.1-3.2c1.4,0.2,2,0.9,2.5,1.9c2,4.3-1.8,11.6-4.4,14.8
		c-4,4.9-10.5,7.7-16.8,6.4c-1.4-0.3-2.6-0.7-3.6-1.3c-0.3,0.1-0.6,0.3-0.9,0.4c1.4,0.9,2.9,1.5,4.5,1.9c3.2,0.7,7,0.5,11.3-1
		c12.7-4.2,11.4-17.5,19.1-23.5c4.4-3.4,10.5-2.4,13.8,0.9c5.1,5.1,0.5,14.4-5.3,14.4c-3.7,0.1-6.7-1-8-4.7
		c-0.6-1.6,1.3-1.5,2.4-2.8C188.6,45.7,187.8,44.2,190.3,43.1 M148.7,60.7c-0.8-0.7-1.6-1.6-2.4-2.6c-5.7-7.2-1.3-16.9,5.3-18.7
		c2.3-0.6,4.9-0.3,6.5,1.7c2.2,2.8-1.2,5.1-2.6,3.4c-0.6-0.7,2.6-2.3,0.9-2.7c-1.6-0.4-2.5,0.6-2.4,2.2c0.1,1.3,1.2,2.6,3.1,2.4
		c2.5-0.2,4.1-3.8,1-6.4c0.9,0.6,1.8,1.4,2.1,2.6c0.8,3.4-2.5,6.6-5.6,5.3c-3.4-1.4-2.2-6.4-0.7-7.8c-4.3,1.2-9,4.5-9,9.5
		c0,0.4,0.3,0.6,0.6,0.6c0.4,0,0.6-0.3,0.6-0.6c0-3.7,2.3-6.9,6-8.1c-2.4,2.9-0.9,7,2,7.9c2.6,0.8,5.8-0.2,6.9-3.4
		c0.3-1,0.3-2.1,0-3.3c-1.8-6.6-13.9-6.4-17.4,3.9c-1.9,5.5,0.2,11,4.2,14.5C148.1,60.9,148.4,60.8,148.7,60.7"/>
	<path fill="#E8B646" d="M207.7,56c2.2-0.7,6.1-1.1,8.5-0.6c3.3,0.7,7.2,3.7,4.1,7.2c1.1,0.5,2.1,0.4,3.1-0.3
		c1.1-2.1,0.7-4.7-1.2-6.2c1.7,2.3,1.9,5.5-1.3,6.5c0.7-1.2,1.1-2.1,1-3.2c-0.2-2.4-2.9-3.8-5.1-4.4c-2.6-0.7-5.8-0.6-8.5,0.4
		c1.1-1,4.6-2,8.8-0.8c3.4,1,6.5,3,5,6.8c2.4-2.4,0.2-5.3-1.7-6.8c0.5,0.3,1.2,0.6,1.7,0.9c2.4,1.6,3.4,4.3,2.1,6.7
		c3.1,0.4,4.2-10.6-8.6-10.1c-4,0.2-8.8,3-12.8,5.4c-3,1.8-5.1,3.2-7.8,3.8c6.9-2.6,12.1-9.8,20.7-10.4c3-0.2,7.7,0.4,9.5,2.4
		c0.4,0.4,0.2,1.2-0.4,1c1.1,1,1.8,2.6,1.9,4.3c0.2,1.5,2.7,2.5,2.9,0.8c-1.1,1-3-0.4-2.7-2.2c0.1,1.5,2.1,3.8,2.9,0.9
		c0.1,0.8,0.3,1.5-0.2,2.2c-0.8,1-2.3,0.7-3-0.4c-0.2,1.9-1.2,3.5-3,3c-1.5,0.9-2.9,0.7-4.2,0c2.8-2.7,0.3-5.9-3.1-6.8
		c-1.4-0.3-3.1-0.4-4.5-0.1c0.1,0.7-0.5,0.9-1.1,0.9c-3-0.2-8,1.7-11.1,2.9C202.5,58.1,204.4,57,207.7,56 M219.4,58.2
		c0.5,0.7,0.7,1.9,0,2.5c-0.5,0.4-0.5,0.9-0.2,1.5c-0.6-0.3-0.6-0.8-0.4-1.2c-1.6,0.4-2.1-1.5-1.1-2c0.7-0.4,1.2,0.1,1.2,0.5
		c0.1,0.5-0.4,1-1,0.6c0.2,0,0.7-0.2,0.6-0.5c0-0.1-0.3-0.4-0.6-0.2c-0.2,0.1-0.5,0.6-0.2,1c0.4,0.6,2,0.5,1.9-0.9
		c0-0.5-0.3-1.1-0.7-1.4c-1.1-0.9-3.7-1.8-5.1-1.3C214.6,55.8,218.3,56.8,219.4,58.2"/>
	<path fill="#E8B646" d="M22.3,56c-2.2-0.7-6.1-1.1-8.5-0.6c-3.3,0.7-7.2,3.7-4.1,7.2c-1.1,0.5-2.1,0.4-3.1-0.3
		c-1.1-2.1-0.7-4.7,1.2-6.2c-1.7,2.3-1.9,5.5,1.3,6.5c-0.7-1.2-1.1-2.1-1-3.2c0.2-2.4,2.9-3.8,5.1-4.4c2.6-0.7,5.8-0.6,8.5,0.4
		c-1.1-1-4.6-2-8.8-0.8c-3.4,1-6.5,3-5,6.8c-2.4-2.4-0.2-5.3,1.7-6.8c-0.5,0.3-1.2,0.6-1.7,0.9c-2.4,1.6-3.4,4.3-2.1,6.7
		c-3.1,0.4-4.2-10.6,8.6-10.1c4,0.2,8.8,3,12.8,5.4c3,1.8,5.1,3.2,7.8,3.8c-6.9-2.6-12.1-9.8-20.7-10.4c-3-0.2-7.7,0.4-9.5,2.4
		c-0.4,0.4-0.2,1.2,0.4,1c-1.1,1-1.8,2.6-1.9,4.3c-0.2,1.5-2.7,2.5-2.9,0.8c1.1,1,3-0.4,2.7-2.2C3,58.6,0.9,60.9,0.1,58
		c-0.1,0.8-0.3,1.5,0.2,2.2c0.8,1,2.3,0.7,3-0.4c0.2,1.9,1.2,3.5,3,3c1.5,0.9,2.9,0.7,4.2,0c-2.8-2.7-0.3-5.9,3.1-6.8
		c1.4-0.3,3.1-0.4,4.5-0.1c-0.1,0.7,0.5,0.9,1.1,0.9c3-0.2,8,1.7,11.1,2.9C27.5,58.1,25.6,57,22.3,56 M10.6,58.2
		c-0.5,0.7-0.7,1.9,0,2.5c0.5,0.4,0.5,0.9,0.2,1.5c0.6-0.3,0.6-0.8,0.4-1.2c1.6,0.4,2.1-1.5,1.1-2c-0.7-0.4-1.2,0.1-1.3,0.5
		c-0.1,0.5,0.4,1,1,0.6c-0.2,0-0.7-0.2-0.6-0.5c0-0.1,0.3-0.4,0.6-0.2c0.2,0.1,0.5,0.6,0.2,1c-0.4,0.6-2,0.5-1.9-0.9
		c0-0.5,0.3-1.1,0.7-1.4c1.1-0.9,3.7-1.8,5.1-1.3C15.3,55.8,11.7,56.8,10.6,58.2"/>
</g>
</svg>
