<?xml version="1.0" encoding="utf-8"?>
<!-- Generator: Adobe Illustrator 13.0.0, SVG Export Plug-In . SVG Version: 6.00 Build 14948)  -->
<!DOCTYPE svg PUBLIC "-//W3C//DTD SVG 1.1//EN" "http://www.w3.org/Graphics/SVG/1.1/DTD/svg11.dtd">
<svg version="1.1" id="Layer_1" xmlns="http://www.w3.org/2000/svg" xmlns:xlink="http://www.w3.org/1999/xlink" x="0px" y="0px"
	 width="320px" height="196px" viewBox="0 0 320 196" style="enable-background:new 0 0 320 196;" xml:space="preserve">
<style type="text/css">
<![CDATA[
	.st0{fill:#E8B646;}
	.st1{fill-rule:evenodd;clip-rule:evenodd;fill:#E8B646;}
	.st2{fill:#FFFFFF;}
	.st3{fill:none;}
]]>
</style>
<rect y="0.4" class="st3" width="320" height="195.2"/>
<g>
	<path class="st0" d="M113.2,67.2c-0.2-4.6,1.7-9.4,4.2-12.9c2.4-3.4,9.7-9.5,14.8-7.9c3.7,1.2,2.6,6-0.7,6.4
		c-0.7,0.1-1.4-0.1-2-0.5v0c-2.9-2.2,0.4-5.6,2.3-3.9l0,0c0.5,0.4,0.8,1.2,0.6,1.8c-0.4,1-2,1.1-2.2-0.2c-0.1-0.6,0.9,0.2,1.1-0.3
		c0.4-1.2-2-1.3-2.2,0.3c-0.1,0.9,0.6,1.7,1.4,1.9c2.7,0.8,4.3-3.6,1.5-4.6c-4.7-1.7-11.5,4.2-13.9,7.4
		C115.6,58.3,113.8,62.6,113.2,67.2"/>
	<path class="st0" d="M86.1,69.9c3.7-0.4,7.5,2.9,6.2,7.4c-1.3,4.4-5.6,6.2-9.6,5.5c-7.4-1.3-10.6-11.6-4.8-17.2
		c3.9-3.8,11.1-4.1,15.6,0.7c7.2,7.8,6.3,19.1,18.5,23.2c-2.7-1-5-3.1-6.9-5.4c-3.5-4.3-6.6-10.6-5-15.7c1.1-3.3,5.8-4,7.5-0.6
		c0.6,1.2,0.5,2.8-0.4,3.9c-0.4,0.5-0.9,0.8-1.2,1.5c-0.7,1.2-0.2,2.6,0.3,3.1c-1.8-0.3-2.1-2-1.3-3.3c-3.6,1.2-3.9-3-2-3.4
		c-0.5,0.9,0,2.4,1.2,2.4c1.4,0.1,2.1-0.7,2.5-1.9c0.4-1.5-1-3.4-3.1-3.2c-1.4,0.2-2,0.9-2.5,1.8c-2,4.3,1.8,11.5,4.4,14.7
		c4,4.9,10.4,7.6,16.7,6.4c1.4-0.3,2.6-0.7,3.6-1.3c0.3,0.1,0.6,0.3,0.9,0.4c-1.4,0.9-2.9,1.5-4.5,1.9c-3.2,0.7-6.9,0.4-11.2-1
		c-12.7-4.2-11.3-17.4-19-23.4c-4.3-3.4-10.5-2.4-13.7,0.9c-5.1,5.1-0.5,14.3,5.3,14.4c3.7,0.1,6.7-1,8-4.7c0.5-1.5-1.3-1.4-2.4-2.8
		C87.7,72.4,88.5,70.9,86.1,69.9 M127.4,87.3c0.8-0.7,1.6-1.6,2.4-2.6c5.6-7.2,1.3-16.8-5.3-18.6c-2.2-0.6-4.9-0.3-6.4,1.6
		c-2.2,2.8,1.2,5.1,2.6,3.4c0.6-0.7-2.5-2.3-0.9-2.7c1.6-0.4,2.5,0.6,2.4,2.2c-0.1,1.3-1.1,2.6-3.1,2.4c-2.4-0.2-4-3.8-1-6.3
		c-0.9,0.6-1.8,1.4-2.1,2.6c-0.8,3.4,2.4,6.5,5.5,5.3c3.4-1.3,2.2-6.3,0.7-7.8c4.3,1.2,9,4.4,9,9.5c0,0.4-0.3,0.6-0.6,0.6
		c-0.4,0-0.6-0.3-0.6-0.6c0-3.7-2.3-6.8-6-8c2.3,2.9,0.9,6.9-2,7.9c-2.6,0.8-5.8-0.2-6.8-3.4c-0.3-1-0.3-2.1,0-3.2
		c1.8-6.6,13.8-6.3,17.3,3.9c1.9,5.4-0.2,11-4.2,14.4C128,87.6,127.7,87.5,127.4,87.3"/>
	<path class="st1" d="M130.5,78.1c0.4,0,0.7,0.3,0.7,0.7c0,0.4-0.3,0.7-0.7,0.7c-0.4,0-0.7-0.3-0.7-0.7
		C129.8,78.4,130.1,78.1,130.5,78.1"/>
	<path class="st1" d="M129.8,80.5c0.3,0,0.6,0.3,0.6,0.6c0,0.3-0.3,0.6-0.6,0.6c-0.3,0-0.6-0.3-0.6-0.6
		C129.2,80.8,129.5,80.5,129.8,80.5"/>
	<path class="st1" d="M128.8,82.8c0.3,0,0.5,0.2,0.5,0.5c0,0.3-0.2,0.5-0.5,0.5c-0.3,0-0.5-0.2-0.5-0.5
		C128.3,83,128.5,82.8,128.8,82.8"/>
	<path class="st1" d="M136.8,70.5c-0.2,0.4-0.6,0.6-1.1,0.5c-0.4-0.2-0.6-0.6-0.5-1.1c0.2-0.4,0.6-0.6,1.1-0.5
		C136.7,69.6,136.9,70.1,136.8,70.5"/>
	<path class="st1" d="M134.1,68.8c-0.1,0.4-0.6,0.6-0.9,0.4c-0.4-0.1-0.6-0.6-0.4-0.9c0.1-0.4,0.6-0.6,0.9-0.4
		C134.1,68.1,134.3,68.5,134.1,68.8"/>
	<path class="st1" d="M132.2,66.6c-0.1,0.3-0.4,0.4-0.7,0.3c-0.3-0.1-0.4-0.4-0.3-0.7c0.1-0.3,0.4-0.4,0.7-0.3
		C132.1,66,132.3,66.3,132.2,66.6"/>
	<path class="st1" d="M81.5,79.4c-0.1,0.3-0.5,0.4-0.8,0.3c-0.3-0.1-0.4-0.5-0.3-0.8c0.1-0.3,0.5-0.4,0.8-0.3
		C81.5,78.7,81.6,79.1,81.5,79.4"/>
	<path class="st1" d="M79.7,78.1c-0.1,0.2-0.4,0.4-0.7,0.2c-0.3-0.1-0.4-0.4-0.2-0.7c0.1-0.2,0.4-0.4,0.7-0.2S79.9,77.8,79.7,78.1"
		/>
	<path class="st1" d="M78.5,76.4c-0.1,0.2-0.3,0.3-0.5,0.2c-0.2-0.1-0.3-0.3-0.2-0.5c0.1-0.2,0.3-0.3,0.5-0.2
		C78.5,76,78.6,76.2,78.5,76.4"/>
	<path class="st1" d="M83.4,80.1c0,0-0.1,0-0.1,0c-0.1,0-0.1,0-0.2,0c-0.3,0-0.5-0.3-0.5-0.7c0-0.2,0.2-0.4,0.4-0.5h0
		c3.1-1.3,4-5.9-1.6-6.2c-1.8-0.1-3.5,0.3-4.7,1.2c0-0.3-0.1-0.5-0.1-0.8c1.4-0.9,3.1-1.4,4.9-1.4C88.3,71.8,87.9,78.7,83.4,80.1
		 M74.8,75.6c-1,1.4-1.4,3.1-0.9,4.9c1.5,5.5,8.2,6.7,13.1,5.2c1.6-0.5,1.8,1.8,0.3,2.3c-5.2,1.7-12.5-1.3-14.1-7.3
		c-0.6-2.2,0.1-4.3,1.5-6C74.7,75,74.7,75.3,74.8,75.6"/>
	<path class="st1" d="M111.3,89.8c-4.8-1.8-9.2-5.4-11.7-11.3c-0.6-1.4-2-0.5-1.5,0.5C101,85,105.8,88.6,111.3,89.8"/>
	<path class="st1" d="M98.9,73.2c-0.8-2.7-0.4-7.2,0.3-9.9c0.6-2.5-2.1-2.6-2.2-0.7C96.7,65.9,97.1,69.6,98.9,73.2"/>
	<path class="st1" d="M167.1,37.5c-2.6,0.6-5.8,3.1-6.3,6.8c-0.6-3.6-3.7-6.2-6.3-6.8c1.9-0.5,4.6-0.5,5.7,2.6
		c-0.1-2.5-3-3.7-1.5-7.3c0.8-1.9,1.7-1.9,2.2-5.8c0.5,3.8,1.4,3.9,2.2,5.8c1.5,3.6-1.5,4.8-1.5,7.3C162.5,37.1,165.3,37,167.1,37.5
		"/>
	<path class="st0" d="M208.4,67.2c0.2-4.6-1.7-9.4-4.2-12.9c-2.4-3.4-9.7-9.5-14.8-7.9c-3.7,1.2-2.6,6,0.7,6.4
		c0.7,0.1,1.4-0.1,2-0.5v0c2.8-2.2-0.4-5.6-2.3-3.9v0c-0.5,0.4-0.8,1.2-0.5,1.8c0.4,1,2,1.1,2.2-0.2c0.1-0.6-0.9,0.2-1.1-0.3
		c-0.4-1.2,2-1.3,2.2,0.3c0.1,0.9-0.6,1.7-1.4,1.9c-2.7,0.8-4.3-3.6-1.5-4.6c4.7-1.7,11.5,4.2,13.9,7.4
		C206,58.3,207.8,62.6,208.4,67.2"/>
	<path class="st1" d="M191.1,78.1c-0.4,0-0.7,0.3-0.7,0.7c0,0.4,0.3,0.7,0.7,0.7c0.4,0,0.7-0.3,0.7-0.7
		C191.8,78.4,191.5,78.1,191.1,78.1"/>
	<path class="st1" d="M191.8,80.5c-0.3,0-0.6,0.3-0.6,0.6c0,0.3,0.3,0.6,0.6,0.6c0.3,0,0.6-0.3,0.6-0.6
		C192.4,80.8,192.1,80.5,191.8,80.5"/>
	<path class="st1" d="M192.8,82.8c-0.3,0-0.5,0.2-0.5,0.5c0,0.3,0.2,0.5,0.5,0.5c0.3,0,0.5-0.2,0.5-0.5
		C193.2,83,193,82.8,192.8,82.8"/>
	<path class="st1" d="M184.8,70.5c0.2,0.4,0.6,0.6,1.1,0.5c0.4-0.2,0.6-0.6,0.5-1.1c-0.2-0.4-0.6-0.6-1.1-0.5
		C184.9,69.6,184.7,70.1,184.8,70.5"/>
	<path class="st1" d="M187.5,68.8c0.1,0.4,0.6,0.6,0.9,0.4c0.4-0.1,0.6-0.6,0.4-0.9c-0.1-0.4-0.6-0.6-0.9-0.4
		C187.5,68.1,187.3,68.5,187.5,68.8"/>
	<path class="st1" d="M189.4,66.6c0.1,0.3,0.4,0.4,0.7,0.3c0.3-0.1,0.4-0.4,0.3-0.7c-0.1-0.3-0.4-0.4-0.7-0.3
		C189.5,66,189.3,66.3,189.4,66.6"/>
	<path class="st1" d="M240.1,79.4c0.1,0.3,0.5,0.4,0.8,0.3c0.3-0.1,0.4-0.5,0.3-0.8c-0.1-0.3-0.5-0.4-0.8-0.3
		C240.1,78.7,240,79.1,240.1,79.4"/>
	<path class="st1" d="M241.9,78.1c0.1,0.2,0.4,0.4,0.7,0.2c0.3-0.1,0.4-0.4,0.2-0.7c-0.1-0.2-0.4-0.4-0.7-0.2
		C241.8,77.5,241.7,77.8,241.9,78.1"/>
	<path class="st1" d="M243.1,76.4c0.1,0.2,0.3,0.3,0.5,0.2c0.2-0.1,0.3-0.3,0.2-0.5c-0.1-0.2-0.3-0.3-0.5-0.2
		C243.1,76,243,76.2,243.1,76.4"/>
	<path class="st1" d="M210.3,89.8c4.8-1.8,9.2-5.4,11.7-11.3c0.6-1.4,2-0.5,1.5,0.5C220.6,85,215.8,88.6,210.3,89.8"/>
	<path class="st1" d="M222.7,73.2c0.8-2.7,0.4-7.2-0.3-9.9c-0.6-2.5,2.1-2.6,2.2-0.7C224.9,65.9,224.5,69.6,222.7,73.2"/>
	<path class="st0" d="M182.7,70.8c1.7,2.3,1.5,5.5-0.4,7.5c-2.4,2.6-6.9,1.7-7.8-1.7c-1.1-3.9,3.8-4.5,3.3-2.1
		c-0.2,1,0.9,0.4,1.3-0.2c1.8-3.4-3-4.9-5.1-0.8c-1.9,3.7,2.2,8.2,7.1,6.5c4.5-1.5,5.3-8.1,0.8-11.3c5,0.1,9.2-5.3,8.7-9.8
		c-0.8-7.3-9.2-9.3-12.9-5.2c-3.5,3.9-0.2,9.6,4.1,9.3c3.3-0.2,4.4-4.1,2.2-5.7c-0.9-0.7-2.2-0.5-2.8,0.4c-0.5,0.9-0.4,2.1,0.4,1.7
		c1-0.5,2.9-0.3,2.3,1.4c-1.2,3.1-6.6,0.9-6.7-3c-0.2-4.5,5.6-7,9.5-3.2c3.4,3.3,3.1,9.2-1.9,11.8c-4.7,2.6-10.2-0.4-11.6-5.3
		c-1.2-4.2,0.6-9.1,3.7-12.4c8.1-8.6,23.8-5.7,29.9,6.4c5.5,11,2.5,21.8-6.1,28.6c-3.4,2.7-6.4,4-10.5,4.9c-6.5,1.3-13.2,0.4-18.6-3
		c-3.1-2-5.1-4.9-4-6.5c0.5-0.7,1.3-0.9,2.1-0.4c0.2-1-0.1-1.8-1.1-2c-1.4-0.4-3.7,0.7-3.1,3.4c0.3,1.5,2.7,4.2,5.7,6.1
		c4.7,3,10.8,4,16.6,3.5c-10,1.9-20.2-1.6-25.7-10.3l-0.7,1c1.1,1.6,2.4,3,3.8,4.3c-1.6-0.4-2.9,0.5-3.2,1.6
		c-0.6,2.3,2.8,3.3,3.3,1.1c0.3-1.5-1.7-1.3-1.2-0.4c0.1,0.2,0.5,0.4,0.8,0.1c0.1,0.9-1.1,1.2-1.8,0.5c-1.3-1.3,0.7-3.9,3.3-2
		c6.8,5.4,16.1,6.7,24.7,4.1c3-0.9,8-3.2,10.4-5c9.6-7.2,10.8-16.1,10.9-27.3c0.1-6,7-6.2,7.4-3c0.3,2.6-2.2,3.5-3.6,1.9
		c-0.4-0.5-0.3-1.9,0.7-2.2c-2-0.9-3.1,3.6,0.8,4c4.4,0.4,4.4-7.2-0.9-7.2c-3,0-5.5,2.1-5.5,6.2c0.1,6.7,0.2,13.8-3.4,19.8
		c2.2-4.5,3.4-9.9,2.4-15.3c-0.9-5.1-3.5-9.7-3.6-14.2c0-1.3,0.4-3.2,1.7-3.8c-3.3-1.3-5.8,1.9-3,7.1c-7.4-9.5-21.5-10.8-29-2.9
		c-4.5,4.8-6.5,12.9-1.4,17.8C178.3,69.6,180.4,67.9,182.7,70.8 M161.6,79.3c5.4-8.2,8.1-19.1,3.9-28.1c2.1,1.2,5.2,0.6,6.3-1.6
		c2.2-4.3-3-7.4-5.9-4.8c-1.1,1-1.3,3.2,0.2,4.1c0.8,0.5,1.6,0.1,1.3-0.3c-1.4-1.9,0-4.8,2.4-3.5c2.1,1.1,2,5.5-2,5.5
		c-1.4,0-2.9-0.6-3.7-1.8c-0.4-0.6-1-0.2-0.6,0.5c3.5,5.9,3.7,13.3,1.7,20.2c1.4-6.9,0.2-14.7-3.3-20.9l-0.7,1.1
		c5.3,8.8,5,20.5-0.3,28.8c-6.1,9.7-15.3,13.9-26.8,11.8c5.8,0.6,11.9-0.5,16.6-3.5c3-1.9,5.4-4.6,5.7-6.1c0.5-2.7-1.7-3.8-3.1-3.4
		c-0.9,0.3-1.3,1-1.1,2c0.8-0.6,1.6-0.4,2.1,0.4c1.1,1.6-0.9,4.5-4,6.5c-5.4,3.4-12,4.3-18.6,3c-4.1-0.8-7.2-2.2-10.5-4.9
		c-8.6-6.8-11.6-17.6-6.1-28.6c6-12.1,21.8-15,29.9-6.4c3.1,3.3,4.8,8.1,3.7,12.4c-1.3,4.9-6.8,7.9-11.6,5.3
		c-4.9-2.7-5.2-8.5-1.9-11.8c4-3.8,9.7-1.3,9.5,3.2c-0.2,3.9-5.5,6.1-6.7,3c-0.7-1.7,1.3-1.9,2.3-1.4c0.7,0.4,0.9-0.8,0.4-1.7
		c-0.6-0.9-1.9-1.1-2.8-0.4c-2.1,1.5-1.1,5.5,2.2,5.7c4.3,0.2,7.6-5.5,4.1-9.3c-3.7-4.1-12.1-2.1-12.9,5.2c-0.5,4.5,3.7,9.9,8.7,9.8
		c-4.5,3.2-3.7,9.7,0.8,11.3c4.9,1.7,9-2.8,7.1-6.5c-2-4.1-6.9-2.5-5.1,0.8c0.3,0.6,1.4,1.2,1.3,0.2c-0.4-2.4,4.4-1.9,3.3,2.1
		c-0.9,3.4-5.4,4.2-7.9,1.7c-1.9-2.1-2.1-5.3-0.4-7.5c2.2-3,4.4-1.2,8.1-4.8c5.1-4.9,3.1-13-1.4-17.8c-7.5-7.9-21.6-6.6-29,2.9
		c2.8-5.2,0.2-8.4-3-7.1c1.3,0.5,1.8,2.4,1.7,3.8c-0.1,4.5-2.7,9.1-3.6,14.2c-1,5.5,0.1,10.8,2.4,15.3c-3.6-5.9-3.5-13.1-3.4-19.8
		c0-4.1-2.4-6.3-5.5-6.2c-5.4,0.1-5.4,7.6-0.9,7.2c3.9-0.3,2.8-4.9,0.8-4c1,0.3,1.1,1.8,0.7,2.2c-1.4,1.7-3.9,0.7-3.6-1.9
		c0.4-3.2,7.3-3.1,7.4,3c0.1,11.2,1.3,20.1,10.9,27.3c2.4,1.8,7.4,4.1,10.4,5c8.6,2.6,17.9,1.3,24.7-4.1c2.6-1.9,4.6,0.7,3.3,2
		c-0.7,0.7-1.9,0.4-1.8-0.5c0.3,0.3,0.7,0.2,0.8-0.1c0.5-0.9-1.4-1.1-1.2,0.4c0.5,2.2,3.8,1.2,3.3-1.1c-0.3-1.1-1.6-2.1-3.2-1.6
		C158.5,83.4,160.2,81.3,161.6,79.3 M160.5,77.8c-4.8-8.5-5.2-20,0.3-28.7c3.3-5.3,8.7-9.7,15.3-8.6c-6.7-5.1-12.9,2.1-16,7.5
		c-3.7,6.3-5,14.3-3.5,21.4c-2-6.8-1.8-14.3,1.7-20.2c0.4-0.6-0.2-1-0.6-0.5c-0.8,1.2-2.3,1.8-3.7,1.8c-4,0-4.1-4.4-2-5.5
		c2.4-1.2,3.8,1.6,2.4,3.5c-0.3,0.3,0.5,0.7,1.3,0.3c1.5-0.9,1.2-3.1,0.2-4.1c-2.8-2.6-8,0.5-5.9,4.8c1.1,2.2,4.1,2.8,6.3,1.6
		c-4.1,8.9-1.6,19.7,3.6,27.8L160.5,77.8z M160.5,46.3c-3.1-5.2-9.3-10.5-15-5.8c5.3-0.9,11.5,2.6,14.3,7L160.5,46.3z"/>
	<path class="st1" d="M160.8,62.6c4,0,7.4,0.3,10.6,0.7c-3.2,0.4-6.6,0.7-10.6,0.7c-4,0-7.4-0.3-10.6-0.7
		C153.4,62.9,156.8,62.6,160.8,62.6"/>
	<path class="st1" d="M90.8,84.2c0,1,1.5,1.3,2.3,0.6c0.4-0.3,0.6-0.7,0.7-1.1c0.2-0.9-0.4-1.9-1.2-2.3c-1.2-0.7-2.6-0.4-3.7,0.3
		l-0.1,0.1L88.3,81l0.1-0.1c1-0.6,2.2-0.9,3.4-0.7c1,0.2,1.9,0.7,2.4,1.5c0.3,0.4,0.4,0.9,0.4,1.4c0.1,1.3-0.6,2.2-1.4,2.6
		c-0.4,0.8-0.2,1.4,0.6,1.7c-0.9,0.2-1.5-0.6-1.1-1.5l0,0c-1.3,0.4-2.8-0.1-2.9-1.6c-0.1-0.8,0.6-1.9,1.4-1.7c0.6,0.1,1,0.8,0.6,1.4
		C91.7,84.4,91.2,84.4,90.8,84.2"/>
	<path class="st1" d="M230.8,84.2c0,1-1.5,1.3-2.3,0.6c-0.4-0.3-0.6-0.7-0.7-1.1c-0.2-0.9,0.4-1.9,1.2-2.3c1.2-0.7,2.6-0.4,3.7,0.3
		l0.1,0.1l0.4-0.7l-0.1-0.1c-1-0.6-2.2-0.9-3.4-0.7c-1,0.2-1.9,0.7-2.4,1.5c-0.3,0.4-0.4,0.9-0.4,1.4c-0.1,1.3,0.6,2.2,1.4,2.6
		c0.4,0.8,0.2,1.4-0.6,1.7c0.9,0.2,1.5-0.6,1.1-1.5l0,0c1.3,0.4,2.8-0.1,2.9-1.6c0.1-0.8-0.6-1.9-1.4-1.7c-0.6,0.1-1,0.8-0.6,1.4
		C229.9,84.4,230.4,84.4,230.8,84.2"/>
	<path class="st1" d="M238.2,80.1c0,0,0.1,0,0.2,0c0.1,0,0.1,0,0.2,0c0.3,0,0.5-0.3,0.5-0.7c0-0.2-0.2-0.4-0.4-0.5h0
		c-3.1-1.3-4-5.9,1.6-6.2c1.8-0.1,3.5,0.3,4.7,1.2c0-0.3,0.1-0.5,0.1-0.8c-1.4-0.9-3.1-1.4-4.9-1.4
		C233.3,71.8,233.7,78.7,238.2,80.1 M246.8,75.6c1,1.4,1.4,3.1,0.9,4.9c-1.5,5.5-8.2,6.7-13.1,5.2c-1.6-0.5-1.8,1.8-0.3,2.3
		c5.2,1.7,12.5-1.3,14.1-7.3c0.6-2.2-0.1-4.3-1.5-6C246.9,75,246.9,75.3,246.8,75.6"/>
	<path class="st0" d="M235.5,69.9c-3.7-0.4-7.5,2.9-6.2,7.4c1.3,4.4,5.6,6.2,9.6,5.5c7.4-1.3,10.6-11.6,4.8-17.2
		c-3.9-3.8-11.1-4.1-15.6,0.7c-7.2,7.8-6.3,19.1-18.5,23.2c2.7-1,5-3.1,6.9-5.4c3.5-4.3,6.7-10.6,5.1-15.7c-1.1-3.3-5.8-4-7.5-0.6
		c-0.6,1.2-0.5,2.8,0.4,3.9c0.4,0.5,0.9,0.8,1.2,1.5c0.7,1.2,0.2,2.6-0.3,3.1c1.9-0.3,2.1-2,1.3-3.3c3.6,1.2,3.9-3,2-3.4
		c0.5,0.9,0,2.4-1.2,2.4c-1.4,0.1-2.1-0.7-2.4-1.9c-0.4-1.5,1-3.4,3.1-3.2c1.4,0.2,2,0.9,2.5,1.8c2,4.3-1.8,11.5-4.4,14.7
		c-4,4.9-10.4,7.6-16.7,6.4c-1.4-0.3-2.6-0.7-3.6-1.3c-0.3,0.1-0.6,0.3-0.9,0.4c1.4,0.9,2.9,1.5,4.5,1.9c3.2,0.7,6.9,0.4,11.2-1
		c12.7-4.2,11.3-17.4,19-23.4c4.3-3.4,10.5-2.4,13.7,0.9c5.1,5.1,0.5,14.3-5.3,14.4c-3.7,0.1-6.7-1-8-4.7c-0.5-1.5,1.3-1.4,2.4-2.8
		C233.9,72.4,233,70.9,235.5,69.9 M194.2,87.3c-0.8-0.7-1.6-1.6-2.4-2.6c-5.6-7.2-1.3-16.8,5.3-18.6c2.2-0.6,4.9-0.3,6.4,1.6
		c2.2,2.8-1.2,5.1-2.6,3.4c-0.6-0.7,2.5-2.3,0.9-2.7c-1.6-0.4-2.5,0.6-2.4,2.2c0.1,1.3,1.1,2.6,3.1,2.4c2.4-0.2,4-3.8,1-6.3
		c0.9,0.6,1.8,1.4,2.1,2.6c0.8,3.4-2.4,6.5-5.5,5.3c-3.4-1.3-2.2-6.3-0.7-7.8c-4.3,1.2-9,4.4-9,9.5c0,0.4,0.3,0.6,0.6,0.6
		c0.4,0,0.6-0.3,0.6-0.6c0-3.7,2.3-6.8,6-8c-2.3,2.9-0.9,6.9,2,7.9c2.6,0.8,5.8-0.2,6.8-3.4c0.3-1,0.3-2.1,0-3.2
		c-1.8-6.6-13.8-6.3-17.3,3.9c-1.9,5.4,0.2,11,4.2,14.4C193.6,87.6,193.9,87.5,194.2,87.3"/>
	<path class="st0" d="M252.9,82.7c2.2-0.7,6.1-1.1,8.5-0.6c3.2,0.7,7.1,3.7,4.1,7.2c1.1,0.5,2,0.4,3.1-0.3c1.1-2.1,0.7-4.6-1.2-6.1
		c1.6,2.3,1.8,5.5-1.3,6.4c0.7-1.2,1.1-2.1,1-3.2c-0.2-2.4-2.8-3.8-5.1-4.4c-2.6-0.7-5.8-0.6-8.4,0.4c1.1-1,4.6-1.9,8.7-0.8
		c3.3,0.9,6.5,2.9,4.9,6.8c2.4-2.4,0.2-5.3-1.7-6.7c0.5,0.3,1.2,0.6,1.7,0.9c2.4,1.6,3.4,4.3,2,6.6c3.1,0.4,4.2-10.6-8.5-10.1
		c-4,0.2-8.7,3-12.7,5.4c-3,1.8-5.1,3.2-7.8,3.7c6.9-2.5,12-9.7,20.6-10.4c3-0.2,7.6,0.4,9.4,2.4c0.4,0.4,0.2,1.2-0.4,1
		c1.1,1,1.8,2.6,1.9,4.3c0.2,1.5,2.7,2.5,2.9,0.8c-1.1,1-3-0.4-2.7-2.2c0.1,1.4,2.1,3.7,2.9,0.8c0.1,0.8,0.3,1.5-0.2,2.2
		c-0.7,1-2.3,0.7-3-0.4c-0.2,1.9-1.1,3.4-3,3c-1.4,0.9-2.8,0.7-4.2,0c2.8-2.7,0.3-5.9-3.1-6.7c-1.3-0.3-3.1-0.4-4.5-0.1
		c0.1,0.7-0.5,0.9-1.1,0.9c-3-0.2-7.9,1.7-11,2.9C247.7,84.7,249.6,83.6,252.9,82.7 M264.4,84.9c0.5,0.7,0.7,1.9,0,2.5
		c-0.5,0.4-0.5,0.9-0.2,1.5c-0.6-0.3-0.6-0.8-0.4-1.2c-1.6,0.4-2.1-1.5-1.1-2c0.7-0.4,1.2,0.1,1.2,0.5c0.1,0.4-0.4,1-1,0.6
		c0.2,0,0.6-0.2,0.5-0.5c0-0.1-0.3-0.4-0.6-0.2c-0.2,0.1-0.5,0.6-0.2,1c0.4,0.6,2,0.5,1.9-0.9c0-0.5-0.3-1.1-0.7-1.4
		c-1.1-0.9-3.7-1.8-5.1-1.3C259.7,82.4,263.4,83.4,264.4,84.9"/>
	<path class="st0" d="M68.7,82.7c-2.2-0.7-6.1-1.1-8.5-0.6c-3.2,0.7-7.2,3.7-4.1,7.2c-1.1,0.5-2.1,0.4-3.1-0.3
		c-1.1-2.1-0.7-4.6,1.2-6.1c-1.6,2.3-1.9,5.5,1.3,6.4c-0.7-1.2-1.1-2.1-1-3.2c0.2-2.4,2.8-3.8,5.1-4.4c2.6-0.7,5.8-0.6,8.4,0.4
		c-1.1-1-4.6-1.9-8.7-0.8c-3.3,0.9-6.5,2.9-4.9,6.8c-2.4-2.4-0.2-5.3,1.7-6.7c-0.5,0.3-1.2,0.6-1.7,0.9c-2.4,1.6-3.4,4.3-2,6.6
		c-3.1,0.4-4.2-10.6,8.5-10.1c4,0.2,8.7,3,12.7,5.4c3,1.8,5.1,3.2,7.8,3.7c-6.9-2.5-12-9.7-20.6-10.4c-3-0.2-7.6,0.4-9.4,2.4
		c-0.4,0.4-0.2,1.2,0.4,1c-1.1,1-1.8,2.6-1.9,4.3c-0.2,1.5-2.7,2.5-2.9,0.8c1.1,1,3-0.4,2.7-2.2c-0.1,1.4-2.1,3.7-2.9,0.8
		c-0.1,0.8-0.3,1.5,0.2,2.2c0.8,1,2.3,0.7,3-0.4c0.2,1.9,1.1,3.4,3,3c1.4,0.9,2.8,0.7,4.2,0c-2.8-2.7-0.3-5.9,3.1-6.7
		c1.3-0.3,3.1-0.4,4.5-0.1c-0.1,0.7,0.5,0.9,1.1,0.9c3-0.2,7.9,1.7,11,2.9C73.9,84.7,72,83.6,68.7,82.7 M57.1,84.9
		c-0.5,0.7-0.7,1.9,0,2.5c0.5,0.4,0.5,0.9,0.2,1.5c0.6-0.3,0.6-0.8,0.4-1.2c1.6,0.4,2.1-1.5,1.1-2c-0.7-0.4-1.2,0.1-1.2,0.5
		c-0.1,0.4,0.4,1,1,0.6c-0.2,0-0.6-0.2-0.5-0.5c0-0.1,0.3-0.4,0.6-0.2c0.2,0.1,0.5,0.6,0.2,1c-0.4,0.6-2,0.5-1.9-0.9
		c0-0.5,0.3-1.1,0.7-1.4c1.1-0.9,3.7-1.8,5.1-1.3C61.8,82.4,58.1,83.4,57.1,84.9"/>
	<path class="st0" d="M234.9,158.8H173c-6.1,0-9.2,0.3-12.3,2.1c-3.1-1.9-6.3-2.1-12.3-2.1H86.9c-0.1-0.2-0.3-0.4-0.6-0.4
		c-0.3,0-0.7,0.3-0.7,0.7c0,0.4,0.4,0.7,0.7,0.7c0.3,0,0.5-0.1,0.6-0.4h61.5c3.5,0,9.7,0.2,11.5,2c-0.8,0.9-1.3,1.7-1.7,2.7
		c-0.9,2.1-0.1,4.7,2.5,4.8c2.7-0.1,3.5-2.7,2.5-4.8c-0.4-0.9-1-1.8-1.7-2.7c1.8-1.8,8.1-2,11.5-2h61.8c0.1,0.2,0.3,0.4,0.6,0.4
		c0.3,0,0.7-0.3,0.7-0.7c0-0.4-0.4-0.7-0.7-0.7C235.1,158.4,235,158.5,234.9,158.8 M160.7,161.9c0.7,0.6,1.5,1.4,1.9,2.6
		c0.7,1.9-0.5,3.1-1.9,3.1c-1.4,0-2.6-1.3-1.9-3.1C159.2,163.3,160,162.5,160.7,161.9 M82.7,158.2c0.5,0,0.9,0.4,0.9,0.9
		c0,0.5-0.4,0.9-0.9,0.9c-0.5,0-0.9-0.4-0.9-0.9C81.8,158.6,82.2,158.2,82.7,158.2 M79,158c0.6,0,1.1,0.5,1.1,1.1
		c0,0.6-0.5,1.1-1.1,1.1c-0.6,0-1.1-0.5-1.1-1.1C77.9,158.5,78.4,158,79,158 M157.7,163.6c-1.1,0.4-1.5,1.4-1,2.3
		c0.6,1.1-0.9,1.5-1.3,0.7C154.5,164.9,156,163.5,157.7,163.6 M158.1,162.5c-1.5-1.2-3.9-1.9-6.4-1.5c-1.5,0.2-1.4,2.2,0.5,1.7
		C153.8,162.3,155.9,162.2,158.1,162.5 M239,158.2c-0.5,0-0.9,0.4-0.9,0.9c0,0.5,0.4,0.9,0.9,0.9c0.5,0,0.9-0.4,0.9-0.9
		C239.9,158.6,239.5,158.2,239,158.2 M242.7,158c-0.6,0-1.1,0.5-1.1,1.1c0,0.6,0.5,1.1,1.1,1.1c0.6,0,1.1-0.5,1.1-1.1
		C243.9,158.5,243.4,158,242.7,158 M163.7,163.6c1.1,0.4,1.5,1.4,1,2.3c-0.6,1.1,0.9,1.5,1.3,0.7
		C166.8,164.9,165.4,163.5,163.7,163.6 M163.2,162.5c1.5-1.2,3.9-1.9,6.4-1.5c1.5,0.2,1.4,2.2-0.5,1.7
		C167.6,162.3,165.4,162.2,163.2,162.5"/>
	<polygon class="st2" points="90,152.6 87.7,152.6 85,132.7 87.7,132.7 88.9,143 88.9,143.7 89.1,143.7 89.2,143 90.5,132.7 
		92.6,132.7 93.8,143 93.9,143.7 94.1,143.7 94.2,143 95.3,132.7 98,132.7 95.4,152.6 93.1,152.6 91.7,143.2 91.6,142 91.5,142 
		91.3,143.2 	"/>
	<polygon class="st2" points="102,132.7 108.7,132.7 108.7,135.7 104.9,135.7 104.9,140.9 107.6,140.9 107.6,144.1 104.9,144.1 
		104.9,149.6 108.7,149.6 108.7,152.6 102,152.6 	"/>
	<path class="st2" d="M112.7,152.6v-19.9h2.3c2.7,0,4.2,0.5,4.9,2.1c0.8,1.5,0.9,4,0.9,7.9c0,3.9-0.1,6.3-0.9,7.9
		c-0.8,1.5-2.2,2.1-4.9,2.1H112.7z M115.7,149.6c1,0,1.6-0.1,1.9-1.1c0.1-0.5,0.2-1.2,0.3-2.1c0-0.9,0-2.2,0-3.8c0-1.6,0-2.9,0-3.8
		c0-0.9-0.1-1.6-0.3-2.1c-0.3-0.9-0.9-1.1-1.9-1.1V149.6z"/>
	<path class="st2" d="M125,152.6v-19.9h2.3c2.7,0,4.2,0.5,4.9,2.1c0.8,1.5,0.9,4,0.9,7.9c0,3.9-0.1,6.3-0.9,7.9
		c-0.8,1.5-2.2,2.1-4.9,2.1H125z M128,149.6c1,0,1.6-0.1,1.9-1.1c0.1-0.5,0.2-1.2,0.3-2.1s0-2.2,0-3.8c0-1.6,0-2.9,0-3.8
		c0-0.9-0.1-1.6-0.3-2.1c-0.3-0.9-0.9-1.1-1.9-1.1V149.6z"/>
	<rect x="137.4" y="132.7" class="st2" width="2.9" height="19.9"/>
	<polygon class="st2" points="147.7,142.2 147.4,141.3 147.3,141.3 147.3,152.6 144.6,152.6 144.6,132.7 147.2,132.7 150,143.1 
		150.3,144 150.4,144 150.4,132.7 153.1,132.7 153.1,152.6 150.5,152.6 	"/>
	<path class="st2" d="M162.2,139.8v-3.1c0-0.5-0.1-0.9-0.4-1.2c-0.1-0.1-0.4-0.2-0.6-0.2c-0.5,0-0.8,0.4-0.9,0.7
		c-0.1,0.2-0.1,0.5-0.1,0.7v11.9c0,0.6,0.1,0.9,0.4,1.2c0.1,0.1,0.3,0.2,0.6,0.2c0.5,0,0.8-0.3,0.9-0.7c0.1-0.2,0.1-0.4,0.1-0.7
		v-3.6h-1.2v-2.5h4.1v9.9h-1.7l-0.4-0.9c-0.5,0.7-1.3,1.2-2.3,1.2c-0.9,0-1.6-0.2-2.1-0.7c-0.5-0.4-0.8-0.9-1-1.5
		c-0.2-0.6-0.4-1.4-0.3-2.2v-11.7c0-0.8,0.2-1.5,0.5-2.1c0.2-0.5,0.6-1.1,1.1-1.5c0.5-0.4,1.3-0.7,2.3-0.7c1,0,1.7,0.3,2.2,0.7
		c0.5,0.4,0.9,0.9,1.2,1.5c0.3,0.6,0.5,1.4,0.5,2.1v3.1H162.2z"/>
	<path class="st2" d="M184.4,139.8v-3.1c0-0.5-0.1-0.9-0.4-1.2c-0.1-0.1-0.4-0.2-0.6-0.2c-0.5,0-0.8,0.4-0.9,0.7
		c-0.1,0.2-0.1,0.5-0.1,0.7v11.9c0,0.6,0.1,0.9,0.4,1.2c0.1,0.1,0.3,0.2,0.6,0.2c0.5,0,0.8-0.3,0.9-0.7c0.1-0.2,0.1-0.4,0.1-0.7
		v-3.6h-1.2v-2.5h4.1v9.9h-1.7l-0.4-0.9c-0.5,0.7-1.3,1.2-2.3,1.2c-0.9,0-1.6-0.2-2.1-0.7c-0.5-0.4-0.8-0.9-1-1.5
		c-0.2-0.6-0.4-1.4-0.3-2.2v-11.7c0-0.8,0.2-1.5,0.5-2.1c0.2-0.5,0.6-1.1,1.1-1.5c0.5-0.4,1.3-0.7,2.3-0.7c1,0,1.7,0.3,2.2,0.7
		c0.5,0.4,0.9,0.9,1.2,1.5c0.3,0.6,0.5,1.4,0.5,2.1v3.1H184.4z"/>
	<path class="st2" d="M196.9,152.6l-1.5-8.4h-0.8v8.4h-2.9v-19.9h2.9c3.5,0,5,2,5,5.7c0,2-0.5,3.8-1.6,4.5l1.9,9.6H196.9z
		 M194.6,141.5c0.4,0,0.9-0.1,1.4-0.4c0.4-0.4,0.8-1.1,0.8-2.5c0-1.4-0.4-2.2-0.8-2.5c-0.4-0.4-1-0.4-1.4-0.4V141.5z"/>
	<path class="st2" d="M211.4,148.5c0,0.8-0.2,1.5-0.5,2.2c-0.2,0.5-0.6,1.1-1.2,1.5c-0.5,0.4-1.3,0.7-2.2,0.7c-1,0-1.7-0.2-2.3-0.7
		c-0.5-0.4-0.9-0.9-1.1-1.5c-0.3-0.6-0.5-1.4-0.5-2.2v-11.7c0-0.8,0.2-1.5,0.5-2.1c0.2-0.5,0.6-1.1,1.1-1.5c0.5-0.4,1.3-0.7,2.3-0.7
		c1,0,1.7,0.3,2.2,0.7c0.5,0.4,0.9,0.9,1.2,1.5c0.3,0.6,0.5,1.4,0.5,2.1V148.5z M208.5,136.8c0-0.5-0.1-0.9-0.4-1.2
		c-0.1-0.1-0.4-0.2-0.6-0.2c-0.5,0-0.8,0.4-0.9,0.7c-0.1,0.2-0.1,0.5-0.1,0.7v11.7c0,0.6,0.1,0.9,0.4,1.2c0.1,0.1,0.3,0.2,0.6,0.2
		c0.5,0,0.8-0.3,0.9-0.7c0.1-0.2,0.1-0.4,0.1-0.7V136.8z"/>
	<path class="st2" d="M223.4,132.7v15.8c0,0.8-0.2,1.5-0.5,2.2c-0.2,0.5-0.6,1.1-1.2,1.5c-0.5,0.4-1.3,0.7-2.2,0.7
		c-1,0-1.7-0.2-2.3-0.7c-0.5-0.4-0.9-0.9-1.1-1.5c-0.3-0.6-0.5-1.4-0.5-2.2v-15.8h2.9v15.8c0,0.6,0.1,0.9,0.4,1.2
		c0.1,0.1,0.3,0.2,0.6,0.2c0.5,0,0.8-0.3,0.9-0.7c0.1-0.2,0.1-0.4,0.1-0.7v-15.8H223.4z"/>
	<path class="st2" d="M227.8,132.7h2.9c1.3,0,2.5,0.3,3.5,1.2c1,0.9,1.6,2.4,1.6,4.7c0,2.3-0.6,3.8-1.6,4.7c-1,0.9-2.2,1.3-3.5,1.3
		v7.9h-2.9V132.7z M230.7,141.7c0.9,0,1.5-0.2,1.8-0.6c0.3-0.4,0.4-1.2,0.4-2.3s-0.1-1.9-0.4-2.4s-0.9-0.7-1.8-0.7V141.7z"/>
	<path class="st2" d="M33.9,117.1l-1.4,3.9c-0.1,0.3-0.2,0.6-0.2,0.8c0,0.8,0.5,1.1,1,1.1L35,123v1.3c-1.7,0-2.9-0.1-3.9-0.1
		c-1,0-2.2,0.1-3.9,0.1V123l1-0.1c0.9-0.1,1.5-1.1,1.9-2.1l6.2-15.1l2-5.2h2.4l8.9,20.8c0.4,0.9,0.8,1.4,1.9,1.5l0.8,0.1v1.3
		c-2.3,0-4-0.1-5.3-0.1c-1.3,0-3.1,0.1-5.3,0.1V123l1.8-0.1c0.4,0,0.7-0.4,0.7-1c0-0.2-0.1-0.6-0.2-0.9l-1.5-3.9H33.9z M34.7,115.1
		h7l-3.6-8.7L34.7,115.1z"/>
	<path class="st2" d="M64,122.2c1.4,0.1,2.9,0.1,4.4,0.1c1.6,0,4.1-0.3,4.2-0.6l0.8-3.5h1.3l-0.4,5.7l-0.2,0.3
		c-1.4,0.1-3.4,0.1-5.3,0.1c-1.2,0-2.3,0-3.2,0c-1.4,0-2.8-0.1-4.2-0.1c-1.4,0-2.9,0.1-4.1,0.1v-0.8l1.1-0.6c0.6-0.3,0.7-0.9,0.7-2
		v-15.4c0-1.4,0-2.4-0.2-2.8c-0.1-0.3-0.5-0.4-1.4-0.5l-1.3-0.1v-1.4c1.4,0,3.3,0.1,5.4,0.1c2,0,3.9-0.1,5.3-0.1v1.4l-1.3,0.1
		c-0.9,0.1-1.3,0.2-1.4,0.5c-0.2,0.4-0.2,1.3-0.2,2.8V122.2z"/>
	<path class="st2" d="M89,119.5c0,1.4,0,2.4,0.2,2.8c0.1,0.3,0.5,0.4,1.4,0.5l1.3,0.1v1.4c-1.4,0-3.3-0.1-5.3-0.1
		c-2.1,0-4,0.1-5.4,0.1v-1.4l1.3-0.1c0.9-0.1,1.3-0.2,1.4-0.5c0.2-0.4,0.2-1.3,0.2-2.8v-16.6h-4c-0.9,0-1.9,0-2.1,0.3
		c-0.1,0.2-0.3,0.4-0.3,0.8l-0.2,2.4h-1.4c-0.1-2.2-0.2-3.8-0.4-5.5l0.2-0.2c3.6,0,7.2,0.1,10.7,0.1c3.5,0,7.1-0.1,10.7-0.1l0.2,0.2
		c-0.3,1.7-0.4,3.2-0.4,5.5h-1.4l-0.2-2.4c0-0.4-0.2-0.7-0.3-0.8c-0.2-0.3-1.2-0.3-2.1-0.3h-4V119.5z"/>
	<path class="st2" d="M108.8,111.1c0.8,0.1,1.5,0.1,2.3,0.1h2.3c1.2,0,1.9-0.1,2-0.7l0.2-2h1.4c0,1.2-0.1,2.4-0.1,3.7
		s0.1,2.5,0.1,3.7h-1.4l-0.2-1.7c-0.1-1-0.8-1.3-2-1.3h-2.3c-0.8,0-1.5,0-2.3,0.1v9.2c1.4,0.1,2.9,0.1,4.4,0.1
		c1.6,0,4.1-0.3,4.2-0.6l0.8-3.2h1.3l-0.4,5.4l-0.2,0.3c-1.4,0.1-3.4,0.1-5.3,0.1c-1.2,0-2.3,0-3.2,0c-1.4,0-2.8-0.1-4.2-0.1
		c-1.4,0-2.9,0.1-4.1,0.1v-0.8l1.1-0.6c0.5-0.3,0.7-0.9,0.7-2v-15.4c0-1.4,0-2.4-0.2-2.8c-0.2-0.3-0.5-0.5-1.4-0.6l-1.3-0.1v-1.3
		c1.1,0,2.1,0,3,0.1c0.9,0,1.7,0,2.3,0c3.2,0,5.6-0.1,7.5-0.1c0.7,0,1.2,0,1.8,0c1.1,0,2.1,0,3.2,0.1l0.2,0.2l-0.5,4.9h-1.2
		l-0.3-2.6c-0.1-0.5-2.4-0.7-4-0.7c-1.5,0-3,0-4.4,0.1V111.1z"/>
	<path class="st2" d="M126.7,105.5c0-1.4,0-2.4-0.2-2.8c-0.2-0.3-0.5-0.5-1.4-0.6l-1.3-0.1v-1.3c2.3,0,4,0.1,5.8,0.1
		c2.3,0,4.6-0.1,7-0.1h0.3c3.4,0,6.4,1.1,6.4,5.1c0,3-2.3,5.1-5.1,6.1l6.2,9.4c0.2,0.4,0.6,0.8,1,1.1c0.3,0.2,0.8,0.3,1.4,0.5v1.4
		c-1.1,0-2.2-0.1-3.3-0.1c-1,0-2.1,0.1-3.1,0.1l-7.7-11.9l0.2-0.6c0.2,0,0.4,0,0.6,0c2.9,0,4.9-1.9,4.9-5c0-2.8-2-4.3-4.6-4.3
		c-0.7,0-1.7,0-2.2,0.3v16.8c0,1.4,0,2.4,0.2,2.8c0.1,0.3,0.5,0.4,1.4,0.5l1.3,0.1v1.4c-1.4,0-3.3-0.1-5.3-0.1c-2.1,0-4,0.1-5.4,0.1
		v-1.4l1.3-0.1c0.9-0.1,1.3-0.2,1.4-0.5c0.2-0.4,0.2-1.3,0.2-2.8V105.5z"/>
	<path class="st2" d="M153.1,105.5c0-1.4,0-2.4-0.2-2.8c-0.2-0.3-0.5-0.5-1.4-0.6l-1.3-0.1v-1.3c1.4,0,2.8,0.1,4.1,0.1
		c1,0,1.9-0.1,2.9-0.1c1.2,1.5,2.3,3.1,3.5,4.6l10.7,12.5v-12.3c0-1.4,0-2.4-0.2-2.8c-0.2-0.3-0.5-0.5-1.4-0.6l-1.3-0.1v-1.3
		c1.3,0,2.6,0.1,4,0.1s2.6-0.1,3.9-0.1v1.3l-1.3,0.1c-0.9,0.1-1.2,0.2-1.4,0.6c-0.2,0.4-0.2,1.3-0.2,2.8v15.6c0,1.2,0.1,2.4,0.1,3.5
		l-0.2,0.1l-2.8-0.4c-1.4-1.6-2.9-3.2-4.2-4.8l-11.1-13.4h-0.1v13.4c0,1.4,0,2.4,0.2,2.8c0.2,0.3,0.5,0.5,1.4,0.6l1.3,0.1v1.3
		c-1.3,0-2.6-0.1-3.9-0.1s-2.6,0.1-4,0.1V123l1.3-0.1c0.9-0.1,1.2-0.2,1.4-0.6c0.2-0.4,0.2-1.3,0.2-2.8V105.5z"/>
	<path class="st2" d="M186.9,117.1l-1.4,3.9c-0.1,0.3-0.2,0.6-0.2,0.8c0,0.8,0.5,1.1,1,1.1l1.7,0.1v1.3c-1.7,0-2.9-0.1-3.9-0.1
		s-2.2,0.1-3.9,0.1V123l1-0.1c0.9-0.1,1.5-1.1,1.9-2.1l6.2-15.1l2-5.2h2.4l8.9,20.8c0.4,0.9,0.8,1.4,1.9,1.5l0.8,0.1v1.3
		c-2.3,0-4-0.1-5.3-0.1c-1.3,0-3.1,0.1-5.3,0.1V123l1.8-0.1c0.4,0,0.7-0.4,0.7-1c0-0.2-0.1-0.6-0.2-0.9l-1.5-3.9H186.9z
		 M187.7,115.1h7l-3.6-8.7L187.7,115.1z"/>
	<path class="st2" d="M218.6,119.5c0,1.4,0,2.4,0.2,2.8c0.1,0.3,0.5,0.4,1.4,0.5l1.3,0.1v1.4c-1.4,0-3.3-0.1-5.3-0.1
		c-2.1,0-4,0.1-5.4,0.1v-1.4l1.3-0.1c0.9-0.1,1.3-0.2,1.4-0.5c0.2-0.4,0.2-1.3,0.2-2.8v-16.6h-4c-0.9,0-1.9,0-2.1,0.3
		c-0.1,0.2-0.3,0.4-0.3,0.8l-0.2,2.4h-1.4c-0.1-2.2-0.2-3.8-0.4-5.5l0.2-0.2c3.6,0,7.2,0.1,10.7,0.1c3.5,0,7.1-0.1,10.7-0.1l0.2,0.2
		c-0.3,1.7-0.4,3.2-0.4,5.5h-1.4l-0.2-2.4c0-0.4-0.2-0.7-0.3-0.8c-0.2-0.3-1.2-0.3-2.1-0.3h-4V119.5z"/>
	<path class="st2" d="M238.5,119.5c0,1.4,0,2.4,0.2,2.8c0.1,0.3,0.5,0.4,1.4,0.5l1.3,0.1v1.4c-1.4,0-3.3-0.1-5.3-0.1
		c-2.1,0-4,0.1-5.4,0.1v-1.4l1.3-0.1c0.9-0.1,1.3-0.2,1.4-0.5c0.2-0.4,0.2-1.3,0.2-2.8v-14c0-1.4,0-2.4-0.2-2.8
		c-0.1-0.3-0.5-0.4-1.4-0.5l-1.3-0.1v-1.4c1.4,0,3.3,0.1,5.4,0.1c2,0,3.9-0.1,5.3-0.1v1.4l-1.3,0.1c-0.9,0.1-1.3,0.2-1.4,0.5
		c-0.2,0.4-0.2,1.3-0.2,2.8V119.5z"/>
	<path class="st2" d="M259.7,118.6l4.9-12.1c0.6-1.4,1.1-2.8,1.1-3.4s-0.6-0.9-1.3-0.9l-1.6-0.1v-1.3c1.7,0,3,0.1,4,0.1
		c1,0,2.3-0.1,4-0.1v1.3l-1.1,0.1c-0.8,0.1-1.2,0.6-1.6,1.6l-7.2,17.1c-0.5,1.1-0.9,2.3-1.3,3.4h-2.6l-8.2-19.7
		c-0.4-1-1-2.4-2.1-2.5l-1.4-0.1v-1.3c2.3,0,4,0.1,5.4,0.1c1.3,0,3.1-0.1,5.6-0.1v1.3l-1.7,0.1c-0.5,0-0.9,0.3-0.9,0.7
		c0,0.7,0.4,1.7,0.7,2.5L259.7,118.6z"/>
	<path class="st2" d="M282,111.1c0.8,0.1,1.5,0.1,2.3,0.1h2.3c1.2,0,1.9-0.1,2-0.7l0.2-2h1.4c0,1.2-0.1,2.4-0.1,3.7s0.1,2.5,0.1,3.7
		h-1.4l-0.2-1.7c-0.1-1-0.8-1.3-2-1.3h-2.3c-0.8,0-1.5,0-2.3,0.1v9.2c1.4,0.1,2.9,0.1,4.4,0.1c1.6,0,4.1-0.3,4.2-0.6l0.8-3.2h1.3
		l-0.4,5.4l-0.2,0.3c-1.4,0.1-3.4,0.1-5.3,0.1c-1.2,0-2.3,0-3.2,0c-1.4,0-2.8-0.1-4.2-0.1c-1.4,0-2.9,0.1-4.1,0.1v-0.8l1.1-0.6
		c0.6-0.3,0.7-0.9,0.7-2v-15.4c0-1.4,0-2.4-0.2-2.8c-0.2-0.3-0.5-0.5-1.4-0.6l-1.3-0.1v-1.3c1.1,0,2.1,0,3,0.1c0.9,0,1.7,0,2.3,0
		c3.2,0,5.6-0.1,7.5-0.1c0.7,0,1.2,0,1.8,0c1.1,0,2.1,0,3.2,0.1l0.2,0.2l-0.5,4.9h-1.2l-0.3-2.6c-0.1-0.5-2.4-0.7-4-0.7
		c-1.5,0-3,0-4.4,0.1V111.1z"/>
</g>
</svg>
