<?xml version="1.0" encoding="utf-8"?>
<!-- Generator: Adobe Illustrator 18.1.1, SVG Export Plug-In . SVG Version: 6.00 Build 0)  -->
<svg version="1.1" xmlns="http://www.w3.org/2000/svg" xmlns:xlink="http://www.w3.org/1999/xlink" x="0px" y="0px"
	 viewBox="0 0 44 176" enable-background="new 0 0 44 176" xml:space="preserve">
<g id="Layer_1">
	<path id="path-1" fill="#E8B646" d="M34.9,81H9.1C7.9,81,7,80.1,7,78.9V53.1C7,51.9,7.9,51,9.1,51h25.8c1.2,0,2.1,0.9,2.1,2.1v25.8
		C37,80.1,36.1,81,34.9,81z M22,60.1c-3.3,0-6,2.6-6,5.8c0,3.2,2.7,5.8,6,5.8c3.3,0,6-2.6,6-5.8C28,62.7,25.3,60.1,22,60.1z
		 M33.6,55.7c0-0.7-0.6-1.3-1.3-1.3h-3.4c-0.7,0-1.3,0.6-1.3,1.3v3.2c0,0.7,0.6,1.3,1.3,1.3h3.4c0.7,0,1.3-0.6,1.3-1.3V55.7z
		 M33.6,63.7h-2.6c0.2,0.8,0.4,1.7,0.4,2.6c0,5-4.2,9-9.3,9c-5.1,0-9.3-4-9.3-9c0-0.9,0.1-1.8,0.4-2.6h-2.8v11.4
		c0,2.2,2,2.4,2.9,2.4h17.6c0.7,0,2.8-0.4,2.8-2.4V63.7z"/>
</g>
<g id="Layer_2">
	<path id="path-1_1_" fill="#E8B646" d="M27.9,37V24.9h4l0.7-4.3h-4.7v-3.2c0-1.2,0.3-1.9,1.8-1.9c1.4,0,2.8,0,2.8,0l0.1-4.1
		c0,0-1.9-0.3-3.6-0.3c-4.3,0-5.7,2.8-5.7,5.7v3.7h-3.9v4.3h3.9V37H7V7h30v30H27.9z"/>
</g>
<g id="Layer_3">
	<path id="path-1_2_" fill="#E8B646" d="M36.6,100.9c-1.1,0.5-2.2,0.8-3.4,1c1.2-0.7,2.2-1.9,2.6-3.3c-1.2,0.7-2.4,1.2-3.8,1.5
		c-1.1-1.2-2.6-1.9-4.4-1.9c-3.3,0-6,2.7-6,6c0,0.5,0.1,0.9,0.2,1.4c-5-0.3-9.4-2.7-12.3-6.3c-0.5,0.9-0.8,1.9-0.8,3
		c0,2.1,1.1,4,2.7,5c-1,0-1.9-0.3-2.7-0.8c0,0,0,0.1,0,0.1c0,2.9,2.1,5.4,4.8,5.9c-0.5,0.1-1,0.2-1.6,0.2c-0.4,0-0.8,0-1.1-0.1
		c0.8,2.4,3,4.2,5.6,4.2c-2,1.6-4.6,2.6-7.4,2.6c-0.5,0-1,0-1.4-0.1c2.6,1.7,5.8,2.7,9.2,2.7c11,0,17-9.2,17-17.2c0-0.3,0-0.5,0-0.8
		C34.8,103.1,35.8,102.1,36.6,100.9"/>
</g>
<g id="Layer_4">
	<g>
		<path fill="#E8B646" d="M9.1,154c0,5.1,3,9.5,7.3,11.6l-6.1-16.8C9.5,150.4,9.1,152.1,9.1,154"/>
		<path fill="#E8B646" d="M30.7,153.4c0-1.6-0.6-2.7-1.1-3.5c-0.7-1.1-1.3-2-1.3-3c0-1.2,0.9-2.3,2.2-2.3c0.1,0,0.1,0,0.2,0
			c-2.3-2.1-5.3-3.4-8.7-3.4c-4.5,0-8.5,2.3-10.8,5.8c0.3,0,0.6,0,0.8,0c1.3,0,3.4-0.2,3.4-0.2c0.7,0,0.8,1,0.1,1.1
			c0,0-0.7,0.1-1.5,0.1l4.7,13.9l2.8-8.4l-2-5.5c-0.7,0-1.3-0.1-1.3-0.1c-0.7,0-0.6-1.1,0.1-1.1c0,0,2.1,0.2,3.4,0.2
			c1.3,0,3.4-0.2,3.4-0.2c0.7,0,0.8,1,0.1,1.1c0,0-0.7,0.1-1.5,0.1l4.7,13.8l1.3-4.3C30.3,155.7,30.7,154.5,30.7,153.4"/>
		<path fill="#E8B646" d="M22.2,155.1l-3.9,11.2c1.2,0.3,2.4,0.5,3.6,0.5c1.5,0,2.9-0.3,4.3-0.7c0-0.1-0.1-0.1-0.1-0.2L22.2,155.1z"
			/>
		<path fill="#E8B646" d="M33.3,147.8c0.1,0.4,0.1,0.8,0.1,1.3c0,1.3-0.2,2.8-1,4.6l-3.9,11.4c3.8-2.2,6.4-6.4,6.4-11.1
			C34.9,151.8,34.3,149.7,33.3,147.8"/>
		<path fill="#E8B646" d="M22,139c-8.3,0-15,6.7-15,15c0,8.3,6.7,15,15,15s15-6.7,15-15C37,145.7,30.3,139,22,139 M22,168.3
			c-7.9,0-14.3-6.4-14.3-14.3c0-7.9,6.4-14.3,14.3-14.3s14.3,6.4,14.3,14.3C36.3,161.9,29.9,168.3,22,168.3"/>
	</g>
	<g>
	</g>
	<g>
	</g>
	<g>
	</g>
	<g>
	</g>
	<g>
	</g>
	<g>
	</g>
	<g>
	</g>
	<g>
	</g>
	<g>
	</g>
	<g>
	</g>
	<g>
	</g>
	<g>
	</g>
	<g>
	</g>
	<g>
	</g>
	<g>
	</g>
</g>
</svg>
