<?xml version="1.0" encoding="utf-8"?>
<!-- Generator: Adobe Illustrator 18.1.1, SVG Export Plug-In . SVG Version: 6.00 Build 0)  -->
<svg version="1.1" xmlns="http://www.w3.org/2000/svg" xmlns:xlink="http://www.w3.org/1999/xlink" x="0px" y="0px"
	 viewBox="0 0 267.1 142.9" enable-background="new 0 0 267.1 142.9" xml:space="preserve">
<g id="ornaments">
	<g>
		<path d="M86.1,40.4c-0.2-4.7,1.7-9.5,4.2-13c2.5-3.4,9.8-9.6,14.9-7.9c3.7,1.2,2.6,6.1-0.7,6.4c-0.7,0.1-1.5-0.1-2-0.5v0
			c-2.9-2.2,0.4-5.7,2.4-4l0,0c0.5,0.4,0.8,1.2,0.6,1.8c-0.4,1-2.1,1.1-2.2-0.2c-0.1-0.6,0.9,0.2,1.1-0.3c0.4-1.2-2-1.3-2.2,0.3
			c-0.1,0.9,0.6,1.7,1.4,1.9c2.7,0.8,4.3-3.6,1.5-4.6c-4.8-1.7-11.6,4.2-14,7.4C88.4,31.4,86.6,35.8,86.1,40.4"/>
		<path d="M100.3,60.7c0.8-0.7,1.6-1.6,2.4-2.6c5.7-7.2,1.3-16.9-5.3-18.7c-2.3-0.6-4.9-0.3-6.5,1.7c-2.2,2.8,1.2,5.1,2.6,3.4
			c0.6-0.7-2.6-2.3-0.9-2.7c1.6-0.4,2.5,0.6,2.4,2.2c-0.1,1.3-1.2,2.6-3.1,2.4c-2.5-0.2-4.1-3.8-1-6.4c-0.9,0.6-1.8,1.4-2.1,2.6
			c-0.8,3.4,2.4,6.6,5.6,5.3c3.4-1.4,2.2-6.4,0.7-7.8c4.3,1.2,9,4.5,9,9.5c0,0.4-0.3,0.6-0.6,0.6c-0.4,0-0.6-0.3-0.6-0.6
			c0-3.7-2.3-6.9-6-8.1c2.4,2.9,0.9,7-2,7.9c-2.6,0.8-5.8-0.2-6.9-3.4c-0.3-1-0.3-2.1,0-3.3c1.8-6.6,13.9-6.4,17.4,3.9
			c1.9,5.5-0.2,11-4.2,14.5C100.9,61,100.6,60.8,100.3,60.7 M58.7,43.1c3.7-0.4,7.5,2.9,6.2,7.4c-1.3,4.4-5.7,6.2-9.6,5.5
			c-7.4-1.3-10.7-11.7-4.9-17.4c3.9-3.8,11.2-4.2,15.7,0.7c7.3,7.8,6.3,19.2,18.6,23.3c-2.7-1-5-3.1-6.9-5.4
			c-3.5-4.4-6.7-10.7-5.1-15.8c1.1-3.4,5.9-4,7.5-0.6c0.6,1.2,0.5,2.8-0.4,3.9c-0.4,0.6-0.9,0.8-1.2,1.5c-0.7,1.2-0.2,2.6,0.3,3.1
			c-1.9-0.3-2.1-2-1.3-3.3c-3.7,1.2-3.9-3.1-2-3.4c-0.5,0.9,0,2.4,1.2,2.4c1.4,0.1,2.1-0.7,2.5-1.9c0.4-1.6-1-3.5-3.1-3.2
			c-1.4,0.2-2,0.9-2.5,1.8c-2,4.3,1.8,11.6,4.4,14.8c4,4.9,10.5,7.7,16.8,6.4c1.4-0.3,2.6-0.7,3.6-1.3c0.3,0.1,0.6,0.3,0.9,0.4
			c-1.4,0.9-2.9,1.5-4.5,1.9c-3.2,0.7-7,0.5-11.3-1C71,59.1,72.3,45.8,64.6,39.8c-4.4-3.4-10.5-2.4-13.8,0.9
			c-5.1,5.1-0.5,14.4,5.3,14.4c3.7,0.1,6.7-1,8-4.7c0.6-1.6-1.3-1.5-2.4-2.8C60.4,45.7,61.2,44.2,58.7,43.1"/>
		<path d="M103.4,51.4c0.4,0,0.7,0.3,0.7,0.7c0,0.4-0.3,0.7-0.7,0.7c-0.4,0-0.7-0.3-0.7-0.7C102.7,51.7,103,51.4,103.4,51.4"/>
		<path d="M102.7,53.9c0.3,0,0.6,0.3,0.6,0.6c0,0.3-0.3,0.6-0.6,0.6c-0.3,0-0.6-0.3-0.6-0.6C102.1,54.1,102.4,53.9,102.7,53.9"/>
		<path d="M101.7,56.1c0.3,0,0.5,0.2,0.5,0.5c0,0.3-0.2,0.5-0.5,0.5c-0.3,0-0.5-0.2-0.5-0.5C101.3,56.3,101.5,56.1,101.7,56.1"/>
		<path d="M109.8,43.8c-0.2,0.4-0.7,0.6-1.1,0.5c-0.4-0.2-0.6-0.7-0.5-1.1c0.2-0.4,0.6-0.6,1.1-0.5
			C109.7,42.9,109.9,43.4,109.8,43.8"/>
		<path d="M107.1,42.1c-0.1,0.4-0.6,0.6-0.9,0.4c-0.4-0.1-0.6-0.6-0.4-0.9c0.1-0.4,0.6-0.6,1-0.4C107.1,41.3,107.3,41.7,107.1,42.1"
			/>
		<path d="M105.1,39.8c-0.1,0.3-0.4,0.4-0.7,0.3c-0.3-0.1-0.4-0.4-0.3-0.7c0.1-0.3,0.4-0.4,0.7-0.3
			C105.1,39.2,105.2,39.5,105.1,39.8"/>
		<path d="M54.1,52.7c-0.1,0.3-0.5,0.4-0.8,0.3c-0.3-0.1-0.4-0.5-0.3-0.8c0.1-0.3,0.5-0.4,0.8-0.3C54.1,52.1,54.2,52.4,54.1,52.7"/>
		<path d="M52.3,51.4c-0.1,0.2-0.4,0.4-0.7,0.2c-0.3-0.1-0.4-0.4-0.2-0.7c0.1-0.3,0.4-0.4,0.7-0.2C52.3,50.8,52.4,51.1,52.3,51.4"/>
		<path d="M51.1,49.7c-0.1,0.2-0.3,0.3-0.5,0.2c-0.2-0.1-0.3-0.3-0.2-0.5c0.1-0.2,0.3-0.3,0.5-0.2C51.1,49.3,51.2,49.5,51.1,49.7"/>
		<path d="M47.4,48.9c-1,1.4-1.4,3.2-0.9,5c1.5,5.6,8.3,6.8,13.2,5.2c1.6-0.5,1.8,1.8,0.3,2.3c-5.3,1.7-12.6-1.4-14.2-7.3
			c-0.6-2.2,0.1-4.4,1.5-6C47.2,48.3,47.3,48.6,47.4,48.9 M56,53.4c0,0-0.1,0-0.2,0c-0.1,0-0.1,0-0.2,0c-0.3,0-0.6-0.3-0.5-0.7
			c0-0.2,0.2-0.4,0.4-0.5h0c3.1-1.3,4-5.9-1.6-6.3c-1.8-0.1-3.5,0.3-4.8,1.2c0-0.3-0.1-0.5-0.1-0.8c1.4-0.9,3.1-1.4,4.9-1.4
			C61,45.1,60.6,52,56,53.4"/>
		<path d="M84.2,63.2c-4.9-1.8-9.3-5.4-11.8-11.4c-0.6-1.5-2-0.5-1.6,0.5C73.8,58.4,78.6,62,84.2,63.2"/>
		<path d="M71.7,46.5c-0.8-2.8-0.4-7.2,0.3-10c0.6-2.5-2.1-2.6-2.2-0.7C69.5,39.1,69.8,42.9,71.7,46.5"/>
		<path d="M140.3,10.6c-2.6,0.6-5.8,3.2-6.4,6.8c-0.6-3.7-3.7-6.2-6.4-6.8c1.9-0.5,4.6-0.5,5.7,2.6c-0.1-2.5-3.1-3.7-1.5-7.4
			c0.8-1.9,1.7-2,2.2-5.8c0.5,3.9,1.4,3.9,2.2,5.8c1.5,3.7-1.5,4.9-1.5,7.4C135.7,10.1,138.5,10.1,140.3,10.6"/>
		<path d="M181.8,40.4c0.2-4.7-1.7-9.5-4.2-13c-2.5-3.4-9.8-9.6-14.9-7.9c-3.7,1.2-2.6,6.1,0.7,6.4c0.7,0.1,1.5-0.1,2-0.5v0
			c2.9-2.2-0.4-5.7-2.4-4v0c-0.5,0.4-0.8,1.2-0.6,1.8c0.4,1,2.1,1.1,2.2-0.2c0.1-0.6-0.9,0.2-1.1-0.3c-0.4-1.2,2-1.3,2.2,0.3
			c0.1,0.9-0.6,1.7-1.4,1.9c-2.7,0.8-4.3-3.6-1.5-4.6c4.8-1.7,11.6,4.2,14,7.4C179.5,31.4,181.3,35.8,181.8,40.4"/>
		<path d="M164.5,51.4c-0.4,0-0.7,0.3-0.7,0.7c0,0.4,0.3,0.7,0.7,0.7c0.4,0,0.7-0.3,0.7-0.7C165.2,51.7,164.9,51.4,164.5,51.4"/>
		<path d="M165.2,53.9c-0.3,0-0.6,0.3-0.6,0.6c0,0.3,0.3,0.6,0.6,0.6c0.3,0,0.6-0.3,0.6-0.6C165.8,54.1,165.5,53.9,165.2,53.9"/>
		<path d="M166.2,56.1c-0.3,0-0.5,0.2-0.5,0.5c0,0.3,0.2,0.5,0.5,0.5c0.3,0,0.5-0.2,0.5-0.5C166.6,56.3,166.4,56.1,166.2,56.1"/>
		<path d="M158.1,43.8c0.2,0.4,0.6,0.6,1.1,0.5c0.4-0.2,0.6-0.7,0.5-1.1c-0.2-0.4-0.7-0.6-1.1-0.5C158.2,42.9,158,43.4,158.1,43.8"
			/>
		<path d="M160.8,42.1c0.1,0.4,0.6,0.6,0.9,0.4c0.4-0.1,0.6-0.6,0.4-0.9c-0.1-0.4-0.6-0.6-0.9-0.4C160.8,41.3,160.7,41.7,160.8,42.1
			"/>
		<path d="M162.8,39.8c0.1,0.3,0.4,0.4,0.7,0.3c0.3-0.1,0.4-0.4,0.3-0.7c-0.1-0.3-0.4-0.4-0.7-0.3C162.8,39.2,162.7,39.5,162.8,39.8
			"/>
		<path d="M213.8,52.7c0.1,0.3,0.5,0.4,0.8,0.3c0.3-0.1,0.4-0.5,0.3-0.8c-0.1-0.3-0.5-0.4-0.8-0.3C213.8,52.1,213.7,52.4,213.8,52.7
			"/>
		<path d="M215.6,51.4c0.1,0.2,0.4,0.4,0.7,0.2c0.3-0.1,0.4-0.4,0.2-0.7c-0.1-0.3-0.4-0.4-0.7-0.2C215.6,50.8,215.5,51.1,215.6,51.4
			"/>
		<path d="M216.8,49.7c0.1,0.2,0.3,0.3,0.5,0.2c0.2-0.1,0.3-0.3,0.2-0.5c-0.1-0.2-0.3-0.3-0.5-0.2C216.8,49.3,216.7,49.5,216.8,49.7
			"/>
		<path d="M183.8,63.2c4.9-1.8,9.3-5.4,11.8-11.4c0.6-1.5,2-0.5,1.6,0.5C194.1,58.4,189.4,62,183.8,63.2"/>
		<path d="M196.2,46.5c0.8-2.8,0.4-7.2-0.3-10c-0.6-2.5,2.1-2.6,2.2-0.7C198.5,39.1,198.1,42.9,196.2,46.5"/>
		<path d="M133.7,19.4c-3.2-5.2-9.3-10.5-15.1-5.9c5.4-0.9,11.6,2.6,14.4,7.1L133.7,19.4z M133.7,51.1c-4.9-8.6-5.2-20.2,0.3-28.9
			c3.3-5.3,8.7-9.8,15.4-8.7c-6.7-5.1-12.9,2.1-16.1,7.5c-3.7,6.4-5,14.4-3.6,21.5c-2-6.9-1.9-14.4,1.7-20.3c0.4-0.6-0.2-1-0.6-0.5
			c-0.8,1.2-2.3,1.8-3.7,1.8c-4,0-4.1-4.4-2-5.5c2.4-1.3,3.8,1.6,2.4,3.5c-0.3,0.4,0.5,0.7,1.3,0.3c1.5-0.9,1.2-3.1,0.2-4.1
			c-2.9-2.6-8.1,0.5-5.9,4.8c1.1,2.2,4.2,2.8,6.3,1.6c-4.1,9-1.6,19.9,3.7,28L133.7,51.1z M134.7,52.6c5.5-8.2,8.1-19.2,3.9-28.3
			c2.1,1.2,5.2,0.6,6.3-1.6c2.2-4.3-3.1-7.5-5.9-4.8c-1.1,1-1.3,3.2,0.2,4.1c0.8,0.5,1.6,0.1,1.3-0.3c-1.5-1.9,0-4.8,2.4-3.5
			c2.1,1.1,2,5.5-2,5.5c-1.4,0-2.9-0.6-3.7-1.8c-0.4-0.6-1-0.2-0.6,0.5c3.6,5.9,3.7,13.4,1.7,20.3c1.4-7,0.2-14.8-3.3-21.1l-0.7,1.2
			c5.3,8.9,5,20.6-0.3,29c-6.1,9.8-15.4,14-27,11.9c5.9,0.6,12-0.5,16.7-3.5c3-1.9,5.4-4.6,5.8-6.2c0.5-2.7-1.8-3.8-3.2-3.4
			c-1,0.3-1.3,1-1.1,2.1c0.8-0.6,1.6-0.4,2.1,0.4c1.2,1.6-0.9,4.5-4,6.5c-5.4,3.5-12.1,4.4-18.7,3.1c-4.1-0.8-7.2-2.2-10.6-4.9
			c-8.7-6.9-11.7-17.8-6.1-28.8c6.1-12.2,21.9-15.1,30.1-6.5c3.1,3.3,4.9,8.2,3.7,12.4c-1.3,4.9-6.9,7.9-11.6,5.3
			c-5-2.7-5.3-8.6-1.9-11.9c4-3.9,9.8-1.3,9.6,3.2c-0.2,3.9-5.5,6.1-6.8,3c-0.7-1.7,1.3-1.9,2.3-1.4c0.8,0.4,0.9-0.8,0.4-1.7
			c-0.6-1-1.9-1.1-2.9-0.4c-2.2,1.6-1.1,5.5,2.2,5.7c4.4,0.2,7.6-5.5,4.2-9.4c-3.7-4.2-12.2-2.1-13,5.2c-0.5,4.5,3.7,10,8.7,9.9
			c-4.5,3.2-3.8,9.8,0.8,11.3c4.9,1.7,9-2.8,7.2-6.6c-2.1-4.1-6.9-2.6-5.1,0.9c0.3,0.6,1.5,1.2,1.3,0.2c-0.4-2.4,4.4-1.9,3.3,2.1
			c-0.9,3.4-5.4,4.3-7.9,1.7c-2-2.1-2.1-5.3-0.4-7.6c2.2-3,4.4-1.2,8.2-4.8c5.1-4.9,3.2-13.1-1.4-17.9c-7.5-8-21.7-6.7-29.2,2.9
			c2.8-5.3,0.2-8.5-3-7.2c1.4,0.5,1.8,2.5,1.7,3.8c-0.2,4.5-2.7,9.1-3.7,14.3c-1,5.5,0.2,10.8,2.4,15.4c-3.6-6-3.5-13.2-3.4-19.9
			c0-4.2-2.5-6.3-5.5-6.3c-5.4,0.1-5.4,7.7-0.9,7.3c3.9-0.3,2.9-4.9,0.8-4c1,0.3,1.1,1.8,0.7,2.2c-1.4,1.7-4,0.7-3.6-1.9
			c0.4-3.2,7.4-3.1,7.5,3c0.1,11.3,1.3,20.2,11,27.5c2.4,1.8,7.5,4.1,10.4,5c8.7,2.6,18,1.3,24.9-4.1c2.6-1.9,4.6,0.7,3.3,2
			c-0.7,0.7-1.9,0.4-1.8-0.5c0.3,0.3,0.7,0.2,0.8-0.1c0.5-0.9-1.5-1.1-1.2,0.4c0.5,2.2,3.9,1.2,3.3-1.1c-0.3-1.1-1.6-2.1-3.2-1.7
			C131.7,56.8,133.4,54.6,134.7,52.6 M156,44.1c1.7,2.3,1.5,5.5-0.4,7.6c-2.5,2.6-7,1.7-7.9-1.7c-1.1-4,3.8-4.5,3.3-2.1
			c-0.2,1,0.9,0.4,1.3-0.2c1.8-3.4-3.1-5-5.1-0.9c-1.9,3.8,2.2,8.3,7.2,6.6c4.6-1.6,5.3-8.2,0.8-11.3c5,0.1,9.2-5.3,8.7-9.9
			c-0.8-7.3-9.3-9.4-13-5.2c-3.5,3.9-0.2,9.7,4.2,9.4c3.4-0.2,4.4-4.2,2.2-5.7c-0.9-0.7-2.3-0.5-2.9,0.4c-0.6,0.9-0.4,2.1,0.4,1.7
			c1-0.5,3-0.3,2.3,1.4c-1.2,3.1-6.6,0.9-6.8-3c-0.2-4.5,5.6-7.1,9.6-3.2c3.4,3.3,3.1,9.2-1.9,11.9c-4.8,2.6-10.3-0.4-11.6-5.3
			c-1.2-4.3,0.6-9.1,3.7-12.4c8.2-8.6,24-5.7,30.1,6.5c5.5,11.1,2.5,21.9-6.1,28.8c-3.4,2.7-6.5,4.1-10.6,4.9
			c-6.6,1.3-13.3,0.4-18.7-3.1c-3.1-2-5.2-4.9-4-6.5c0.5-0.7,1.3-0.9,2.1-0.4c0.2-1-0.1-1.8-1.1-2.1c-1.4-0.4-3.7,0.7-3.2,3.4
			c0.3,1.5,2.8,4.3,5.8,6.2c4.7,3,10.8,4.1,16.7,3.5c-10.1,1.9-20.3-1.6-25.9-10.4l-0.7,1c1.1,1.7,2.4,3,3.8,4.3
			c-1.6-0.4-2.9,0.5-3.2,1.7c-0.6,2.4,2.8,3.3,3.3,1.1c0.3-1.5-1.7-1.3-1.2-0.4c0.1,0.2,0.5,0.4,0.8,0.1c0.1,0.9-1.1,1.2-1.8,0.5
			c-1.3-1.3,0.7-4,3.3-2c6.8,5.4,16.2,6.7,24.9,4.1c3-0.9,8.1-3.2,10.4-5c9.7-7.3,10.9-16.2,11-27.5c0.1-6.1,7-6.2,7.5-3
			c0.3,2.6-2.2,3.6-3.6,1.9c-0.4-0.5-0.3-2,0.7-2.2c-2.1-0.9-3.1,3.7,0.8,4c4.4,0.4,4.5-7.2-0.9-7.3c-3.1,0-5.6,2.1-5.5,6.3
			c0.1,6.7,0.2,13.9-3.4,19.9c2.3-4.6,3.4-9.9,2.4-15.4c-0.9-5.1-3.5-9.8-3.7-14.3c0-1.4,0.4-3.3,1.7-3.8c-3.3-1.3-5.9,1.9-3,7.2
			c-7.5-9.6-21.7-10.9-29.2-2.9c-4.6,4.8-6.5,13-1.4,17.9C151.5,42.9,153.7,41.1,156,44.1"/>
		<path d="M134,35.8c4,0,7.5,0.3,10.7,0.7c-3.2,0.4-6.6,0.7-10.7,0.7c-4.1,0-7.5-0.3-10.7-0.7C126.5,36.1,129.9,35.8,134,35.8"/>
		<path d="M63.5,57.5c0,1,1.5,1.3,2.3,0.6c0.4-0.3,0.6-0.7,0.7-1.1c0.2-0.9-0.4-1.9-1.2-2.3c-1.2-0.7-2.6-0.4-3.8,0.3l-0.1,0.1
			L61,54.3l0.1-0.1c1-0.6,2.2-0.9,3.4-0.7c1,0.2,1.9,0.7,2.4,1.5c0.3,0.4,0.4,0.9,0.5,1.4c0.1,1.3-0.6,2.2-1.4,2.6
			c-0.4,0.8-0.2,1.4,0.6,1.7c-0.9,0.2-1.5-0.6-1.1-1.5v0c-1.3,0.4-2.8-0.1-2.9-1.6c-0.1-0.8,0.6-1.9,1.5-1.7c0.6,0.1,1,0.8,0.6,1.4
			C64.4,57.7,63.9,57.8,63.5,57.5"/>
		<path d="M204.4,57.5c0,1-1.5,1.3-2.3,0.6c-0.4-0.3-0.6-0.7-0.7-1.1c-0.2-0.9,0.4-1.9,1.2-2.3c1.2-0.7,2.6-0.4,3.8,0.3l0.1,0.1
			l0.4-0.8l-0.1-0.1c-1-0.6-2.2-0.9-3.4-0.7c-1,0.2-1.9,0.7-2.4,1.5c-0.3,0.4-0.4,0.9-0.5,1.4c-0.1,1.3,0.6,2.2,1.4,2.6
			c0.4,0.8,0.2,1.4-0.6,1.7c0.9,0.2,1.5-0.6,1.1-1.5l0,0c1.3,0.4,2.8-0.1,2.9-1.6c0.1-0.8-0.6-1.9-1.5-1.7c-0.6,0.1-1,0.8-0.6,1.4
			C203.5,57.7,204,57.8,204.4,57.5"/>
		<path d="M220.5,48.9c1,1.4,1.4,3.2,0.9,5c-1.5,5.6-8.3,6.8-13.2,5.2c-1.6-0.5-1.8,1.8-0.3,2.3c5.3,1.7,12.6-1.4,14.2-7.3
			c0.6-2.2-0.1-4.4-1.5-6C220.7,48.3,220.6,48.6,220.5,48.9 M211.9,53.4c0,0,0.1,0,0.2,0c0.1,0,0.1,0,0.2,0c0.3,0,0.6-0.3,0.5-0.7
			c0-0.2-0.2-0.4-0.4-0.5h0c-3.1-1.3-4-5.9,1.6-6.3c1.8-0.1,3.5,0.3,4.8,1.2c0-0.3,0.1-0.5,0.1-0.8c-1.4-0.9-3.1-1.4-4.9-1.4
			C206.9,45.1,207.3,52,211.9,53.4"/>
		<path d="M167.6,60.7c-0.8-0.7-1.6-1.6-2.4-2.6c-5.7-7.2-1.3-16.9,5.3-18.7c2.3-0.6,4.9-0.3,6.5,1.7c2.2,2.8-1.2,5.1-2.6,3.4
			c-0.6-0.7,2.6-2.3,0.9-2.7c-1.6-0.4-2.5,0.6-2.4,2.2c0.1,1.3,1.2,2.6,3.1,2.4c2.5-0.2,4.1-3.8,1-6.4c0.9,0.6,1.8,1.4,2.1,2.6
			c0.8,3.4-2.5,6.6-5.6,5.3c-3.4-1.4-2.2-6.4-0.7-7.8c-4.3,1.2-9,4.5-9,9.5c0,0.4,0.3,0.6,0.6,0.6c0.4,0,0.6-0.3,0.6-0.6
			c0-3.7,2.3-6.9,6-8.1c-2.4,2.9-0.9,7,2,7.9c2.6,0.8,5.8-0.2,6.9-3.4c0.3-1,0.3-2.1,0-3.3c-1.8-6.6-13.9-6.4-17.4,3.9
			c-1.9,5.5,0.2,11,4.2,14.5C167,61,167.3,60.8,167.6,60.7 M209.2,43.1c-3.7-0.4-7.5,2.9-6.2,7.4c1.3,4.4,5.7,6.2,9.6,5.5
			c7.4-1.3,10.7-11.7,4.9-17.4c-3.9-3.8-11.2-4.2-15.7,0.7c-7.3,7.8-6.3,19.2-18.6,23.3c2.7-1,5-3.1,6.9-5.4
			c3.5-4.4,6.7-10.7,5.1-15.8c-1.1-3.4-5.9-4-7.5-0.6c-0.6,1.2-0.5,2.8,0.4,3.9c0.4,0.6,0.9,0.8,1.2,1.5c0.7,1.2,0.2,2.6-0.3,3.1
			c1.9-0.3,2.1-2,1.3-3.3c3.6,1.2,3.9-3.1,2-3.4c0.5,0.9,0,2.4-1.2,2.4c-1.4,0.1-2.1-0.7-2.5-1.9c-0.4-1.6,1-3.5,3.1-3.2
			c1.4,0.2,2,0.9,2.5,1.8c2,4.3-1.8,11.6-4.4,14.8c-4,4.9-10.5,7.7-16.8,6.4c-1.4-0.3-2.6-0.7-3.6-1.3c-0.3,0.1-0.6,0.3-0.9,0.4
			c1.4,0.9,2.9,1.5,4.5,1.9c3.2,0.7,7,0.5,11.3-1c12.7-4.2,11.4-17.5,19.1-23.5c4.4-3.4,10.5-2.4,13.8,0.9
			c5.1,5.1,0.5,14.4-5.3,14.4c-3.7,0.1-6.7-1-8-4.7c-0.6-1.6,1.3-1.5,2.4-2.8C207.5,45.7,206.7,44.2,209.2,43.1"/>
		<path d="M238.3,58.3c0.5,0.7,0.7,1.9,0,2.5c-0.5,0.4-0.5,0.9-0.2,1.5c-0.6-0.3-0.6-0.8-0.4-1.2c-1.6,0.4-2.1-1.5-1.1-2
			c0.7-0.4,1.2,0.1,1.2,0.5c0.1,0.5-0.4,1-1,0.6c0.2,0,0.7-0.2,0.6-0.5c0-0.1-0.3-0.4-0.6-0.2c-0.2,0.1-0.5,0.6-0.2,1
			c0.4,0.6,2,0.5,1.9-0.9c0-0.5-0.3-1.1-0.7-1.4c-1.1-0.9-3.7-1.8-5.1-1.3C233.6,55.8,237.3,56.8,238.3,58.3 M226.7,56
			c2.2-0.7,6.1-1.1,8.5-0.6c3.3,0.7,7.2,3.7,4.1,7.2c1.1,0.5,2.1,0.4,3.1-0.3c1.1-2.1,0.7-4.7-1.2-6.2c1.7,2.3,1.9,5.5-1.3,6.5
			c0.7-1.2,1.1-2.1,1-3.2c-0.2-2.4-2.9-3.8-5.1-4.4c-2.6-0.7-5.8-0.6-8.5,0.4c1.1-1,4.6-2,8.8-0.8c3.4,1,6.5,3,5,6.8
			c2.4-2.4,0.2-5.3-1.7-6.8c0.5,0.3,1.2,0.6,1.7,0.9c2.4,1.6,3.4,4.3,2.1,6.7c3.1,0.4,4.2-10.6-8.6-10.1c-4,0.2-8.8,3-12.8,5.4
			c-3,1.8-5.1,3.2-7.8,3.8c6.9-2.6,12.1-9.8,20.7-10.4c3-0.2,7.7,0.4,9.5,2.4c0.4,0.4,0.2,1.2-0.4,1c1.1,1,1.8,2.6,1.9,4.3
			c0.2,1.5,2.7,2.5,2.9,0.8c-1.1,1-3-0.4-2.7-2.2c0.1,1.5,2.1,3.8,2.9,0.9c0.1,0.8,0.3,1.5-0.2,2.2c-0.8,1-2.3,0.7-3-0.4
			c-0.2,1.9-1.2,3.5-3,3c-1.5,0.9-2.9,0.7-4.2,0c2.8-2.7,0.3-5.9-3.1-6.8c-1.4-0.3-3.1-0.4-4.5-0.1c0.1,0.7-0.5,0.9-1.1,0.9
			c-3-0.2-8,1.7-11.1,2.9C221.4,58.1,223.4,57,226.7,56"/>
		<path d="M29.6,58.3c-0.5,0.7-0.7,1.9,0,2.5c0.5,0.4,0.5,0.9,0.2,1.5c0.6-0.3,0.6-0.8,0.4-1.2c1.6,0.4,2.1-1.5,1.1-2
			c-0.7-0.4-1.2,0.1-1.3,0.5c-0.1,0.5,0.4,1,1,0.6c-0.2,0-0.7-0.2-0.6-0.5c0-0.1,0.3-0.4,0.6-0.2c0.2,0.1,0.5,0.6,0.2,1
			c-0.4,0.6-2,0.5-1.9-0.9c0-0.5,0.3-1.1,0.7-1.4c1.1-0.9,3.7-1.8,5.1-1.3C34.3,55.8,30.6,56.8,29.6,58.3 M41.2,56
			c-2.2-0.7-6.1-1.1-8.5-0.6c-3.3,0.7-7.2,3.7-4.1,7.2c-1.1,0.5-2.1,0.4-3.1-0.3c-1.1-2.1-0.7-4.7,1.2-6.2c-1.7,2.3-1.9,5.5,1.3,6.5
			c-0.7-1.2-1.1-2.1-1-3.2c0.2-2.4,2.9-3.8,5.1-4.4c2.6-0.7,5.8-0.6,8.5,0.4c-1.1-1-4.6-2-8.8-0.8c-3.4,1-6.5,3-5,6.8
			c-2.4-2.4-0.2-5.3,1.7-6.8c-0.5,0.3-1.2,0.6-1.7,0.9c-2.4,1.6-3.4,4.3-2.1,6.7c-3.1,0.4-4.2-10.6,8.6-10.1c4,0.2,8.8,3,12.8,5.4
			c3,1.8,5.1,3.2,7.8,3.8c-6.9-2.6-12.1-9.8-20.7-10.4c-3-0.2-7.7,0.4-9.5,2.4c-0.4,0.4-0.2,1.2,0.4,1c-1.1,1-1.8,2.6-1.9,4.3
			c-0.2,1.5-2.7,2.5-2.9,0.8c1.1,1,3-0.4,2.7-2.2c-0.1,1.5-2.1,3.8-2.9,0.9c-0.1,0.8-0.3,1.5,0.2,2.2c0.8,1,2.3,0.7,3-0.4
			c0.2,1.9,1.2,3.5,3,3c1.5,0.9,2.9,0.7,4.2,0c-2.8-2.7-0.3-5.9,3.1-6.8c1.4-0.3,3.1-0.4,4.5-0.1c-0.1,0.7,0.5,0.9,1.1,0.9
			c3-0.2,8,1.7,11.1,2.9C46.4,58.1,44.5,57,41.2,56"/>
		<path d="M136.3,136.4c1.5-1.2,4-1.9,6.4-1.6c1.5,0.2,1.4,2.2-0.5,1.7C140.7,136.2,138.5,136.1,136.3,136.4 M136.8,137.5
			c1.2,0.4,1.5,1.4,1,2.3c-0.6,1.1,0.9,1.5,1.3,0.7C139.9,138.8,138.5,137.4,136.8,137.5 M216.4,131.9c-0.6,0-1.1,0.5-1.1,1.1
			c0,0.6,0.5,1.1,1.1,1.1c0.6,0,1.1-0.5,1.1-1.1C217.5,132.4,217,131.9,216.4,131.9 M212.6,132.1c-0.5,0-0.9,0.4-0.9,0.9
			c0,0.5,0.4,0.9,0.9,0.9c0.5,0,0.9-0.4,0.9-0.9C213.5,132.5,213.1,132.1,212.6,132.1 M131.2,136.4c-1.5-1.2-4-1.9-6.4-1.6
			c-1.5,0.2-1.4,2.2,0.5,1.7C126.8,136.2,129,136.1,131.2,136.4 M130.7,137.5c-1.2,0.4-1.5,1.4-1,2.3c0.6,1.1-0.9,1.5-1.3,0.7
			C127.5,138.8,129,137.4,130.7,137.5 M51.5,131.9c0.6,0,1.2,0.5,1.2,1.1c0,0.6-0.5,1.1-1.2,1.1c-0.6,0-1.1-0.5-1.1-1.1
			C50.4,132.4,50.9,131.9,51.5,131.9 M55.2,132.1c0.5,0,0.9,0.4,0.9,0.9c0,0.5-0.4,0.9-0.9,0.9c-0.5,0-0.9-0.4-0.9-0.9
			C54.3,132.5,54.7,132.1,55.2,132.1 M133.7,135.8c0.7,0.6,1.5,1.4,1.9,2.6c0.7,1.9-0.5,3.1-1.9,3.2c-1.5,0-2.6-1.3-1.9-3.2
			C132.3,137.2,133,136.4,133.7,135.8 M208.4,132.6h-62.3c-6.1,0-9.2,0.3-12.4,2.2c-3.2-1.9-6.3-2.2-12.4-2.2H59.4
			c-0.1-0.2-0.3-0.4-0.6-0.4c-0.3,0-0.7,0.3-0.7,0.8c0,0.4,0.4,0.8,0.7,0.8c0.3,0,0.5-0.1,0.6-0.4h61.9c3.5,0,9.8,0.2,11.6,2
			c-0.8,0.9-1.3,1.7-1.8,2.7c-0.9,2.1-0.1,4.7,2.5,4.8c2.7-0.1,3.5-2.7,2.5-4.8c-0.4-0.9-1-1.8-1.8-2.7c1.9-1.8,8.2-2,11.6-2h62.3
			c0.1,0.2,0.3,0.4,0.6,0.4c0.3,0,0.8-0.3,0.8-0.8c0-0.4-0.4-0.8-0.8-0.8C208.7,132.3,208.6,132.4,208.4,132.6"/>
	</g>
</g>
<g id="text">
	<g>
		<polygon points="98.6,92.6 96.3,92.6 93.6,72.6 96.3,72.6 97.5,83 97.5,83.7 97.8,83.7 97.8,83 99.1,72.6 101.2,72.6 102.5,83 
			102.5,83.7 102.8,83.7 102.8,83 104,72.6 106.7,72.6 104,92.6 101.7,92.6 100.4,83.2 100.2,82 100.1,82 99.9,83.2 		"/>
		<polygon points="110.7,72.6 117.4,72.6 117.4,75.6 113.6,75.6 113.6,80.9 116.4,80.9 116.4,84.1 113.6,84.1 113.6,89.6 
			117.4,89.6 117.4,92.6 110.7,92.6 		"/>
		<g>
			<path d="M124.4,89.7c1,0,1.6-0.1,1.9-1.1c0.1-0.5,0.2-1.2,0.3-2.1c0-1,0-2.2,0-3.9c0-1.6,0-2.9,0-3.9c0-0.9-0.1-1.6-0.3-2.1
				c-0.3-1-0.9-1.1-1.9-1.1V89.7z M121.5,92.6v-20h2.3c2.7,0,4.2,0.5,5,2.1c0.8,1.5,0.9,4,0.9,7.9c0,3.9-0.1,6.4-0.9,7.9
				c-0.8,1.5-2.3,2.1-5,2.1H121.5z"/>
			<path d="M136.8,89.7c1,0,1.6-0.1,1.9-1.1c0.1-0.5,0.2-1.2,0.3-2.1c0-1,0-2.2,0-3.9c0-1.6,0-2.9,0-3.9c0-0.9-0.1-1.6-0.3-2.1
				c-0.3-1-0.9-1.1-1.9-1.1V89.7z M133.9,92.6v-20h2.3c2.7,0,4.2,0.5,5,2.1c0.8,1.5,0.9,4,0.9,7.9c0,3.9-0.1,6.4-0.9,7.9
				c-0.8,1.5-2.3,2.1-5,2.1H133.9z"/>
		</g>
		<rect x="146.3" y="72.6" width="2.9" height="20"/>
		<polygon points="156.7,82.2 156.5,81.3 156.3,81.3 156.3,92.6 153.6,92.6 153.6,72.6 156.2,72.6 159.1,83 159.3,84 159.5,84 
			159.5,72.6 162.2,72.6 162.2,92.6 159.6,92.6 		"/>
		<path d="M171.3,79.8v-3.1c0-0.5-0.1-0.9-0.4-1.3c-0.1-0.1-0.4-0.2-0.6-0.2c-0.5,0-0.8,0.4-0.9,0.7c-0.1,0.2-0.1,0.5-0.1,0.7v12
			c0,0.6,0.1,1,0.4,1.3c0.1,0.1,0.3,0.2,0.6,0.2c0.5,0,0.8-0.3,0.9-0.7c0.1-0.2,0.1-0.4,0.1-0.7v-3.6h-1.2v-2.5h4.1v10h-1.7l-0.4-1
			c-0.5,0.7-1.3,1.2-2.3,1.2c-1,0-1.6-0.2-2.1-0.7c-0.5-0.4-0.8-0.9-1-1.5c-0.2-0.6-0.4-1.4-0.3-2.2V76.7c0-0.8,0.2-1.5,0.5-2.1
			c0.2-0.5,0.6-1.1,1.1-1.5c0.5-0.4,1.3-0.7,2.3-0.7s1.7,0.3,2.3,0.7c0.5,0.4,0.9,1,1.2,1.5c0.3,0.6,0.5,1.4,0.5,2.1v3.1H171.3z"/>
	</g>
	<g>
		<path d="M27.2,113v7.5h-1.6c-0.2-0.8-0.5-1.4-0.8-1.9c-1.7,1.7-3.8,2.5-6.5,2.5c-3.1,0-5.5-1-7.4-3s-2.8-4.4-2.8-7.2
			c0-2.7,0.9-5.1,2.7-7.3s4.4-3.2,7.6-3.2c2.4,0,4.5,0.8,6.1,2.4c0.2-0.5,0.4-1.1,0.6-1.8h1.6l0.2,7.3h-1.6c-0.5-2-1.3-3.5-2.4-4.5
			s-2.4-1.5-3.9-1.5c-1.7,0-3,0.7-3.9,2s-1.3,3.5-1.3,6.3c0,2,0.2,3.6,0.5,4.8c0.3,1.2,0.9,2.1,1.9,2.7s1.9,1,3,1
			c1.4,0,2.7-0.5,3.9-1.5s1.9-2.5,2.4-4.6H27.2z"/>
		<path d="M30.6,110.7c0-1.8,0.5-3.5,1.5-5.2s2.3-3,4.1-3.8c1.7-0.8,3.5-1.2,5.5-1.2c3.5,0,6.2,1,8.2,3s3,4.5,3,7.4
			c0,2.8-1,5.2-3,7.2s-4.7,3-8.1,3c-2.3,0-4.4-0.5-6.2-1.5s-3.1-2.3-3.8-4C31,113.9,30.6,112.3,30.6,110.7z M36.7,110.5
			c0,3.1,0.4,5.3,1.2,6.6s2,2,3.7,2c1.7,0,3-0.6,3.8-1.9s1.3-3.4,1.3-6.5c0-2.8-0.4-4.9-1.2-6.3s-2.1-2.1-3.8-2.1
			c-1.7,0-2.9,0.6-3.7,1.9S36.7,107.7,36.7,110.5z"/>
		<path d="M55.6,110.7c0-1.8,0.5-3.5,1.5-5.2s2.3-3,4.1-3.8c1.7-0.8,3.5-1.2,5.5-1.2c3.5,0,6.2,1,8.2,3s3,4.5,3,7.4
			c0,2.8-1,5.2-3,7.2s-4.7,3-8.1,3c-2.3,0-4.4-0.5-6.2-1.5s-3.1-2.3-3.8-4C56,113.9,55.6,112.3,55.6,110.7z M61.7,110.5
			c0,3.1,0.4,5.3,1.2,6.6s2,2,3.7,2c1.7,0,3-0.6,3.8-1.9s1.3-3.4,1.3-6.5c0-2.8-0.4-4.9-1.2-6.3s-2.1-2.1-3.8-2.1
			c-1.7,0-2.9,0.6-3.7,1.9S61.7,107.7,61.7,110.5z"/>
		<path d="M87.8,111.9v4.7c0,0.9,0.2,1.5,0.5,1.9s1,0.5,1.9,0.5h0.4v1.6H79.8V119h0.4c1,0,1.6-0.2,1.9-0.5c0.3-0.4,0.4-1,0.4-1.9
			v-11.7c0-0.9-0.2-1.5-0.5-1.9c-0.3-0.4-1-0.5-1.9-0.5h-0.4v-1.6l8,0l1.8,0c1.8,0,3.1,0.1,3.9,0.2s1.6,0.4,2.4,0.8
			c0.8,0.4,1.4,1.1,1.9,1.8s0.7,1.6,0.7,2.5c0,2.4-1.3,4-4,4.8c0.7,0.4,1.8,1.9,3.3,4.2c1.2,1.8,2,2.9,2.5,3.3s1,0.6,1.6,0.6v1.6
			h-6.2c-0.6-0.7-1.6-2.4-3.1-5.1c-0.8-1.4-1.3-2.3-1.6-2.7s-0.6-0.7-1-0.8S88.9,111.9,87.8,111.9z M87.8,110.1
			c1.7,0,2.8-0.1,3.3-0.3c0.6-0.2,1-0.6,1.4-1.2c0.3-0.6,0.5-1.3,0.5-2.3c0-1.4-0.3-2.4-1-2.9s-1.8-0.8-3.4-0.8c-0.2,0-0.5,0-0.8,0
			V110.1z"/>
		<path d="M102.6,120.7V119c1,0,1.7-0.2,2.1-0.5c0.3-0.3,0.5-1,0.5-1.9v-11.8c0-0.9-0.2-1.6-0.5-1.9s-1-0.5-2.1-0.5v-1.6l2.4-0.1
			c2.4-0.1,4.3-0.1,5.7-0.1c2.3,0,4.1,0.1,5.6,0.4s2.8,0.8,4.1,1.7c1.3,0.9,2.3,2.1,2.9,3.5c0.7,1.4,1,3,1,4.7
			c0,1.7-0.4,3.3-1.1,4.7s-1.7,2.5-2.9,3.3s-2.5,1.3-3.8,1.5s-3.5,0.3-6.7,0.3H102.6z M110.4,102.3V116c0,0.9,0,1.5,0.1,1.8
			s0.3,0.6,0.7,0.8s0.9,0.3,1.6,0.3c1.8,0,3.2-0.7,4.1-2s1.4-3.4,1.4-6c0-2.2-0.3-3.9-1-5.2c-0.7-1.3-1.5-2.2-2.6-2.6
			S112.2,102.3,110.4,102.3z"/>
		<path d="M126.6,102.4v-1.6h10.5v1.6h-0.3c-1,0-1.6,0.2-1.9,0.5c-0.3,0.4-0.4,1-0.4,1.9v11.7c0,0.9,0.2,1.5,0.5,1.9
			s0.9,0.5,1.9,0.5h0.3v1.6h-10.5V119c1.1,0,1.8-0.2,2.1-0.5s0.5-1,0.5-1.9v-11.7c0-0.9-0.2-1.6-0.5-1.9
			C128.4,102.6,127.7,102.4,126.6,102.4z"/>
		<path d="M143.4,106.4v9.1c0,1.5,0.3,2.4,0.8,2.8s1.2,0.6,2,0.6v1.6h-7.5V119c0.6,0,1.2-0.2,1.7-0.5c0.5-0.3,0.8-0.7,0.9-1.1
			s0.2-1,0.2-1.9v-10.1c0-2-0.9-3-2.8-3v-1.6h6.7l10.9,12.2v-7.3c0-2.2-0.9-3.3-2.7-3.3v-1.6h7.1v1.6c-0.5,0-1,0.1-1.4,0.4
			s-0.7,0.6-0.9,1c-0.2,0.4-0.2,1-0.2,1.9V121h-1.9L143.4,106.4z"/>
		<path d="M165.2,115.3l-0.4,1c-0.3,0.7-0.4,1.2-0.4,1.5c0,0.5,0.2,0.8,0.5,1c0.3,0.2,0.8,0.3,1.6,0.3v1.6H160V119
			c1.2,0,2.3-1.1,3.1-3.2l6.1-15.4h1.7l6.2,15.4c0.6,1.5,1.2,2.4,1.7,2.7c0.5,0.3,1,0.5,1.4,0.5v1.6h-9.9V119c0.9,0,1.4-0.1,1.7-0.3
			c0.2-0.2,0.3-0.4,0.3-0.7c0-0.2-0.1-0.5-0.3-0.9l-0.2-0.5l-0.6-1.5H165.2z M165.9,113.6h4.8l-2.5-5.9L165.9,113.6z"/>
		<path d="M186.3,102.6h-1.7c-1,0-1.7,0.1-2.2,0.3s-0.9,0.6-1.2,1.3s-0.5,1.4-0.6,2.3h-1.7v-5.7h19.9v5.7h-1.7
			c-0.3-1.5-0.8-2.6-1.3-3.1c-0.6-0.5-1.5-0.8-2.7-0.8h-1.7v14c0,0.9,0.2,1.5,0.5,1.9s1,0.5,1.9,0.5h0.5v1.6h-11V119h0.5
			c1,0,1.6-0.2,1.9-0.5c0.3-0.4,0.4-1,0.4-1.9V102.6z"/>
		<path d="M200.6,102.4v-1.6h10.5v1.6h-0.3c-1,0-1.6,0.2-1.9,0.5c-0.3,0.4-0.4,1-0.4,1.9v11.7c0,0.9,0.2,1.5,0.5,1.9
			s0.9,0.5,1.9,0.5h0.3v1.6h-10.5V119c1.1,0,1.8-0.2,2.1-0.5s0.5-1,0.5-1.9v-11.7c0-0.9-0.2-1.6-0.5-1.9
			C202.4,102.6,201.7,102.4,200.6,102.4z"/>
		<path d="M213.4,110.7c0-1.8,0.5-3.5,1.5-5.2s2.3-3,4-3.8c1.7-0.8,3.5-1.2,5.5-1.2c3.5,0,6.2,1,8.2,3s3,4.5,3,7.4
			c0,2.8-1,5.2-3,7.2s-4.7,3-8.1,3c-2.3,0-4.4-0.5-6.2-1.5s-3.1-2.3-3.8-4C213.8,113.9,213.4,112.3,213.4,110.7z M219.5,110.5
			c0,3.1,0.4,5.3,1.2,6.6s2,2,3.7,2c1.7,0,3-0.6,3.8-1.9s1.3-3.4,1.3-6.5c0-2.8-0.4-4.9-1.2-6.3s-2.1-2.1-3.8-2.1
			c-1.7,0-2.9,0.6-3.7,1.9S219.5,107.7,219.5,110.5z"/>
		<path d="M242.4,106.4v9.1c0,1.5,0.3,2.4,0.8,2.8s1.2,0.6,2,0.6v1.6h-7.5V119c0.6,0,1.2-0.2,1.7-0.5c0.5-0.3,0.8-0.7,0.9-1.1
			s0.2-1,0.2-1.9v-10.1c0-2-0.9-3-2.8-3v-1.6h6.7l10.9,12.2v-7.3c0-2.2-0.9-3.3-2.7-3.3v-1.6h7.1v1.6c-0.5,0-1,0.1-1.4,0.4
			s-0.7,0.6-0.9,1c-0.2,0.4-0.2,1-0.2,1.9V121h-1.9L242.4,106.4z"/>
	</g>
</g>
</svg>
