<?xml version="1.0" encoding="utf-8"?>
<!-- Generator: Adobe Illustrator 13.0.0, SVG Export Plug-In . SVG Version: 6.00 Build 14948)  -->
<!DOCTYPE svg PUBLIC "-//W3C//DTD SVG 1.1//EN" "http://www.w3.org/Graphics/SVG/1.1/DTD/svg11.dtd">
<svg version="1.1" xmlns="http://www.w3.org/2000/svg" xmlns:xlink="http://www.w3.org/1999/xlink" x="0px" y="0px" width="314px"
	 height="177px" viewBox="0 0 314 177" style="enable-background:new 0 0 314 177;" xml:space="preserve">
<g id="Layer_1" style="display:none;">
	<g style="display:inline;">
		<defs>
			<rect id="SVGID_1_" x="42" y="27.8" width="230" height="121.4"/>
		</defs>
		<clipPath id="SVGID_2_">
			<use xlink:href="#SVGID_1_"  style="overflow:visible;"/>
		</clipPath>
		<path style="clip-path:url(#SVGID_2_);fill:#E8B745;" d="M109.1,68.3c-0.2-4.7,1.7-9.5,4.2-13c2.5-3.4,9.8-9.6,14.9-7.9
			c3.7,1.2,2.6,6.1-0.7,6.4c-0.7,0.1-1.5-0.1-2-0.5v0c-2.9-2.2,0.4-5.7,2.4-4l0,0c0.5,0.4,0.8,1.2,0.6,1.8c-0.4,1-2.1,1.1-2.2-0.2
			c-0.1-0.6,0.9,0.2,1.1-0.3c0.4-1.2-2-1.3-2.2,0.3c-0.1,0.9,0.6,1.7,1.4,1.9c2.7,0.8,4.3-3.6,1.5-4.6c-4.8-1.7-11.6,4.2-14,7.4
			C111.5,59.3,109.7,63.6,109.1,68.3"/>
		<path style="clip-path:url(#SVGID_2_);fill:#E8B745;" d="M123.4,88.5c0.8-0.7,1.6-1.6,2.4-2.6c5.7-7.2,1.3-16.9-5.3-18.7
			c-2.3-0.6-4.9-0.3-6.5,1.7c-2.2,2.8,1.2,5.1,2.6,3.4c0.6-0.7-2.6-2.3-0.9-2.7c1.6-0.4,2.5,0.6,2.4,2.2c-0.1,1.3-1.2,2.6-3.1,2.4
			c-2.5-0.2-4.1-3.8-1-6.4c-0.9,0.6-1.8,1.4-2.1,2.6c-0.8,3.4,2.5,6.6,5.6,5.3c3.4-1.4,2.2-6.4,0.7-7.8c4.3,1.2,9,4.5,9,9.5
			c0,0.4-0.3,0.6-0.6,0.6c-0.4,0-0.6-0.3-0.6-0.6c0-3.7-2.3-6.9-6-8.1c2.4,2.9,0.9,7-2,7.9c-2.6,0.8-5.8-0.2-6.9-3.4
			c-0.3-1-0.3-2.1,0-3.3c1.8-6.6,13.9-6.4,17.4,3.9c1.9,5.5-0.2,11-4.2,14.5C124,88.8,123.7,88.7,123.4,88.5 M81.8,71
			c3.7-0.4,7.5,2.9,6.2,7.4c-1.3,4.4-5.7,6.2-9.6,5.5c-7.4-1.3-10.7-11.7-4.9-17.4c3.9-3.8,11.2-4.2,15.7,0.7
			c7.3,7.8,6.3,19.2,18.6,23.3c-2.7-1-5-3.1-6.9-5.4c-3.5-4.4-6.7-10.7-5.1-15.8c1.1-3.4,5.9-4,7.5-0.6c0.6,1.2,0.5,2.8-0.4,3.9
			c-0.4,0.6-0.9,0.8-1.2,1.5c-0.7,1.2-0.2,2.6,0.3,3.1c-1.9-0.3-2.1-2-1.3-3.3c-3.6,1.2-3.9-3.1-2-3.4c-0.5,0.9,0,2.4,1.2,2.4
			c1.4,0.1,2.1-0.7,2.5-1.9c0.4-1.6-1-3.5-3.1-3.2c-1.4,0.2-2,0.9-2.5,1.8c-2,4.3,1.8,11.6,4.4,14.8c4,4.9,10.5,7.7,16.8,6.4
			c1.4-0.3,2.6-0.7,3.6-1.3c0.3,0.1,0.6,0.3,0.9,0.4c-1.4,0.9-2.9,1.5-4.5,1.9c-3.2,0.7-7,0.5-11.3-1C94,86.9,95.4,73.6,87.7,67.6
			c-4.4-3.4-10.5-2.4-13.8,0.9c-5.1,5.1-0.5,14.4,5.3,14.5c3.7,0.1,6.7-1,8-4.7c0.6-1.6-1.3-1.5-2.4-2.8C83.4,73.5,84.3,72,81.8,71"
			/>
		<path style="clip-path:url(#SVGID_2_);fill:#E8B745;" d="M126.5,79.2c0.4,0,0.7,0.3,0.7,0.7c0,0.4-0.3,0.7-0.7,0.7
			s-0.7-0.3-0.7-0.7C125.8,79.6,126.1,79.2,126.5,79.2"/>
		<path style="clip-path:url(#SVGID_2_);fill:#E8B745;" d="M125.8,81.7c0.3,0,0.6,0.3,0.6,0.6c0,0.3-0.3,0.6-0.6,0.6
			s-0.6-0.3-0.6-0.6C125.2,82,125.5,81.7,125.8,81.7"/>
		<path style="clip-path:url(#SVGID_2_);fill:#E8B745;" d="M124.8,83.9c0.3,0,0.5,0.2,0.5,0.5c0,0.3-0.2,0.5-0.5,0.5
			c-0.3,0-0.5-0.2-0.5-0.5C124.3,84.2,124.6,83.9,124.8,83.9"/>
		<path style="clip-path:url(#SVGID_2_);fill:#E8B745;" d="M132.8,71.6c-0.2,0.4-0.7,0.6-1.1,0.5c-0.4-0.2-0.6-0.6-0.5-1.1
			c0.2-0.4,0.6-0.6,1.1-0.5C132.8,70.7,133,71.2,132.8,71.6"/>
		<path style="clip-path:url(#SVGID_2_);fill:#E8B745;" d="M130.2,69.9c-0.1,0.4-0.6,0.6-0.9,0.4c-0.4-0.1-0.6-0.6-0.4-0.9
			c0.1-0.4,0.6-0.6,1-0.4C130.1,69.1,130.3,69.5,130.2,69.9"/>
		<path style="clip-path:url(#SVGID_2_);fill:#E8B745;" d="M128.2,67.6c-0.1,0.3-0.4,0.4-0.7,0.3c-0.3-0.1-0.4-0.4-0.3-0.7
			c0.1-0.3,0.4-0.4,0.7-0.3C128.2,67,128.3,67.3,128.2,67.6"/>
		<path style="clip-path:url(#SVGID_2_);fill:#E8B745;" d="M77.1,80.5c-0.1,0.3-0.5,0.4-0.8,0.3c-0.3-0.1-0.4-0.5-0.3-0.8
			c0.1-0.3,0.5-0.4,0.8-0.3C77.2,79.9,77.3,80.2,77.1,80.5"/>
		<path style="clip-path:url(#SVGID_2_);fill:#E8B745;" d="M75.4,79.2c-0.1,0.2-0.4,0.4-0.7,0.2c-0.3-0.1-0.4-0.4-0.2-0.7
			c0.1-0.3,0.4-0.4,0.7-0.2C75.4,78.6,75.5,78.9,75.4,79.2"/>
		<path style="clip-path:url(#SVGID_2_);fill:#E8B745;" d="M74.1,77.5c-0.1,0.2-0.3,0.3-0.5,0.2c-0.2-0.1-0.3-0.3-0.2-0.5
			c0.1-0.2,0.3-0.3,0.5-0.2C74.2,77.1,74.2,77.3,74.1,77.5"/>
		<path style="clip-path:url(#SVGID_2_);fill:#E8B745;" d="M70.4,76.7c-1,1.4-1.4,3.2-0.9,5c1.5,5.6,8.3,6.8,13.2,5.2
			c1.6-0.5,1.8,1.8,0.3,2.3c-5.3,1.7-12.6-1.4-14.2-7.3c-0.6-2.2,0.1-4.4,1.5-6C70.3,76.1,70.4,76.4,70.4,76.7 M79.1,81.2
			c0,0-0.1,0-0.2,0c-0.1,0-0.1,0-0.2,0c-0.3,0-0.6-0.3-0.5-0.7c0-0.2,0.2-0.4,0.4-0.5h0c3.1-1.3,4-5.9-1.6-6.3
			c-1.8-0.1-3.5,0.3-4.8,1.2c0-0.3-0.1-0.5-0.1-0.8c1.4-0.9,3.1-1.4,4.9-1.4C84,72.9,83.6,79.8,79.1,81.2"/>
		<path style="clip-path:url(#SVGID_2_);fill:#E8B745;" d="M107.2,91c-4.9-1.8-9.3-5.4-11.8-11.4c-0.6-1.5-2-0.5-1.6,0.5
			C96.8,86.2,101.6,89.9,107.2,91"/>
		<path style="clip-path:url(#SVGID_2_);fill:#E8B745;" d="M94.7,74.3c-0.8-2.8-0.4-7.2,0.3-10c0.6-2.5-2.1-2.6-2.2-0.7
			C92.5,66.9,92.8,70.7,94.7,74.3"/>
		<path style="clip-path:url(#SVGID_2_);fill:#E8B745;" d="M163.4,38.4c-2.6,0.6-5.8,3.2-6.4,6.8c-0.6-3.7-3.7-6.2-6.4-6.8
			c1.9-0.5,4.6-0.5,5.7,2.6c-0.1-2.5-3.1-3.7-1.5-7.4c0.8-1.9,1.7-2,2.2-5.8c0.5,3.9,1.4,3.9,2.2,5.8c1.5,3.7-1.5,4.9-1.5,7.4
			C158.8,37.9,161.5,37.9,163.4,38.4"/>
		<path style="clip-path:url(#SVGID_2_);fill:#E8B745;" d="M204.9,68.3c0.2-4.7-1.7-9.5-4.2-13c-2.5-3.4-9.8-9.6-14.9-7.9
			c-3.7,1.2-2.6,6.1,0.7,6.4c0.7,0.1,1.5-0.1,2-0.5v0c2.9-2.2-0.4-5.7-2.4-4v0c-0.5,0.4-0.8,1.2-0.6,1.8c0.4,1,2.1,1.1,2.2-0.2
			c0.1-0.6-0.9,0.2-1.1-0.3c-0.4-1.2,2-1.3,2.2,0.3c0.1,0.9-0.6,1.7-1.4,1.9c-2.7,0.8-4.3-3.6-1.5-4.6c4.8-1.7,11.6,4.2,14,7.4
			C202.6,59.3,204.4,63.6,204.9,68.3"/>
		<path style="clip-path:url(#SVGID_2_);fill:#E8B745;" d="M187.6,79.2c-0.4,0-0.7,0.3-0.7,0.7c0,0.4,0.3,0.7,0.7,0.7
			c0.4,0,0.7-0.3,0.7-0.7C188.3,79.6,188,79.2,187.6,79.2"/>
		<path style="clip-path:url(#SVGID_2_);fill:#E8B745;" d="M188.2,81.7c-0.3,0-0.6,0.3-0.6,0.6c0,0.3,0.3,0.6,0.6,0.6
			c0.3,0,0.6-0.3,0.6-0.6C188.8,82,188.6,81.7,188.2,81.7"/>
		<path style="clip-path:url(#SVGID_2_);fill:#E8B745;" d="M189.2,83.9c-0.3,0-0.5,0.2-0.5,0.5c0,0.3,0.2,0.5,0.5,0.5
			c0.3,0,0.5-0.2,0.5-0.5C189.7,84.2,189.5,83.9,189.2,83.9"/>
		<path style="clip-path:url(#SVGID_2_);fill:#E8B745;" d="M181.2,71.6c0.2,0.4,0.6,0.6,1.1,0.5c0.4-0.2,0.6-0.6,0.5-1.1
			c-0.2-0.4-0.7-0.6-1.1-0.5C181.3,70.7,181.1,71.2,181.2,71.6"/>
		<path style="clip-path:url(#SVGID_2_);fill:#E8B745;" d="M183.9,69.9c0.1,0.4,0.6,0.6,0.9,0.4c0.4-0.1,0.6-0.6,0.4-0.9
			c-0.1-0.4-0.6-0.6-0.9-0.4C183.9,69.1,183.7,69.5,183.9,69.9"/>
		<path style="clip-path:url(#SVGID_2_);fill:#E8B745;" d="M185.9,67.6c0.1,0.3,0.4,0.4,0.7,0.3c0.3-0.1,0.4-0.4,0.3-0.7
			c-0.1-0.3-0.4-0.4-0.7-0.3C185.9,67,185.8,67.3,185.9,67.6"/>
		<path style="clip-path:url(#SVGID_2_);fill:#E8B745;" d="M236.9,80.5c0.1,0.3,0.5,0.4,0.8,0.3c0.3-0.1,0.4-0.5,0.3-0.8
			c-0.1-0.3-0.5-0.4-0.8-0.3C236.9,79.9,236.8,80.2,236.9,80.5"/>
		<path style="clip-path:url(#SVGID_2_);fill:#E8B745;" d="M238.7,79.2c0.1,0.2,0.4,0.4,0.7,0.2c0.3-0.1,0.4-0.4,0.2-0.7
			c-0.1-0.3-0.4-0.4-0.7-0.2C238.6,78.6,238.5,78.9,238.7,79.2"/>
		<path style="clip-path:url(#SVGID_2_);fill:#E8B745;" d="M239.9,77.5c0.1,0.2,0.3,0.3,0.5,0.2c0.2-0.1,0.3-0.3,0.2-0.5
			c-0.1-0.2-0.3-0.3-0.5-0.2C239.9,77.1,239.8,77.3,239.9,77.5"/>
		<path style="clip-path:url(#SVGID_2_);fill:#E8B745;" d="M206.8,91c4.9-1.8,9.3-5.4,11.8-11.4c0.6-1.5,2-0.5,1.6,0.5
			C217.2,86.2,212.4,89.9,206.8,91"/>
		<path style="clip-path:url(#SVGID_2_);fill:#E8B745;" d="M219.3,74.3c0.8-2.8,0.4-7.2-0.3-10c-0.6-2.5,2.1-2.6,2.2-0.7
			C221.5,66.9,221.2,70.7,219.3,74.3"/>
		<path style="clip-path:url(#SVGID_2_);fill:#E8B745;" d="M156.8,47.2c-3.2-5.2-9.3-10.5-15.1-5.9c5.4-0.9,11.6,2.6,14.4,7.1
			L156.8,47.2z M156.7,79c-4.9-8.6-5.2-20.2,0.3-28.9c3.3-5.3,8.7-9.8,15.4-8.7c-6.7-5.1-12.9,2.1-16.1,7.5
			c-3.7,6.4-5,14.4-3.6,21.5c-2-6.9-1.9-14.4,1.7-20.3c0.4-0.6-0.2-1-0.6-0.5c-0.8,1.2-2.3,1.8-3.7,1.8c-4,0-4.1-4.4-2-5.5
			c2.4-1.3,3.8,1.6,2.4,3.5c-0.3,0.4,0.5,0.7,1.3,0.3c1.5-0.9,1.2-3.1,0.2-4.1c-2.9-2.6-8.1,0.5-5.9,4.8c1.1,2.2,4.2,2.8,6.3,1.6
			c-4.1,9-1.6,19.9,3.7,28L156.7,79z M157.8,80.4c5.5-8.2,8.1-19.2,3.9-28.3c2.1,1.2,5.2,0.6,6.3-1.6c2.2-4.3-3.1-7.5-5.9-4.8
			c-1.1,1-1.3,3.2,0.2,4.1c0.8,0.5,1.6,0.1,1.3-0.3c-1.5-1.9,0-4.8,2.4-3.5c2.1,1.1,2,5.5-2,5.5c-1.4,0-2.9-0.6-3.7-1.8
			c-0.4-0.6-1-0.2-0.6,0.5c3.6,5.9,3.7,13.4,1.7,20.3c1.4-7,0.2-14.8-3.3-21.1l-0.7,1.2c5.3,8.9,5,20.6-0.3,29
			c-6.1,9.8-15.4,14-27,11.9c5.9,0.6,12-0.5,16.7-3.5c3-1.9,5.4-4.6,5.8-6.2c0.5-2.7-1.8-3.8-3.2-3.4c-1,0.3-1.3,1-1.1,2.1
			c0.8-0.6,1.6-0.4,2.1,0.4c1.2,1.6-0.9,4.5-4,6.5c-5.4,3.5-12.1,4.4-18.7,3.1c-4.1-0.8-7.2-2.2-10.6-4.9
			c-8.7-6.9-11.7-17.8-6.1-28.8c6.1-12.2,21.9-15.1,30.1-6.5c3.1,3.3,4.9,8.2,3.7,12.4c-1.3,4.9-6.9,7.9-11.6,5.3
			c-5-2.7-5.3-8.6-1.9-11.9c4-3.9,9.8-1.3,9.6,3.2c-0.2,3.9-5.5,6.1-6.8,3c-0.7-1.7,1.3-1.9,2.3-1.4c0.8,0.4,0.9-0.8,0.4-1.7
			c-0.6-1-1.9-1.1-2.9-0.4c-2.2,1.6-1.1,5.5,2.2,5.7c4.4,0.2,7.6-5.5,4.2-9.4c-3.7-4.2-12.2-2.1-13,5.2c-0.5,4.5,3.7,10,8.7,9.9
			c-4.5,3.2-3.8,9.8,0.8,11.3c4.9,1.7,9-2.8,7.2-6.6c-2.1-4.1-6.9-2.6-5.1,0.9c0.3,0.6,1.5,1.2,1.3,0.2c-0.4-2.4,4.4-1.9,3.3,2.1
			c-0.9,3.4-5.4,4.3-7.9,1.7c-2-2.1-2.1-5.3-0.4-7.6c2.2-3,4.4-1.2,8.2-4.8c5.1-4.9,3.2-13.1-1.4-17.9c-7.5-8-21.7-6.7-29.2,2.9
			c2.8-5.3,0.2-8.5-3-7.2c1.4,0.5,1.8,2.5,1.7,3.8c-0.2,4.5-2.7,9.1-3.7,14.3c-1,5.5,0.1,10.8,2.4,15.4c-3.6-6-3.5-13.2-3.4-19.9
			c0-4.2-2.5-6.3-5.5-6.3c-5.4,0.1-5.4,7.7-0.9,7.3c3.9-0.3,2.9-4.9,0.8-4c1,0.3,1.1,1.8,0.7,2.2c-1.4,1.7-4,0.7-3.6-1.9
			c0.4-3.2,7.4-3.1,7.5,3c0.1,11.3,1.3,20.2,11,27.5c2.4,1.8,7.5,4.1,10.4,5c8.7,2.6,18,1.3,24.9-4.1c2.6-1.9,4.6,0.7,3.3,2
			c-0.7,0.7-1.9,0.4-1.8-0.5c0.3,0.3,0.7,0.2,0.8-0.1c0.5-0.9-1.5-1.1-1.2,0.4c0.5,2.2,3.9,1.2,3.3-1.1c-0.3-1.1-1.6-2.1-3.2-1.7
			C154.7,84.6,156.4,82.5,157.8,80.4 M179,71.9c1.7,2.3,1.5,5.5-0.4,7.6c-2.5,2.6-7,1.7-7.9-1.7c-1.1-4,3.8-4.5,3.3-2.1
			c-0.2,1,0.9,0.4,1.3-0.2c1.8-3.4-3.1-5-5.1-0.9c-1.9,3.8,2.2,8.3,7.2,6.6c4.6-1.6,5.3-8.2,0.8-11.3c5,0.1,9.2-5.3,8.7-9.9
			c-0.8-7.3-9.3-9.4-13-5.2c-3.5,3.9-0.2,9.7,4.2,9.4c3.4-0.2,4.4-4.1,2.2-5.7c-0.9-0.7-2.3-0.5-2.9,0.4c-0.6,0.9-0.4,2.1,0.4,1.7
			c1-0.5,3-0.3,2.3,1.4c-1.2,3.1-6.6,0.9-6.8-3c-0.2-4.5,5.6-7.1,9.6-3.2c3.4,3.3,3.1,9.2-1.9,11.9c-4.8,2.6-10.3-0.4-11.6-5.3
			c-1.2-4.3,0.6-9.1,3.7-12.4c8.2-8.6,24-5.7,30.1,6.5c5.5,11.1,2.5,21.9-6.2,28.8c-3.4,2.7-6.5,4.1-10.6,4.9
			c-6.6,1.3-13.3,0.4-18.7-3.1c-3.1-2-5.2-4.9-4-6.5c0.5-0.7,1.3-0.9,2.1-0.4c0.2-1-0.1-1.8-1.1-2.1c-1.4-0.4-3.7,0.7-3.2,3.4
			c0.3,1.5,2.8,4.3,5.8,6.2c4.7,3,10.8,4.1,16.7,3.5c-10.1,1.9-20.3-1.6-25.9-10.4l-0.7,1c1.1,1.7,2.4,3,3.8,4.3
			c-1.6-0.4-2.9,0.5-3.2,1.7c-0.6,2.4,2.8,3.3,3.3,1.1c0.3-1.5-1.7-1.3-1.2-0.4c0.1,0.2,0.5,0.4,0.8,0.1c0.1,0.9-1.1,1.2-1.8,0.5
			c-1.3-1.3,0.7-4,3.3-2c6.8,5.4,16.2,6.7,24.9,4.1c3-0.9,8.1-3.2,10.4-5c9.7-7.3,10.9-16.2,11-27.5c0.1-6.1,7-6.2,7.5-3
			c0.3,2.6-2.2,3.6-3.6,1.9c-0.4-0.5-0.3-2,0.7-2.2c-2.1-0.9-3.1,3.6,0.8,4c4.4,0.4,4.5-7.2-0.9-7.3c-3.1,0-5.6,2.1-5.5,6.3
			c0.1,6.7,0.2,13.9-3.4,19.9c2.3-4.6,3.4-9.9,2.4-15.4c-0.9-5.1-3.5-9.8-3.7-14.3c0-1.4,0.4-3.3,1.7-3.8c-3.3-1.3-5.9,1.9-3,7.2
			c-7.5-9.6-21.7-10.9-29.2-2.9c-4.6,4.8-6.5,13-1.4,17.9C174.6,70.7,176.8,68.9,179,71.9"/>
		<path style="clip-path:url(#SVGID_2_);fill:#E8B745;" d="M157,63.6c4,0,7.5,0.3,10.7,0.7c-3.2,0.4-6.6,0.7-10.7,0.7
			c-4.1,0-7.5-0.3-10.7-0.7C149.6,63.9,153,63.6,157,63.6"/>
		<path style="clip-path:url(#SVGID_2_);fill:#E8B745;" d="M86.6,85.4c0,1,1.5,1.3,2.3,0.6c0.4-0.3,0.6-0.7,0.7-1.1
			c0.2-0.9-0.4-1.9-1.2-2.3c-1.2-0.7-2.6-0.4-3.8,0.3l-0.1,0.1l-0.4-0.8l0.1-0.1c1-0.6,2.2-0.9,3.4-0.7c1,0.2,1.9,0.7,2.4,1.5
			c0.3,0.4,0.4,0.9,0.5,1.4c0.1,1.3-0.6,2.2-1.4,2.6c-0.4,0.8-0.2,1.4,0.6,1.7c-0.9,0.2-1.5-0.6-1.1-1.5v0c-1.3,0.4-2.8-0.1-2.9-1.6
			c-0.1-0.8,0.6-1.9,1.5-1.7c0.6,0.1,1,0.8,0.6,1.4C87.4,85.5,86.9,85.6,86.6,85.4"/>
		<path style="clip-path:url(#SVGID_2_);fill:#E8B745;" d="M227.5,85.4c0,1-1.5,1.3-2.3,0.6c-0.4-0.3-0.6-0.7-0.7-1.1
			c-0.2-0.9,0.4-1.9,1.2-2.3c1.2-0.7,2.6-0.4,3.8,0.3l0.1,0.1l0.4-0.8l-0.1-0.1c-1-0.6-2.2-0.9-3.4-0.7c-1,0.2-1.9,0.7-2.4,1.5
			c-0.3,0.4-0.4,0.9-0.5,1.4c-0.1,1.3,0.6,2.2,1.4,2.6c0.4,0.8,0.2,1.4-0.6,1.7c0.9,0.2,1.5-0.6,1.1-1.5l0,0
			c1.3,0.4,2.8-0.1,2.9-1.6c0.1-0.8-0.6-1.9-1.5-1.7c-0.6,0.1-1,0.8-0.6,1.4C226.6,85.5,227.1,85.6,227.5,85.4"/>
		<path style="clip-path:url(#SVGID_2_);fill:#E8B745;" d="M243.6,76.7c1,1.4,1.4,3.2,0.9,5c-1.5,5.6-8.3,6.8-13.2,5.2
			c-1.6-0.5-1.8,1.8-0.3,2.3c5.3,1.7,12.6-1.4,14.2-7.3c0.6-2.2-0.1-4.4-1.5-6C243.7,76.1,243.7,76.4,243.6,76.7 M235,81.2
			c0,0,0.1,0,0.2,0s0.1,0,0.2,0c0.3,0,0.6-0.3,0.5-0.7c0-0.2-0.2-0.4-0.4-0.5h0c-3.1-1.3-4-5.9,1.6-6.3c1.8-0.1,3.5,0.3,4.8,1.2
			c0-0.3,0.1-0.5,0.1-0.8c-1.4-0.9-3.1-1.4-4.9-1.4C230,72.9,230.4,79.8,235,81.2"/>
		<path style="clip-path:url(#SVGID_2_);fill:#E8B745;" d="M190.7,88.5c-0.8-0.7-1.6-1.6-2.4-2.6c-5.7-7.2-1.3-16.9,5.3-18.7
			c2.3-0.6,4.9-0.3,6.5,1.7c2.2,2.8-1.2,5.1-2.6,3.4c-0.6-0.7,2.6-2.3,0.9-2.7c-1.6-0.4-2.5,0.6-2.4,2.2c0.1,1.3,1.2,2.6,3.1,2.4
			c2.5-0.2,4.1-3.8,1-6.4c0.9,0.6,1.8,1.4,2.1,2.6c0.8,3.4-2.5,6.6-5.6,5.3c-3.4-1.4-2.2-6.4-0.7-7.8c-4.3,1.2-9,4.5-9,9.5
			c0,0.4,0.3,0.6,0.6,0.6c0.4,0,0.6-0.3,0.6-0.6c0-3.7,2.3-6.9,6-8.1c-2.4,2.9-0.9,7,2,7.9c2.6,0.8,5.8-0.2,6.9-3.4
			c0.3-1,0.3-2.1,0-3.3c-1.8-6.6-13.9-6.4-17.4,3.9c-1.9,5.5,0.2,11,4.2,14.5C190.1,88.8,190.4,88.7,190.7,88.5 M232.3,71
			c-3.7-0.4-7.5,2.9-6.2,7.4c1.3,4.4,5.7,6.2,9.6,5.5c7.4-1.3,10.7-11.7,4.9-17.4c-3.9-3.8-11.2-4.2-15.7,0.7
			c-7.3,7.8-6.3,19.2-18.6,23.3c2.7-1,5-3.1,6.9-5.4c3.5-4.4,6.7-10.7,5.1-15.8c-1.1-3.4-5.9-4-7.5-0.6c-0.6,1.2-0.5,2.8,0.4,3.9
			c0.4,0.6,0.9,0.8,1.2,1.5c0.7,1.2,0.2,2.6-0.3,3.1c1.9-0.3,2.1-2,1.3-3.3c3.6,1.2,3.9-3.1,2-3.4c0.5,0.9,0,2.4-1.2,2.4
			c-1.4,0.1-2.1-0.7-2.5-1.9c-0.4-1.6,1-3.5,3.1-3.2c1.4,0.2,2,0.9,2.5,1.8c2,4.3-1.8,11.6-4.4,14.8c-4,4.9-10.5,7.7-16.8,6.4
			c-1.4-0.3-2.6-0.7-3.6-1.3c-0.3,0.1-0.6,0.3-0.9,0.4c1.4,0.9,2.9,1.5,4.5,1.9c3.2,0.7,7,0.5,11.3-1c12.7-4.2,11.4-17.5,19.1-23.5
			c4.4-3.4,10.5-2.4,13.8,0.9c5.1,5.1,0.5,14.4-5.3,14.5c-3.7,0.1-6.7-1-8-4.7c-0.6-1.6,1.3-1.5,2.4-2.8
			C230.6,73.5,229.8,72,232.3,71"/>
		<path style="clip-path:url(#SVGID_2_);fill:#E8B745;" d="M261.4,86.1c0.5,0.7,0.7,1.9,0,2.5c-0.5,0.4-0.5,0.9-0.2,1.5
			c-0.6-0.3-0.6-0.8-0.4-1.2c-1.6,0.4-2.1-1.5-1.1-2c0.7-0.4,1.2,0.1,1.2,0.5c0.1,0.5-0.4,1-1,0.6c0.2,0,0.7-0.2,0.6-0.5
			c0-0.1-0.3-0.4-0.6-0.2c-0.2,0.1-0.5,0.6-0.2,1c0.4,0.6,2,0.5,1.9-0.9c0-0.5-0.3-1.1-0.7-1.4c-1.1-0.9-3.7-1.8-5.1-1.3
			C256.7,83.6,260.3,84.6,261.4,86.1 M249.7,83.8c2.2-0.7,6.1-1.1,8.5-0.6c3.3,0.7,7.2,3.7,4.1,7.2c1.1,0.5,2.1,0.4,3.1-0.3
			c1.1-2.1,0.7-4.7-1.2-6.2c1.7,2.3,1.9,5.5-1.3,6.5c0.7-1.2,1.1-2.1,1-3.2c-0.2-2.4-2.9-3.8-5.1-4.4c-2.6-0.7-5.8-0.6-8.5,0.4
			c1.1-1,4.6-2,8.8-0.8c3.4,1,6.5,3,5,6.8c2.4-2.4,0.2-5.3-1.7-6.8c0.5,0.3,1.2,0.6,1.7,0.9c2.4,1.6,3.4,4.3,2.1,6.7
			c3.1,0.4,4.2-10.6-8.6-10.1c-4,0.2-8.8,3-12.8,5.4c-3,1.8-5.1,3.2-7.8,3.8c6.9-2.6,12.1-9.8,20.7-10.4c3-0.2,7.7,0.4,9.5,2.4
			c0.4,0.4,0.2,1.2-0.4,1c1.1,1,1.8,2.6,1.9,4.3c0.2,1.5,2.7,2.5,2.9,0.8c-1.1,1-3-0.4-2.7-2.2c0.1,1.5,2.1,3.8,2.9,0.9
			c0.1,0.8,0.3,1.5-0.2,2.2c-0.8,1-2.3,0.7-3-0.4c-0.2,1.9-1.2,3.5-3,3c-1.5,0.9-2.9,0.7-4.2,0c2.8-2.7,0.3-5.9-3.1-6.8
			c-1.3-0.3-3.1-0.4-4.5-0.1c0.1,0.7-0.5,0.9-1.1,0.9c-3-0.2-8,1.7-11.1,2.9C244.5,85.9,246.4,84.8,249.7,83.8"/>
		<path style="clip-path:url(#SVGID_2_);fill:#E8B745;" d="M52.6,86.1c-0.5,0.7-0.7,1.9,0,2.5c0.5,0.4,0.5,0.9,0.2,1.5
			c0.6-0.3,0.6-0.8,0.4-1.2c1.6,0.4,2.1-1.5,1.1-2c-0.7-0.4-1.2,0.1-1.3,0.5c-0.1,0.5,0.4,1,1,0.6c-0.2,0-0.7-0.2-0.6-0.5
			c0-0.1,0.3-0.4,0.6-0.2c0.2,0.1,0.5,0.6,0.2,1c-0.4,0.6-2,0.5-1.9-0.9c0-0.5,0.3-1.1,0.7-1.4c1.1-0.9,3.7-1.8,5.1-1.3
			C57.3,83.6,53.7,84.6,52.6,86.1 M64.3,83.8c-2.2-0.7-6.1-1.1-8.5-0.6c-3.3,0.7-7.2,3.7-4.1,7.2c-1.1,0.5-2.1,0.4-3.1-0.3
			c-1.1-2.1-0.7-4.7,1.2-6.2c-1.7,2.3-1.9,5.5,1.3,6.5c-0.7-1.2-1.1-2.1-1-3.2c0.2-2.4,2.9-3.8,5.1-4.4c2.6-0.7,5.8-0.6,8.5,0.4
			c-1.1-1-4.6-2-8.8-0.8c-3.4,1-6.5,3-5,6.8c-2.4-2.4-0.2-5.3,1.7-6.8c-0.5,0.3-1.2,0.6-1.7,0.9c-2.4,1.6-3.4,4.3-2.1,6.7
			c-3.1,0.4-4.2-10.6,8.6-10.1c4,0.2,8.8,3,12.8,5.4c3,1.8,5.1,3.2,7.8,3.8c-6.9-2.6-12.1-9.8-20.7-10.4c-3-0.2-7.7,0.4-9.5,2.4
			c-0.4,0.4-0.2,1.2,0.4,1c-1.1,1-1.8,2.6-1.9,4.3c-0.2,1.5-2.7,2.5-2.9,0.8c1.1,1,3-0.4,2.7-2.2c-0.1,1.5-2.1,3.8-2.9,0.9
			c-0.1,0.8-0.3,1.5,0.2,2.2c0.8,1,2.3,0.7,3-0.4c0.2,1.9,1.2,3.5,3,3c1.5,0.9,2.9,0.7,4.2,0c-2.8-2.7-0.3-5.9,3.1-6.8
			c1.4-0.3,3.1-0.4,4.5-0.1c-0.1,0.7,0.5,0.9,1.1,0.9c3-0.2,8,1.7,11.1,2.9C69.5,85.9,67.6,84.8,64.3,83.8"/>
		<path style="clip-path:url(#SVGID_2_);fill:#E8B745;" d="M159.4,142.7c1.5-1.2,4-1.9,6.4-1.6c1.5,0.2,1.4,2.2-0.5,1.7
			C163.7,142.5,161.6,142.3,159.4,142.7 M159.8,143.8c1.2,0.4,1.5,1.4,1,2.3c-0.6,1.1,0.9,1.5,1.3,0.7
			C163,145,161.6,143.7,159.8,143.8 M239.4,138.1c-0.6,0-1.1,0.5-1.1,1.2c0,0.6,0.5,1.1,1.1,1.1c0.6,0,1.2-0.5,1.2-1.1
			C240.6,138.7,240.1,138.1,239.4,138.1 M235.7,138.4c-0.5,0-0.9,0.4-0.9,0.9c0,0.5,0.4,0.9,0.9,0.9c0.5,0,0.9-0.4,0.9-0.9
			C236.6,138.8,236.2,138.4,235.7,138.4 M154.2,142.7c-1.5-1.2-4-1.9-6.4-1.6c-1.5,0.2-1.4,2.2,0.5,1.7
			C149.9,142.5,152,142.3,154.2,142.7 M153.8,143.8c-1.2,0.4-1.5,1.4-1,2.3c0.6,1.1-0.9,1.5-1.3,0.7
			C150.6,145,152.1,143.7,153.8,143.8 M74.6,138.1c0.6,0,1.2,0.5,1.2,1.2c0,0.6-0.5,1.1-1.2,1.1c-0.6,0-1.1-0.5-1.1-1.1
			C73.4,138.7,73.9,138.1,74.6,138.1 M78.3,138.4c0.5,0,0.9,0.4,0.9,0.9c0,0.5-0.4,0.9-0.9,0.9c-0.5,0-0.9-0.4-0.9-0.9
			C77.4,138.8,77.8,138.4,78.3,138.4 M156.8,142c0.7,0.6,1.5,1.4,1.9,2.6c0.7,1.9-0.5,3.1-1.9,3.2c-1.5,0-2.6-1.3-1.9-3.2
			C155.3,143.5,156.1,142.7,156.8,142 M231.5,138.9h-62.3c-6.1,0-9.2,0.3-12.4,2.2c-3.2-1.9-6.3-2.2-12.4-2.2H82.5
			c-0.1-0.2-0.3-0.4-0.6-0.4c-0.3,0-0.7,0.3-0.7,0.8c0,0.4,0.4,0.8,0.7,0.8c0.3,0,0.5-0.1,0.6-0.4h61.9c3.5,0,9.8,0.2,11.6,2
			c-0.8,0.9-1.3,1.7-1.8,2.7c-0.9,2.1-0.1,4.7,2.5,4.8c2.7-0.1,3.5-2.7,2.5-4.8c-0.4-0.9-1-1.8-1.8-2.7c1.9-1.8,8.2-2,11.6-2h62.3
			c0.1,0.2,0.3,0.4,0.6,0.4c0.3,0,0.8-0.3,0.8-0.8c0-0.4-0.4-0.8-0.8-0.8C231.8,138.5,231.6,138.7,231.5,138.9"/>
		<path style="clip-path:url(#SVGID_2_);fill:#FFFFFF;" d="M241,120.3c0.1,1.1,0.1,2.2,0.1,3.3c0,1.3,0,2.6-0.1,3.8h1.6l0.4-1.7
			c1.4,1.2,2.8,2.3,5.9,2.3c2.8,0,8.5-1.2,8.5-7.3c0-4.4-3.6-6.2-6.1-7.3L248,112c-1.9-0.9-2.5-1.9-2.5-3.2c0-1,0.7-3.1,3.4-3.1
			c3.8,0,5.1,3,5.7,5.1h1.6c-0.2-2.1-0.3-4.2-0.2-6.4h-1.6l-0.5,1.5c-1.3-1.4-3.4-1.9-5.1-1.9c-4.8,0-7.4,3-7.4,6.5
			c0,3.7,1.7,5.4,5.5,7.1l2.2,1c2.7,1.2,3.6,2,3.6,4c0,1.8-1.3,3.7-4.2,3.7c-4.1,0-5.3-3.7-6-6.2H241z M213.6,119.9
			c0,6.7,5.2,8.2,10.4,8.2c8,0,9.4-5.4,9.4-10v-8.4c0-2.3,0.4-3.8,3.3-3.8v-1.3c-1.5,0.1-2.9,0.1-4.2,0.1s-2.7,0-4.1-0.1v1.3
			c2.8,0,3.2,1.5,3.2,3.8v8.3c0,4.3-0.9,7.8-6.4,7.8c-1.8,0-6.2-0.3-6.2-5.5v-11.7c0-2.1,0.7-2.7,3.2-2.7v-1.3
			c-2,0.1-3.9,0.1-5.9,0.1c-2,0-3.9,0-6-0.1v1.3c2.5,0,3.2,0.6,3.2,2.7V119.9z M177.4,127.6c2.2-0.1,4.1-0.1,6.2-0.1s4,0,6.2,0.1
			v-1.3c-2.7,0-3.4-0.6-3.4-2.7v-16.3c0-0.7,0.3-0.9,1.7-0.9c2.9,0,5.3,1.1,5.6,4.8h1.4l-0.2-6.5c-3.7,0.1-7.4,0.1-11.2,0.1
			c-3.8,0-7.5,0-11.2-0.1l-0.2,6.5h1.4c0.3-3.6,2.7-4.8,5.6-4.8c1.4,0,1.7,0.2,1.7,0.9v16.3c0,2.1-0.7,2.7-3.4,2.7V127.6z
			 M145.1,119.9c0,6.7,5.2,8.2,10.4,8.2c8,0,9.4-5.4,9.4-10v-8.4c0-2.3,0.4-3.8,3.3-3.8v-1.3c-1.5,0.1-2.9,0.1-4.2,0.1
			s-2.7,0-4.1-0.1v1.3c2.8,0,3.2,1.5,3.2,3.8v8.3c0,4.3-0.9,7.8-6.4,7.8c-1.8,0-6.2-0.3-6.2-5.5v-11.7c0-2.1,0.7-2.7,3.2-2.7v-1.3
			c-2,0.1-3.9,0.1-5.9,0.1c-2,0-3.9,0-6-0.1v1.3c2.5,0,3.2,0.6,3.2,2.7V119.9z M111.6,116.4c0,6.4,5.5,11.7,13,11.7
			c7.5,0,13-5.3,13-11.7c0-6.2-4.5-12.3-13-12.3C116.1,104.1,111.6,110.2,111.6,116.4 M117.7,116.1c0-3.9,1.2-10.4,6.9-10.4
			c5.7,0,6.9,6.5,6.9,10.4c0,5-1.3,10.3-6.9,10.3C119,126.5,117.7,121.1,117.7,116.1 M93.7,107.3c0-0.7,0.3-1.1,1.4-1.1
			c3,0,4.2,1.3,4.2,4.2c0,3.5-1.6,4.3-4.8,4.3h-0.7V107.3z M93.7,116.3h1.6c3.3,0,5.1,1.4,5.1,5c0,2.4-1,4.6-3.8,4.6
			c-2.1,0-2.9-1-2.9-3.2V116.3z M85.2,127.6c1.9-0.1,3.8-0.1,5.6-0.1c1.9,0,4.2,0.1,6.6,0.1c3.7,0,9-1.3,9-6.1
			c0-4.8-4.9-5.7-7.7-6.2v-0.1c1.9-0.2,6.2-1.2,6.2-5.1c0-4.4-4.7-5.5-9.4-5.5c-2,0-3,0.1-4.6,0.1c-1.9,0-3.8,0-5.6-0.1v1.3
			c2.5,0,3.2,0.6,3.2,2.7v15c0,2.1-0.7,2.7-3.2,2.7V127.6z M70.1,118.9h-6.5l3.3-8.1L70.1,118.9z M56.2,127.6
			c0.6-0.1,2.1-0.1,4.1-0.1s3.5,0,4.1,0.1v-1.3c-1.8,0-2.9-0.3-2.9-1.8c0-0.4,0.2-1.2,0.3-1.6l0.9-2.4h7.8l1.1,2.9
			c0.2,0.6,0.4,1.2,0.4,1.5c0,1.1-1.1,1.4-3,1.4v1.3c1-0.1,3.3-0.1,5.9-0.1c2,0,4.3,0,5.9,0.1v-1.3c-1.9-0.1-2.8-0.7-3.5-2.6
			l-7.8-19.6h-1.7l-8.1,19.4c-1,2.3-2.2,2.8-3.6,2.8V127.6z"/>
	</g>
</g>
<g id="Layer_2">
	<g>
		<defs>
			<rect id="SVGID_3_" x="7.8" y="28.1" width="297.6" height="121.4"/>
		</defs>
		<clipPath id="SVGID_4_">
			<use xlink:href="#SVGID_3_"  style="overflow:visible;"/>
		</clipPath>
		<path style="clip-path:url(#SVGID_4_);fill:#85508E;" d="M108.9,68.5c-0.2-4.7,1.7-9.5,4.2-13c2.5-3.4,9.8-9.6,14.9-7.9
			c3.7,1.2,2.6,6.1-0.7,6.4c-0.7,0.1-1.5-0.1-2-0.5v0c-2.9-2.2,0.4-5.7,2.4-4l0,0c0.5,0.4,0.8,1.2,0.6,1.8c-0.4,1-2.1,1.1-2.2-0.2
			c-0.1-0.6,0.9,0.2,1.1-0.3c0.4-1.2-2-1.3-2.2,0.3c-0.1,0.9,0.6,1.7,1.4,1.9c2.7,0.8,4.3-3.6,1.5-4.6c-4.8-1.7-11.6,4.2-14,7.4
			C111.2,59.5,109.4,63.9,108.9,68.5"/>
		<path style="clip-path:url(#SVGID_4_);fill:#85508E;" d="M123.1,88.8c0.8-0.7,1.6-1.6,2.4-2.6c5.7-7.2,1.3-16.9-5.3-18.7
			c-2.3-0.6-4.9-0.3-6.5,1.7c-2.2,2.8,1.2,5.1,2.6,3.4c0.6-0.7-2.6-2.3-0.9-2.7c1.6-0.4,2.5,0.6,2.4,2.2c-0.1,1.3-1.2,2.6-3.1,2.4
			c-2.5-0.2-4.1-3.8-1-6.4c-0.9,0.6-1.8,1.4-2.1,2.6c-0.8,3.4,2.5,6.6,5.6,5.3c3.4-1.4,2.2-6.4,0.7-7.8c4.3,1.2,9,4.5,9,9.5
			c0,0.4-0.3,0.6-0.6,0.6c-0.4,0-0.6-0.3-0.6-0.6c0-3.7-2.3-6.9-6-8.1c2.4,2.9,0.9,7-2,7.9c-2.6,0.8-5.8-0.2-6.9-3.4
			c-0.3-1-0.3-2.1,0-3.3c1.8-6.6,13.9-6.4,17.4,3.9c1.9,5.5-0.2,11-4.2,14.5C123.7,89,123.4,88.9,123.1,88.8 M81.5,71.2
			c3.7-0.4,7.5,2.9,6.2,7.4c-1.3,4.4-5.7,6.2-9.6,5.5c-7.4-1.3-10.7-11.7-4.9-17.4c3.9-3.8,11.2-4.2,15.7,0.7
			c7.3,7.8,6.3,19.2,18.6,23.3c-2.7-1-5-3.1-6.9-5.4c-3.5-4.4-6.7-10.7-5.1-15.8c1.1-3.4,5.9-4,7.5-0.6c0.6,1.2,0.5,2.8-0.4,3.9
			c-0.4,0.6-0.9,0.8-1.2,1.5c-0.7,1.2-0.2,2.6,0.3,3.1c-1.9-0.3-2.1-2-1.3-3.3c-3.6,1.2-3.9-3.1-2-3.4c-0.5,0.9,0,2.4,1.2,2.4
			c1.4,0.1,2.1-0.7,2.5-1.9c0.4-1.6-1-3.5-3.1-3.2c-1.4,0.2-2,0.9-2.5,1.9c-2,4.3,1.8,11.6,4.4,14.8c4,4.9,10.5,7.7,16.8,6.4
			c1.4-0.3,2.6-0.7,3.6-1.3c0.3,0.1,0.6,0.3,0.9,0.4c-1.4,0.9-2.9,1.5-4.5,1.9c-3.2,0.7-7,0.5-11.3-1c-12.7-4.2-11.4-17.5-19.1-23.5
			c-4.4-3.4-10.5-2.4-13.8,0.9c-5.1,5.1-0.5,14.4,5.3,14.4c3.7,0.1,6.7-1,8-4.7c0.6-1.6-1.3-1.5-2.4-2.8
			C83.2,73.8,84,72.3,81.5,71.2"/>
		<path style="clip-path:url(#SVGID_4_);fill:#85508E;" d="M126.2,79.5c0.4,0,0.7,0.3,0.7,0.7c0,0.4-0.3,0.7-0.7,0.7
			c-0.4,0-0.7-0.3-0.7-0.7C125.5,79.8,125.8,79.5,126.2,79.5"/>
		<path style="clip-path:url(#SVGID_4_);fill:#85508E;" d="M125.5,81.9c0.3,0,0.6,0.3,0.6,0.6c0,0.3-0.3,0.6-0.6,0.6
			c-0.3,0-0.6-0.3-0.6-0.6C124.9,82.2,125.2,81.9,125.5,81.9"/>
		<path style="clip-path:url(#SVGID_4_);fill:#85508E;" d="M124.5,84.2c0.3,0,0.5,0.2,0.5,0.5c0,0.3-0.2,0.5-0.5,0.5
			c-0.3,0-0.5-0.2-0.5-0.5C124.1,84.4,124.3,84.2,124.5,84.2"/>
		<path style="clip-path:url(#SVGID_4_);fill:#85508E;" d="M132.6,71.9c-0.2,0.4-0.6,0.6-1.1,0.5c-0.4-0.2-0.6-0.7-0.5-1.1
			c0.2-0.4,0.6-0.6,1.1-0.5C132.5,71,132.7,71.4,132.6,71.9"/>
		<path style="clip-path:url(#SVGID_4_);fill:#85508E;" d="M129.9,70.2c-0.1,0.4-0.6,0.6-0.9,0.4c-0.4-0.1-0.6-0.6-0.4-0.9
			c0.1-0.4,0.6-0.6,1-0.4C129.9,69.4,130,69.8,129.9,70.2"/>
		<path style="clip-path:url(#SVGID_4_);fill:#85508E;" d="M127.9,67.9c-0.1,0.3-0.4,0.4-0.7,0.3c-0.3-0.1-0.4-0.4-0.3-0.7
			c0.1-0.3,0.4-0.4,0.7-0.3C127.9,67.3,128,67.6,127.9,67.9"/>
		<path style="clip-path:url(#SVGID_4_);fill:#85508E;" d="M76.9,80.8c-0.1,0.3-0.5,0.4-0.8,0.3c-0.3-0.1-0.4-0.5-0.3-0.8
			c0.1-0.3,0.5-0.4,0.8-0.3C76.9,80.1,77,80.5,76.9,80.8"/>
		<path style="clip-path:url(#SVGID_4_);fill:#85508E;" d="M75.1,79.5c-0.1,0.3-0.4,0.4-0.7,0.2c-0.3-0.1-0.4-0.4-0.2-0.7
			c0.1-0.3,0.4-0.4,0.7-0.2C75.1,78.9,75.2,79.2,75.1,79.5"/>
		<path style="clip-path:url(#SVGID_4_);fill:#85508E;" d="M73.9,77.8c-0.1,0.2-0.3,0.3-0.5,0.2c-0.2-0.1-0.3-0.3-0.2-0.5
			c0.1-0.2,0.3-0.3,0.5-0.2C73.9,77.3,74,77.6,73.9,77.8"/>
		<path style="clip-path:url(#SVGID_4_);fill:#85508E;" d="M70.2,77c-1,1.4-1.4,3.2-0.9,5c1.5,5.6,8.3,6.8,13.2,5.2
			c1.6-0.5,1.8,1.8,0.3,2.3c-5.3,1.7-12.6-1.4-14.2-7.3c-0.6-2.2,0.1-4.4,1.5-6C70,76.4,70.1,76.7,70.2,77 M78.8,81.5
			c-0.1,0-0.1,0-0.2,0c-0.1,0-0.1,0-0.2,0c-0.3,0-0.6-0.3-0.5-0.7c0-0.2,0.2-0.4,0.4-0.5h0c3.1-1.3,4-5.9-1.6-6.3
			c-1.8-0.1-3.5,0.3-4.8,1.2c0-0.3-0.1-0.5-0.1-0.8c1.4-0.9,3.1-1.4,4.9-1.4C83.8,73.1,83.4,80.1,78.8,81.5"/>
		<path style="clip-path:url(#SVGID_4_);fill:#85508E;" d="M107,91.3c-4.9-1.8-9.3-5.4-11.8-11.4c-0.6-1.5-2-0.5-1.6,0.5
			C96.6,86.5,101.4,90.1,107,91.3"/>
		<path style="clip-path:url(#SVGID_4_);fill:#85508E;" d="M94.5,74.5c-0.8-2.8-0.4-7.2,0.3-10c0.6-2.5-2.1-2.6-2.2-0.7
			C92.3,67.2,92.6,71,94.5,74.5"/>
		<path style="clip-path:url(#SVGID_4_);fill:#85508E;" d="M163.1,38.7c-2.6,0.6-5.8,3.2-6.4,6.8c-0.6-3.7-3.7-6.2-6.4-6.8
			c1.9-0.5,4.6-0.5,5.7,2.6c-0.1-2.5-3.1-3.7-1.5-7.4c0.8-1.9,1.7-2,2.2-5.8c0.5,3.9,1.4,3.9,2.2,5.8c1.5,3.7-1.5,4.9-1.5,7.4
			C158.5,38.2,161.2,38.1,163.1,38.7"/>
		<path style="clip-path:url(#SVGID_4_);fill:#85508E;" d="M204.6,68.5c0.2-4.7-1.7-9.5-4.2-13c-2.5-3.4-9.8-9.6-14.9-7.9
			c-3.7,1.2-2.6,6.1,0.7,6.4c0.7,0.1,1.5-0.1,2-0.5v0c2.9-2.2-0.4-5.7-2.4-4v0c-0.5,0.4-0.8,1.2-0.6,1.8c0.4,1,2.1,1.1,2.2-0.2
			c0.1-0.6-0.9,0.2-1.1-0.3c-0.4-1.2,2-1.3,2.2,0.3c0.1,0.9-0.6,1.7-1.4,1.9c-2.7,0.8-4.3-3.6-1.5-4.6c4.8-1.7,11.6,4.2,14,7.4
			C202.3,59.5,204.1,63.9,204.6,68.5"/>
		<path style="clip-path:url(#SVGID_4_);fill:#85508E;" d="M187.3,79.5c-0.4,0-0.7,0.3-0.7,0.7c0,0.4,0.3,0.7,0.7,0.7
			c0.4,0,0.7-0.3,0.7-0.7C188,79.8,187.7,79.5,187.3,79.5"/>
		<path style="clip-path:url(#SVGID_4_);fill:#85508E;" d="M188,81.9c-0.3,0-0.6,0.3-0.6,0.6c0,0.3,0.3,0.6,0.6,0.6s0.6-0.3,0.6-0.6
			C188.6,82.2,188.3,81.9,188,81.9"/>
		<path style="clip-path:url(#SVGID_4_);fill:#85508E;" d="M189,84.2c-0.3,0-0.5,0.2-0.5,0.5c0,0.3,0.2,0.5,0.5,0.5
			c0.3,0,0.5-0.2,0.5-0.5C189.4,84.4,189.2,84.2,189,84.2"/>
		<path style="clip-path:url(#SVGID_4_);fill:#85508E;" d="M180.9,71.9c0.2,0.4,0.6,0.6,1.1,0.5c0.4-0.2,0.6-0.7,0.5-1.1
			c-0.2-0.4-0.7-0.6-1.1-0.5C181,71,180.8,71.4,180.9,71.9"/>
		<path style="clip-path:url(#SVGID_4_);fill:#85508E;" d="M183.6,70.2c0.1,0.4,0.6,0.6,0.9,0.4c0.4-0.1,0.6-0.6,0.4-0.9
			c-0.1-0.4-0.6-0.6-0.9-0.4C183.6,69.4,183.5,69.8,183.6,70.2"/>
		<path style="clip-path:url(#SVGID_4_);fill:#85508E;" d="M185.6,67.9c0.1,0.3,0.4,0.4,0.7,0.3c0.3-0.1,0.4-0.4,0.3-0.7
			c-0.1-0.3-0.4-0.4-0.7-0.3C185.6,67.3,185.5,67.6,185.6,67.9"/>
		<path style="clip-path:url(#SVGID_4_);fill:#85508E;" d="M236.6,80.8c0.1,0.3,0.5,0.4,0.8,0.3c0.3-0.1,0.4-0.5,0.3-0.8
			c-0.1-0.3-0.5-0.4-0.8-0.3C236.6,80.1,236.5,80.5,236.6,80.8"/>
		<path style="clip-path:url(#SVGID_4_);fill:#85508E;" d="M238.4,79.5c0.1,0.3,0.4,0.4,0.7,0.2c0.3-0.1,0.4-0.4,0.2-0.7
			c-0.1-0.3-0.4-0.4-0.7-0.2C238.4,78.9,238.3,79.2,238.4,79.5"/>
		<path style="clip-path:url(#SVGID_4_);fill:#85508E;" d="M239.6,77.8c0.1,0.2,0.3,0.3,0.5,0.2c0.2-0.1,0.3-0.3,0.2-0.5
			c-0.1-0.2-0.3-0.3-0.5-0.2C239.6,77.3,239.5,77.6,239.6,77.8"/>
		<path style="clip-path:url(#SVGID_4_);fill:#85508E;" d="M206.5,91.3c4.9-1.8,9.3-5.4,11.8-11.4c0.6-1.5,2-0.5,1.6,0.5
			C216.9,86.5,212.1,90.1,206.5,91.3"/>
		<path style="clip-path:url(#SVGID_4_);fill:#85508E;" d="M219,74.5c0.8-2.8,0.4-7.2-0.3-10c-0.6-2.5,2.1-2.6,2.2-0.7
			C221.2,67.2,220.9,71,219,74.5"/>
		<path style="clip-path:url(#SVGID_4_);fill:#85508E;" d="M156.5,47.4c-3.2-5.2-9.3-10.5-15.1-5.9c5.4-0.9,11.6,2.6,14.4,7.1
			L156.5,47.4z M156.5,79.2c-4.9-8.6-5.2-20.2,0.3-28.9c3.3-5.3,8.7-9.8,15.4-8.7c-6.7-5.1-12.9,2.1-16.1,7.5
			c-3.7,6.4-5,14.4-3.6,21.5c-2-6.9-1.9-14.4,1.7-20.3c0.4-0.6-0.2-1-0.6-0.5c-0.8,1.2-2.3,1.8-3.7,1.8c-4,0-4.1-4.4-2-5.5
			c2.4-1.3,3.8,1.6,2.4,3.5c-0.3,0.4,0.5,0.7,1.3,0.3c1.5-0.9,1.2-3.1,0.2-4.1c-2.9-2.6-8.1,0.5-5.9,4.8c1.1,2.2,4.2,2.8,6.3,1.6
			c-4.1,9-1.6,19.9,3.7,28L156.5,79.2z M157.5,80.7c5.5-8.2,8.1-19.2,3.9-28.3c2.1,1.2,5.2,0.6,6.3-1.6c2.2-4.3-3.1-7.5-5.9-4.8
			c-1.1,1-1.3,3.2,0.2,4.1c0.8,0.5,1.6,0.1,1.3-0.3c-1.5-1.9,0-4.8,2.4-3.5c2.1,1.1,2,5.5-2,5.5c-1.4,0-2.9-0.6-3.7-1.8
			c-0.4-0.6-1-0.2-0.6,0.5c3.6,5.9,3.7,13.4,1.7,20.3c1.4-7,0.2-14.8-3.3-21.1l-0.7,1.2c5.3,8.9,5,20.6-0.3,29
			c-6.1,9.8-15.4,14-27,11.9c5.9,0.6,12-0.5,16.7-3.5c3-1.9,5.4-4.6,5.8-6.2c0.5-2.7-1.8-3.8-3.2-3.4c-1,0.3-1.3,1-1.1,2.1
			c0.8-0.6,1.6-0.4,2.1,0.4c1.2,1.6-0.9,4.5-4,6.5c-5.4,3.5-12.1,4.4-18.7,3.1c-4.1-0.8-7.2-2.2-10.6-4.9
			c-8.7-6.9-11.7-17.8-6.1-28.8c6.1-12.2,21.9-15.1,30.1-6.5c3.1,3.3,4.9,8.2,3.7,12.4c-1.3,4.9-6.9,7.9-11.6,5.3
			c-5-2.7-5.3-8.6-1.9-11.9c4-3.9,9.8-1.3,9.6,3.2c-0.2,3.9-5.5,6.1-6.8,3c-0.7-1.7,1.3-1.9,2.3-1.4c0.8,0.4,0.9-0.8,0.4-1.7
			c-0.6-1-1.9-1.1-2.9-0.4c-2.2,1.6-1.1,5.5,2.2,5.7c4.4,0.2,7.6-5.5,4.2-9.4c-3.7-4.2-12.2-2.1-13,5.2c-0.5,4.5,3.7,10,8.7,9.9
			c-4.5,3.2-3.8,9.8,0.8,11.3c4.9,1.7,9-2.8,7.2-6.6c-2.1-4.1-6.9-2.6-5.1,0.9c0.3,0.6,1.5,1.2,1.3,0.2c-0.4-2.4,4.4-1.9,3.3,2.1
			c-0.9,3.4-5.4,4.3-7.9,1.7c-2-2.1-2.1-5.3-0.4-7.6c2.2-3,4.4-1.2,8.2-4.8c5.1-4.9,3.2-13.1-1.4-17.9c-7.5-8-21.7-6.7-29.2,2.9
			c2.8-5.3,0.2-8.5-3-7.2c1.4,0.5,1.8,2.5,1.7,3.8c-0.2,4.5-2.7,9.1-3.7,14.3c-1,5.5,0.1,10.8,2.4,15.4c-3.6-6-3.5-13.2-3.4-19.9
			c0-4.2-2.5-6.3-5.5-6.3c-5.4,0.1-5.4,7.7-0.9,7.3c3.9-0.3,2.9-4.9,0.8-4c1,0.3,1.1,1.8,0.7,2.2c-1.4,1.7-4,0.7-3.6-1.9
			c0.4-3.2,7.4-3.1,7.5,3c0.1,11.3,1.3,20.2,11,27.5c2.4,1.8,7.5,4.1,10.4,5c8.7,2.6,18,1.3,24.9-4.1c2.6-1.9,4.6,0.7,3.3,2
			c-0.7,0.7-1.9,0.4-1.8-0.5c0.3,0.3,0.7,0.2,0.8-0.1c0.5-0.9-1.5-1.1-1.2,0.4c0.5,2.2,3.9,1.2,3.3-1.1c-0.3-1.1-1.6-2.1-3.2-1.7
			C154.5,84.9,156.2,82.7,157.5,80.7 M178.8,72.2c1.7,2.3,1.5,5.5-0.4,7.6c-2.5,2.6-7,1.7-7.9-1.7c-1.1-4,3.8-4.5,3.3-2.1
			c-0.2,1,0.9,0.4,1.3-0.2c1.8-3.4-3.1-5-5.1-0.9c-1.9,3.8,2.2,8.3,7.2,6.6c4.6-1.6,5.3-8.2,0.8-11.3c5,0.1,9.2-5.3,8.7-9.9
			c-0.8-7.3-9.3-9.4-13-5.2c-3.5,3.9-0.2,9.7,4.2,9.4c3.4-0.2,4.4-4.2,2.2-5.7c-0.9-0.7-2.3-0.5-2.9,0.4c-0.6,0.9-0.4,2.1,0.4,1.7
			c1-0.5,3-0.3,2.3,1.4c-1.2,3.1-6.6,0.9-6.8-3c-0.2-4.5,5.6-7.1,9.6-3.2c3.4,3.3,3.1,9.2-1.9,11.9c-4.8,2.6-10.3-0.4-11.6-5.3
			c-1.2-4.3,0.6-9.1,3.7-12.4c8.2-8.6,24-5.7,30.1,6.5c5.5,11.1,2.5,21.9-6.2,28.8c-3.4,2.7-6.5,4.1-10.6,4.9
			c-6.6,1.3-13.3,0.4-18.7-3.1c-3.1-2-5.2-4.9-4-6.5c0.5-0.7,1.3-0.9,2.1-0.4c0.2-1-0.1-1.8-1.1-2.1c-1.4-0.4-3.7,0.7-3.2,3.4
			c0.3,1.5,2.8,4.3,5.8,6.2c4.7,3,10.8,4.1,16.7,3.5c-10.1,1.9-20.3-1.6-25.9-10.4l-0.7,1c1.1,1.7,2.4,3,3.8,4.3
			c-1.6-0.4-2.9,0.5-3.2,1.7c-0.6,2.4,2.8,3.3,3.3,1.1c0.3-1.5-1.7-1.3-1.2-0.4c0.1,0.2,0.5,0.4,0.8,0.1c0.1,0.9-1.1,1.2-1.8,0.5
			c-1.3-1.3,0.7-4,3.3-2c6.8,5.4,16.2,6.7,24.9,4.1c3-0.9,8.1-3.2,10.4-5c9.7-7.3,10.9-16.2,11-27.5c0.1-6.1,7-6.2,7.5-3
			c0.3,2.6-2.2,3.6-3.6,1.9c-0.4-0.5-0.3-2,0.7-2.2c-2-0.9-3.1,3.7,0.8,4c4.4,0.4,4.5-7.2-0.9-7.3c-3.1,0-5.6,2.1-5.5,6.3
			c0.1,6.7,0.2,13.9-3.4,19.9c2.3-4.6,3.4-9.9,2.4-15.4c-0.9-5.1-3.5-9.8-3.7-14.3c0-1.4,0.4-3.3,1.7-3.8c-3.3-1.3-5.9,1.9-3,7.2
			c-7.5-9.5-21.7-10.9-29.2-2.9c-4.6,4.8-6.5,13-1.4,17.9C174.3,71,176.5,69.2,178.8,72.2"/>
		<path style="clip-path:url(#SVGID_4_);fill:#85508E;" d="M156.7,63.8c4,0,7.5,0.3,10.7,0.7c-3.2,0.4-6.6,0.7-10.7,0.7
			c-4.1,0-7.5-0.3-10.7-0.7C149.3,64.1,152.7,63.8,156.7,63.8"/>
		<path style="clip-path:url(#SVGID_4_);fill:#85508E;" d="M86.3,85.6c0,1,1.5,1.3,2.3,0.6c0.4-0.3,0.6-0.7,0.7-1.1
			c0.2-0.9-0.4-1.9-1.2-2.3c-1.2-0.7-2.6-0.4-3.8,0.3l-0.1,0.1l-0.4-0.8l0.1-0.1c1-0.6,2.2-0.9,3.4-0.7c1,0.2,1.9,0.7,2.4,1.5
			c0.3,0.4,0.4,0.9,0.5,1.4c0.1,1.3-0.6,2.2-1.4,2.6c-0.4,0.8-0.2,1.4,0.6,1.7c-0.9,0.2-1.5-0.6-1.1-1.5v0c-1.3,0.4-2.8-0.1-2.9-1.6
			c-0.1-0.8,0.6-1.9,1.5-1.7c0.6,0.1,1,0.8,0.6,1.4C87.2,85.8,86.7,85.9,86.3,85.6"/>
		<path style="clip-path:url(#SVGID_4_);fill:#85508E;" d="M227.2,85.6c0,1-1.5,1.3-2.3,0.6c-0.4-0.3-0.6-0.7-0.7-1.1
			c-0.2-0.9,0.4-1.9,1.2-2.3c1.2-0.7,2.6-0.4,3.8,0.3l0.1,0.1l0.4-0.8l-0.1-0.1c-1-0.6-2.2-0.9-3.4-0.7c-1,0.2-1.9,0.7-2.4,1.5
			c-0.3,0.4-0.4,0.9-0.5,1.4c-0.1,1.3,0.6,2.2,1.4,2.6c0.4,0.8,0.2,1.4-0.6,1.7c0.9,0.2,1.5-0.6,1.1-1.5l0,0
			c1.3,0.4,2.8-0.1,2.9-1.6c0.1-0.8-0.6-1.9-1.5-1.7c-0.6,0.1-1,0.8-0.6,1.4C226.3,85.8,226.8,85.9,227.2,85.6"/>
		<path style="clip-path:url(#SVGID_4_);fill:#85508E;" d="M243.3,77c1,1.4,1.4,3.2,0.9,5c-1.5,5.6-8.3,6.8-13.2,5.2
			c-1.6-0.5-1.8,1.8-0.3,2.3c5.3,1.7,12.6-1.4,14.2-7.3c0.6-2.2-0.1-4.4-1.5-6C243.5,76.4,243.4,76.7,243.3,77 M234.7,81.5
			c0,0,0.1,0,0.2,0c0.1,0,0.1,0,0.2,0c0.3,0,0.6-0.3,0.5-0.7c0-0.2-0.2-0.4-0.4-0.5h0c-3.1-1.3-4-5.9,1.6-6.3
			c1.8-0.1,3.5,0.3,4.8,1.2c0-0.3,0.1-0.5,0.1-0.8c-1.4-0.9-3.1-1.4-4.9-1.4C229.7,73.1,230.1,80.1,234.7,81.5"/>
		<path style="clip-path:url(#SVGID_4_);fill:#85508E;" d="M190.4,88.8c-0.8-0.7-1.6-1.6-2.4-2.6c-5.7-7.2-1.3-16.9,5.3-18.7
			c2.3-0.6,4.9-0.3,6.5,1.7c2.2,2.8-1.2,5.1-2.6,3.4c-0.6-0.7,2.6-2.3,0.9-2.7c-1.6-0.4-2.5,0.6-2.4,2.2c0.1,1.3,1.2,2.6,3.1,2.4
			c2.5-0.2,4.1-3.8,1-6.4c0.9,0.6,1.8,1.4,2.1,2.6c0.8,3.4-2.5,6.6-5.6,5.3c-3.4-1.4-2.2-6.4-0.7-7.8c-4.3,1.2-9,4.5-9,9.5
			c0,0.4,0.3,0.6,0.6,0.6c0.4,0,0.6-0.3,0.6-0.6c0-3.7,2.3-6.9,6-8.1c-2.4,2.9-0.9,7,2,7.9c2.6,0.8,5.8-0.2,6.9-3.4
			c0.3-1,0.3-2.1,0-3.3c-1.8-6.6-13.9-6.4-17.4,3.9c-1.9,5.5,0.2,11,4.2,14.5C189.8,89,190.1,88.9,190.4,88.8 M232,71.2
			c-3.7-0.4-7.5,2.9-6.2,7.4c1.3,4.4,5.7,6.2,9.6,5.5c7.4-1.3,10.7-11.7,4.9-17.4c-3.9-3.8-11.2-4.2-15.7,0.7
			c-7.3,7.8-6.3,19.2-18.6,23.3c2.7-1,5-3.1,6.9-5.4c3.5-4.4,6.7-10.7,5.1-15.8c-1.1-3.4-5.9-4-7.5-0.6c-0.6,1.2-0.5,2.8,0.4,3.9
			c0.4,0.6,0.9,0.8,1.2,1.5c0.7,1.2,0.2,2.6-0.3,3.1c1.9-0.3,2.1-2,1.3-3.3c3.7,1.2,3.9-3.1,2-3.4c0.5,0.9,0,2.4-1.2,2.4
			c-1.4,0.1-2.1-0.7-2.5-1.9c-0.4-1.6,1-3.5,3.1-3.2c1.4,0.2,2,0.9,2.5,1.9c2,4.3-1.8,11.6-4.4,14.8c-4,4.9-10.5,7.7-16.8,6.4
			c-1.4-0.3-2.6-0.7-3.6-1.3c-0.3,0.1-0.6,0.3-0.9,0.4c1.4,0.9,2.9,1.5,4.5,1.9c3.2,0.7,7,0.5,11.3-1c12.7-4.2,11.4-17.5,19.1-23.5
			c4.4-3.4,10.5-2.4,13.8,0.9c5.1,5.1,0.5,14.4-5.3,14.4c-3.7,0.1-6.7-1-8-4.7c-0.6-1.6,1.3-1.5,2.4-2.8
			C230.3,73.8,229.5,72.3,232,71.2"/>
		<path style="clip-path:url(#SVGID_4_);fill:#85508E;" d="M261.1,86.3c0.5,0.7,0.7,1.9,0,2.5c-0.5,0.4-0.5,0.9-0.2,1.5
			c-0.6-0.3-0.6-0.8-0.4-1.2c-1.6,0.4-2.1-1.5-1.1-2c0.7-0.4,1.2,0.1,1.2,0.5c0.1,0.5-0.4,1-1,0.6c0.2,0,0.7-0.2,0.6-0.5
			c0-0.1-0.3-0.4-0.6-0.2c-0.2,0.1-0.5,0.6-0.2,1c0.4,0.6,2,0.5,1.9-0.9c0-0.5-0.3-1.1-0.7-1.4c-1.1-0.9-3.7-1.8-5.1-1.3
			C256.4,83.8,260.1,84.8,261.1,86.3 M249.4,84.1c2.2-0.7,6.1-1.1,8.5-0.6c3.3,0.7,7.2,3.7,4.1,7.2c1.1,0.5,2.1,0.4,3.1-0.3
			c1.1-2.1,0.7-4.7-1.2-6.2c1.7,2.3,1.9,5.5-1.3,6.5c0.7-1.2,1.1-2.1,1-3.2c-0.2-2.4-2.9-3.8-5.1-4.4c-2.6-0.7-5.8-0.6-8.5,0.4
			c1.1-1,4.6-2,8.8-0.8c3.4,1,6.5,3,5,6.8c2.4-2.4,0.2-5.3-1.7-6.8c0.5,0.3,1.2,0.6,1.7,0.9c2.4,1.6,3.4,4.3,2.1,6.7
			c3.1,0.4,4.2-10.6-8.6-10.1c-4,0.2-8.8,3-12.8,5.4c-3,1.8-5.1,3.2-7.8,3.8c6.9-2.6,12.1-9.8,20.7-10.4c3-0.2,7.7,0.4,9.5,2.4
			c0.4,0.4,0.2,1.2-0.4,1c1.1,1,1.8,2.6,1.9,4.3c0.2,1.5,2.7,2.5,2.9,0.8c-1.1,1-3-0.4-2.7-2.2c0.1,1.5,2.1,3.8,2.9,0.9
			c0.1,0.8,0.3,1.5-0.2,2.2c-0.8,1-2.3,0.7-3-0.4c-0.2,1.9-1.2,3.5-3,3c-1.5,0.9-2.9,0.7-4.2,0c2.8-2.7,0.3-5.9-3.1-6.8
			c-1.4-0.3-3.1-0.4-4.5-0.1c0.1,0.7-0.5,0.9-1.1,0.9c-3-0.2-8,1.7-11.1,2.9C244.2,86.2,246.1,85,249.4,84.1"/>
		<path style="clip-path:url(#SVGID_4_);fill:#85508E;" d="M52.4,86.3c-0.5,0.7-0.7,1.9,0,2.5c0.5,0.4,0.5,0.9,0.2,1.5
			c0.6-0.3,0.6-0.8,0.4-1.2c1.6,0.4,2.1-1.5,1.1-2c-0.7-0.4-1.2,0.1-1.3,0.5c-0.1,0.5,0.4,1,1,0.6c-0.2,0-0.7-0.2-0.6-0.5
			c0-0.1,0.3-0.4,0.6-0.2c0.2,0.1,0.5,0.6,0.2,1c-0.4,0.6-2,0.5-1.9-0.9c0-0.5,0.3-1.1,0.7-1.4c1.1-0.9,3.7-1.8,5.1-1.3
			C57.1,83.8,53.4,84.8,52.4,86.3 M64,84.1c-2.2-0.7-6.1-1.1-8.5-0.6c-3.3,0.7-7.2,3.7-4.1,7.2c-1.1,0.5-2.1,0.4-3.1-0.3
			c-1.1-2.1-0.7-4.7,1.2-6.2c-1.7,2.3-1.9,5.5,1.3,6.5c-0.7-1.2-1.1-2.1-1-3.2c0.2-2.4,2.9-3.8,5.1-4.4c2.6-0.7,5.8-0.6,8.5,0.4
			c-1.1-1-4.6-2-8.8-0.8c-3.4,1-6.5,3-5,6.8c-2.4-2.4-0.2-5.3,1.7-6.8c-0.5,0.3-1.2,0.6-1.7,0.9c-2.4,1.6-3.4,4.3-2.1,6.7
			c-3.1,0.4-4.2-10.6,8.6-10.1c4,0.2,8.8,3,12.8,5.4c3,1.8,5.1,3.2,7.8,3.8c-6.9-2.6-12.1-9.8-20.7-10.4c-3-0.2-7.7,0.4-9.5,2.4
			c-0.4,0.4-0.2,1.2,0.4,1c-1.1,1-1.8,2.6-1.9,4.3c-0.2,1.5-2.7,2.5-2.9,0.8c1.1,1,3-0.4,2.7-2.2c-0.1,1.5-2.1,3.8-2.9,0.9
			c-0.1,0.8-0.3,1.5,0.2,2.2c0.8,1,2.3,0.7,3-0.4c0.2,1.9,1.2,3.5,3,3c1.5,0.9,2.9,0.7,4.2,0c-2.8-2.7-0.3-5.9,3.1-6.8
			c1.4-0.3,3.1-0.4,4.5-0.1c-0.1,0.7,0.5,0.9,1.1,0.9c3-0.2,8,1.7,11.1,2.9C69.2,86.2,67.3,85,64,84.1"/>
		<path style="clip-path:url(#SVGID_4_);fill:#85508E;" d="M159.1,143c1.5-1.2,4-1.9,6.4-1.6c1.5,0.2,1.4,2.2-0.5,1.7
			C163.5,142.8,161.3,142.6,159.1,143 M159.6,144c1.2,0.4,1.5,1.4,1,2.3c-0.6,1.1,0.9,1.5,1.3,0.7
			C162.7,145.3,161.3,143.9,159.6,144 M239.1,138.4c-0.6,0-1.1,0.5-1.1,1.1c0,0.6,0.5,1.2,1.1,1.2s1.2-0.5,1.2-1.2
			C240.3,138.9,239.8,138.4,239.1,138.4 M235.4,138.6c-0.5,0-0.9,0.4-0.9,0.9c0,0.5,0.4,0.9,0.9,0.9c0.5,0,0.9-0.4,0.9-0.9
			C236.3,139.1,235.9,138.6,235.4,138.6 M154,143c-1.5-1.2-4-1.9-6.4-1.6c-1.5,0.2-1.4,2.2,0.5,1.7C149.6,142.8,151.8,142.6,154,143
			 M153.5,144c-1.2,0.4-1.5,1.4-1,2.3c0.6,1.1-0.9,1.5-1.3,0.7C150.3,145.3,151.8,143.9,153.5,144 M74.3,138.4
			c0.6,0,1.2,0.5,1.2,1.1c0,0.6-0.5,1.2-1.2,1.2c-0.6,0-1.1-0.5-1.1-1.2C73.1,138.9,73.7,138.4,74.3,138.4 M78,138.6
			c0.5,0,0.9,0.4,0.9,0.9c0,0.5-0.4,0.9-0.9,0.9c-0.5,0-0.9-0.4-0.9-0.9C77.1,139.1,77.5,138.6,78,138.6 M156.5,142.3
			c0.7,0.6,1.5,1.4,1.9,2.6c0.7,1.9-0.5,3.1-1.9,3.2c-1.5,0-2.6-1.3-1.9-3.2C155,143.7,155.8,142.9,156.5,142.3 M231.2,139.2h-62.3
			c-6.1,0-9.2,0.3-12.4,2.2c-3.2-1.9-6.3-2.2-12.4-2.2H82.2c-0.1-0.2-0.3-0.4-0.6-0.4s-0.7,0.3-0.7,0.8c0,0.4,0.4,0.8,0.7,0.8
			s0.5-0.1,0.6-0.4h61.9c3.5,0,9.8,0.2,11.6,2c-0.8,0.9-1.3,1.7-1.8,2.7c-0.9,2.1-0.1,4.7,2.5,4.8c2.7-0.1,3.5-2.7,2.5-4.8
			c-0.4-0.9-1-1.8-1.8-2.7c1.9-1.8,8.2-2,11.6-2h62.3c0.1,0.2,0.3,0.4,0.6,0.4c0.3,0,0.8-0.3,0.8-0.8c0-0.4-0.4-0.8-0.8-0.8
			C231.5,138.8,231.3,138.9,231.2,139.2"/>
		<path style="clip-path:url(#SVGID_4_);fill:#FFFFFF;" d="M288.9,120.6c0.1,1.1,0.1,2.2,0.1,3.3c0,1.3,0,2.6-0.1,3.8h1.6l0.4-1.7
			c1.4,1.2,2.8,2.3,5.9,2.3c2.8,0,8.5-1.2,8.5-7.3c0-4.4-3.6-6.2-6.1-7.3l-3.3-1.5c-1.9-0.8-2.5-1.9-2.5-3.2c0-1,0.7-3.1,3.4-3.1
			c3.8,0,5.1,3,5.7,5.1h1.6c-0.2-2.1-0.3-4.2-0.2-6.4h-1.6l-0.5,1.5c-1.3-1.4-3.4-1.9-5.1-1.9c-4.8,0-7.4,3-7.4,6.5
			c0,3.7,1.7,5.4,5.5,7.1l2.2,1c2.7,1.2,3.6,2,3.6,4c0,1.8-1.3,3.7-4.2,3.7c-4.1,0-5.3-3.7-6-6.2H288.9z M267.2,123.8
			c0,2.1-0.7,2.7-3.2,2.7v1.3c2.1-0.1,4-0.1,6-0.1c5.7,0,12.7,0,14.7,0.1l0.2-6.8h-1.4c-0.7,2.9-1.8,5.2-6.4,5.2
			c-2.3,0-4.5-0.4-4.5-3.5v-13.8c0-2.1,0.7-2.7,3.2-2.7v-1.3c-2,0.1-3.9,0.1-5.9,0.1c-2,0-3.9,0-6-0.1v1.3c2.5,0,3.2,0.6,3.2,2.7
			V123.8z M249.1,119.1h-6.5l3.3-8.1L249.1,119.1z M235.3,127.9c0.6-0.1,2.1-0.1,4.1-0.1c2,0,3.5,0,4.1,0.1v-1.3
			c-1.8,0-2.9-0.3-2.9-1.8c0-0.4,0.2-1.2,0.3-1.6l0.9-2.4h7.8l1.1,2.9c0.2,0.6,0.4,1.2,0.4,1.5c0,1.1-1.1,1.4-3,1.4v1.3
			c1-0.1,3.3-0.1,5.9-0.1c2,0,4.3,0,6,0.1v-1.3c-1.9-0.1-2.8-0.7-3.5-2.6l-7.8-19.6H247l-8.1,19.4c-1,2.3-2.2,2.8-3.6,2.8V127.9z
			 M218.9,127.9c2.1-0.1,4-0.1,6-0.1c1.9,0,3.9,0,5.9,0.1v-1.3c-2.5,0-3.2-0.6-3.2-2.7v-15c0-2.1,0.7-2.7,3.2-2.7v-1.3
			c-2,0.1-3.9,0.1-5.9,0.1c-2,0-3.9,0-6-0.1v1.3c2.5,0,3.2,0.6,3.2,2.7v15c0,2.1-0.7,2.7-3.2,2.7V127.9z M188.1,127.9
			c1.5-0.1,2.8-0.1,4.1-0.1c1.3,0,2.7,0,4.1,0.1v-1.3c-2.8,0-3.2-1.5-3.2-3.8v-12.5l15.8,18.2h1.8V110c0-2.3,0.4-3.8,3.2-3.8v-1.3
			c-1.5,0.1-2.8,0.1-4.1,0.1c-1.3,0-2.7,0-4.1-0.1v1.3c2.8,0,3.2,1.5,3.2,3.8v10.6l-13.6-15.7c-1.2,0.1-2.4,0.1-3.6,0.1
			c-1.2,0-2.4,0-3.7-0.1v1.3c2.6,0,3.3,2.4,3.3,2.1v14.5c0,2.3-0.4,3.8-3.2,3.8V127.9z M157.7,116.6c0,6.4,5.5,11.7,13,11.7
			s13-5.3,13-11.7c0-6.2-4.5-12.3-13-12.3C162.1,104.4,157.7,110.4,157.7,116.6 M163.8,116.4c0-3.9,1.2-10.4,6.9-10.4
			s6.9,6.5,6.9,10.4c0,5-1.3,10.3-6.9,10.3C165.1,126.7,163.8,121.4,163.8,116.4 M123.7,127.9c1.5-0.1,2.8-0.1,4.1-0.1
			c1.3,0,2.7,0,4.1,0.1v-1.3c-2.8,0-3.2-1.5-3.2-3.8v-12.2h0.1l7.1,17.3h1.7l6.9-17.3h0.1v13.3c0,2.1-0.7,2.7-3.2,2.7v1.3
			c2-0.1,3.9-0.1,5.8-0.1c2,0,4.1,0,5.9,0.1v-1.3c-2.5,0-3.2-0.6-3.2-2.7v-15c0-2.1,0.7-2.7,3.2-2.7v-1.3c-1.2,0.1-2.7,0.1-4.1,0.1
			c-1.3,0-2.6,0-3.9-0.1l-6.4,16l-6.7-16c-1.1,0.1-2.1,0.1-3.2,0.1c-1.7,0-3.3,0-5.1-0.1v1.3c2.3,0,2.6,0.3,3,0.9l0.2,0.3v15.4
			c0,2.3-0.4,3.8-3.2,3.8V127.9z M106.8,127.9c2.1-0.1,4-0.1,6-0.1c1.9,0,3.9,0,5.9,0.1v-1.3c-2.5,0-3.2-0.6-3.2-2.7v-15
			c0-2.1,0.7-2.7,3.2-2.7v-1.3c-2,0.1-3.9,0.1-5.9,0.1c-2,0-3.9,0-6-0.1v1.3c2.5,0,3.2,0.6,3.2,2.7v15c0,2.1-0.7,2.7-3.2,2.7V127.9z
			 M84.8,127.9c2.2-0.1,4.1-0.1,6.2-0.1c2,0,4,0,6.2,0.1v-1.3c-2.7,0-3.4-0.6-3.4-2.7v-16.3c0-0.7,0.3-0.9,1.7-0.9
			c2.9,0,5.3,1.1,5.6,4.8h1.4l-0.2-6.5c-3.7,0.1-7.4,0.1-11.2,0.1c-3.8,0-7.5,0-11.2-0.1l-0.2,6.5h1.4c0.3-3.6,2.7-4.8,5.6-4.8
			c1.4,0,1.7,0.2,1.7,0.9v16.3c0,2.1-0.7,2.7-3.4,2.7V127.9z M59.5,120.6c0.1,1.1,0.1,2.2,0.1,3.3c0,1.3,0,2.6-0.1,3.8h1.6l0.4-1.7
			c1.4,1.2,2.8,2.3,5.9,2.3c2.8,0,8.5-1.2,8.5-7.3c0-4.4-3.6-6.2-6.1-7.3l-3.3-1.5c-1.9-0.8-2.5-1.9-2.5-3.2c0-1,0.7-3.1,3.4-3.1
			c3.8,0,5.1,3,5.7,5.1h1.6c-0.2-2.1-0.3-4.2-0.2-6.4h-1.6l-0.5,1.5c-1.3-1.4-3.4-1.9-5.1-1.9c-4.8,0-7.4,3-7.4,6.5
			c0,3.7,1.7,5.4,5.5,7.1l2.2,1c2.7,1.2,3.6,2,3.6,4c0,1.8-1.3,3.7-4.2,3.7c-4.1,0-5.3-3.7-6-6.2H59.5z M34.8,127.9
			c2.7-0.1,6.1-0.1,10.1-0.1c4,0,8.1,0,10,0.1l0.2-6.8h-1.4c-0.4,2.5-1.3,5.2-6.1,5.2c-2.5,0-4.1-0.3-4.1-3.1v-6.4
			c3.4,0,4.2,0.9,4.7,3.8h1.4c-0.1-1-0.1-2.2-0.1-4.4c0-2.1,0-3.6,0.1-4.9h-1.4c-0.6,3.8-2.5,3.8-4.7,3.8v-7.5c0-0.8,0.3-1.1,1-1.1
			h2.1c3.2,0,4.9,0.7,5.8,4.4h1.3v-6c-2.4,0.1-5.6,0.1-9.4,0.1c-3.8,0-7,0-9.4-0.1v1.3c2.5,0,3.2,0.6,3.2,2.7v15
			c0,2.1-0.7,2.7-3.2,2.7V127.9z M13,127.9c2.2-0.1,4.1-0.1,6.2-0.1c2,0,4,0,6.2,0.1v-1.3c-2.7,0-3.4-0.6-3.4-2.7v-16.3
			c0-0.7,0.3-0.9,1.7-0.9c2.9,0,5.3,1.1,5.6,4.8h1.4l-0.2-6.5c-3.7,0.1-7.4,0.1-11.2,0.1c-3.8,0-7.5,0-11.2-0.1l-0.2,6.5h1.4
			c0.3-3.6,2.7-4.8,5.6-4.8c1.4,0,1.7,0.2,1.7,0.9v16.3c0,2.1-0.7,2.7-3.4,2.7V127.9z"/>
	</g>
</g>
</svg>
