<?xml version="1.0" encoding="utf-8"?>
<!-- Generator: Adobe Illustrator 18.1.1, SVG Export Plug-In . SVG Version: 6.00 Build 0)  -->
<svg version="1.1" id="Layer_1" xmlns="http://www.w3.org/2000/svg" xmlns:xlink="http://www.w3.org/1999/xlink" x="0px" y="0px"
	 viewBox="0 0 267.1 142.9" enable-background="new 0 0 267.1 142.9" xml:space="preserve">
<g>
	<path fill="#E8B745" d="M85.6,40.4c-0.2-4.7,1.7-9.5,4.2-13c2.5-3.4,9.8-9.6,14.9-7.9c3.7,1.2,2.6,6.1-0.7,6.4
		c-0.7,0.1-1.5-0.1-2-0.5v0c-2.9-2.2,0.4-5.7,2.4-4l0,0c0.5,0.4,0.8,1.2,0.6,1.8c-0.4,1-2.1,1.1-2.2-0.2c-0.1-0.6,0.9,0.2,1.1-0.3
		c0.4-1.2-2-1.3-2.2,0.3c-0.1,0.9,0.6,1.7,1.4,1.9c2.7,0.8,4.3-3.6,1.5-4.6c-4.8-1.7-11.6,4.2-14,7.4C88,31.4,86.2,35.8,85.6,40.4"
		/>
	<path fill="#E8B745" d="M99.9,60.7c0.8-0.7,1.6-1.6,2.4-2.6c5.7-7.2,1.3-16.9-5.3-18.7c-2.3-0.6-4.9-0.3-6.5,1.7
		c-2.2,2.8,1.2,5.1,2.6,3.4c0.6-0.7-2.6-2.3-0.9-2.7c1.6-0.4,2.5,0.6,2.4,2.2c-0.1,1.3-1.2,2.6-3.1,2.4c-2.5-0.2-4.1-3.8-1-6.4
		c-0.9,0.6-1.8,1.4-2.1,2.6c-0.8,3.4,2.4,6.6,5.6,5.3c3.4-1.4,2.2-6.4,0.7-7.8c4.3,1.2,9,4.5,9,9.5c0,0.4-0.3,0.6-0.6,0.6
		c-0.4,0-0.6-0.3-0.6-0.6c0-3.7-2.3-6.9-6-8.1c2.4,2.9,0.9,7-2,7.9c-2.6,0.8-5.8-0.2-6.9-3.4c-0.3-1-0.3-2.1,0-3.3
		c1.8-6.6,13.9-6.4,17.4,3.9c1.9,5.5-0.2,11-4.2,14.5C100.5,61,100.2,60.8,99.9,60.7 M58.3,43.1c3.7-0.4,7.5,2.9,6.2,7.4
		c-1.3,4.4-5.7,6.2-9.6,5.5c-7.4-1.3-10.7-11.7-4.9-17.4c3.9-3.8,11.2-4.2,15.7,0.7c7.3,7.8,6.3,19.2,18.6,23.3
		c-2.7-1-5-3.1-6.9-5.4c-3.5-4.4-6.7-10.7-5.1-15.8c1.1-3.4,5.9-4,7.5-0.6c0.6,1.2,0.5,2.8-0.4,3.9c-0.4,0.6-0.9,0.8-1.2,1.5
		c-0.7,1.2-0.2,2.6,0.3,3.1c-1.9-0.3-2.1-2-1.3-3.3c-3.7,1.2-3.9-3.1-2-3.4c-0.5,0.9,0,2.4,1.2,2.4c1.4,0.1,2.1-0.7,2.5-1.9
		c0.4-1.6-1-3.5-3.1-3.2c-1.4,0.2-2,0.9-2.5,1.8c-2,4.3,1.8,11.6,4.4,14.8c4,4.9,10.5,7.7,16.8,6.4c1.4-0.3,2.6-0.7,3.6-1.3
		c0.3,0.1,0.6,0.3,0.9,0.4c-1.4,0.9-2.9,1.5-4.5,1.9c-3.2,0.7-7,0.5-11.3-1c-12.7-4.2-11.4-17.5-19.1-23.5
		c-4.4-3.4-10.5-2.4-13.8,0.9c-5.1,5.1-0.5,14.4,5.3,14.4c3.7,0.1,6.7-1,8-4.7c0.6-1.6-1.3-1.5-2.4-2.8
		C59.9,45.7,60.8,44.2,58.3,43.1"/>
	<path fill="#E8B745" d="M103,51.4c0.4,0,0.7,0.3,0.7,0.7c0,0.4-0.3,0.7-0.7,0.7c-0.4,0-0.7-0.3-0.7-0.7
		C102.3,51.7,102.6,51.4,103,51.4"/>
	<path fill="#E8B745" d="M102.3,53.9c0.3,0,0.6,0.3,0.6,0.6c0,0.3-0.3,0.6-0.6,0.6c-0.3,0-0.6-0.3-0.6-0.6
		C101.7,54.1,102,53.9,102.3,53.9"/>
	<path fill="#E8B745" d="M101.3,56.1c0.3,0,0.5,0.2,0.5,0.5c0,0.3-0.2,0.5-0.5,0.5c-0.3,0-0.5-0.2-0.5-0.5
		C100.9,56.3,101.1,56.1,101.3,56.1"/>
	<path fill="#E8B745" d="M109.3,43.8c-0.2,0.4-0.7,0.6-1.1,0.5c-0.4-0.2-0.6-0.7-0.5-1.1c0.2-0.4,0.6-0.6,1.1-0.5
		C109.3,42.9,109.5,43.4,109.3,43.8"/>
	<path fill="#E8B745" d="M106.7,42.1c-0.1,0.4-0.6,0.6-0.9,0.4c-0.4-0.1-0.6-0.6-0.4-0.9c0.1-0.4,0.6-0.6,1-0.4
		C106.6,41.3,106.8,41.7,106.7,42.1"/>
	<path fill="#E8B745" d="M104.7,39.8c-0.1,0.3-0.4,0.4-0.7,0.3c-0.3-0.1-0.4-0.4-0.3-0.7c0.1-0.3,0.4-0.4,0.7-0.3
		C104.7,39.2,104.8,39.5,104.7,39.8"/>
	<path fill="#E8B745" d="M53.7,52.7c-0.1,0.3-0.5,0.4-0.8,0.3c-0.3-0.1-0.4-0.5-0.3-0.8c0.1-0.3,0.5-0.4,0.8-0.3
		C53.7,52.1,53.8,52.4,53.7,52.7"/>
	<path fill="#E8B745" d="M51.9,51.4c-0.1,0.2-0.4,0.4-0.7,0.2c-0.3-0.1-0.4-0.4-0.2-0.7c0.1-0.3,0.4-0.4,0.7-0.2
		C51.9,50.8,52,51.1,51.9,51.4"/>
	<path fill="#E8B745" d="M50.6,49.7c-0.1,0.2-0.3,0.3-0.5,0.2c-0.2-0.1-0.3-0.3-0.2-0.5c0.1-0.2,0.3-0.3,0.5-0.2
		C50.7,49.3,50.7,49.5,50.6,49.7"/>
	<path fill="#E8B745" d="M47,48.9c-1,1.4-1.4,3.2-0.9,5c1.5,5.6,8.3,6.8,13.2,5.2c1.6-0.5,1.8,1.8,0.3,2.3
		c-5.3,1.7-12.6-1.4-14.2-7.3c-0.6-2.2,0.1-4.4,1.5-6C46.8,48.3,46.9,48.6,47,48.9 M55.6,53.4c0,0-0.1,0-0.2,0c-0.1,0-0.1,0-0.2,0
		c-0.3,0-0.6-0.3-0.5-0.7c0-0.2,0.2-0.4,0.4-0.5h0c3.1-1.3,4-5.9-1.6-6.3c-1.8-0.1-3.5,0.3-4.8,1.2c0-0.3-0.1-0.5-0.1-0.8
		c1.4-0.9,3.1-1.4,4.9-1.4C60.5,45.1,60.1,52,55.6,53.4"/>
	<path fill="#E8B745" d="M83.7,63.2c-4.9-1.8-9.3-5.4-11.8-11.4c-0.6-1.5-2-0.5-1.6,0.5C73.4,58.4,78.1,62,83.7,63.2"/>
	<path fill="#E8B745" d="M71.2,46.5c-0.8-2.8-0.4-7.2,0.3-10c0.6-2.5-2.1-2.6-2.2-0.7C69,39.1,69.4,42.9,71.2,46.5"/>
	<path fill="#E8B745" d="M139.9,10.6c-2.6,0.6-5.8,3.2-6.4,6.8c-0.6-3.7-3.7-6.2-6.4-6.8c1.9-0.5,4.6-0.5,5.7,2.6
		c-0.1-2.5-3.1-3.7-1.5-7.4c0.8-1.9,1.7-2,2.2-5.8c0.5,3.9,1.4,3.9,2.2,5.8c1.5,3.7-1.5,4.9-1.5,7.4C135.3,10.1,138,10.1,139.9,10.6
		"/>
	<path fill="#E8B745" d="M181.4,40.4c0.2-4.7-1.7-9.5-4.2-13c-2.5-3.4-9.8-9.6-14.9-7.9c-3.7,1.2-2.6,6.1,0.7,6.4
		c0.7,0.1,1.5-0.1,2-0.5v0c2.9-2.2-0.4-5.7-2.4-4v0c-0.5,0.4-0.8,1.2-0.6,1.8c0.4,1,2.1,1.1,2.2-0.2c0.1-0.6-0.9,0.2-1.1-0.3
		c-0.4-1.2,2-1.3,2.2,0.3c0.1,0.9-0.6,1.7-1.4,1.9c-2.7,0.8-4.3-3.6-1.5-4.6c4.8-1.7,11.6,4.2,14,7.4
		C179.1,31.4,180.9,35.8,181.4,40.4"/>
	<path fill="#E8B745" d="M164.1,51.4c-0.4,0-0.7,0.3-0.7,0.7c0,0.4,0.3,0.7,0.7,0.7c0.4,0,0.7-0.3,0.7-0.7
		C164.8,51.7,164.5,51.4,164.1,51.4"/>
	<path fill="#E8B745" d="M164.8,53.9c-0.3,0-0.6,0.3-0.6,0.6c0,0.3,0.3,0.6,0.6,0.6c0.3,0,0.6-0.3,0.6-0.6
		C165.4,54.1,165.1,53.9,164.8,53.9"/>
	<path fill="#E8B745" d="M165.7,56.1c-0.3,0-0.5,0.2-0.5,0.5c0,0.3,0.2,0.5,0.5,0.5c0.3,0,0.5-0.2,0.5-0.5
		C166.2,56.3,166,56.1,165.7,56.1"/>
	<path fill="#E8B745" d="M157.7,43.8c0.2,0.4,0.6,0.6,1.1,0.5c0.4-0.2,0.6-0.7,0.5-1.1c-0.2-0.4-0.7-0.6-1.1-0.5
		C157.8,42.9,157.6,43.4,157.7,43.8"/>
	<path fill="#E8B745" d="M160.4,42.1c0.1,0.4,0.6,0.6,0.9,0.4c0.4-0.1,0.6-0.6,0.4-0.9c-0.1-0.4-0.6-0.6-0.9-0.4
		C160.4,41.3,160.2,41.7,160.4,42.1"/>
	<path fill="#E8B745" d="M162.4,39.8c0.1,0.3,0.4,0.4,0.7,0.3c0.3-0.1,0.4-0.4,0.3-0.7c-0.1-0.3-0.4-0.4-0.7-0.3
		C162.4,39.2,162.3,39.5,162.4,39.8"/>
	<path fill="#E8B745" d="M213.4,52.7c0.1,0.3,0.5,0.4,0.8,0.3c0.3-0.1,0.4-0.5,0.3-0.8c-0.1-0.3-0.5-0.4-0.8-0.3
		C213.4,52.1,213.3,52.4,213.4,52.7"/>
	<path fill="#E8B745" d="M215.2,51.4c0.1,0.2,0.4,0.4,0.7,0.2c0.3-0.1,0.4-0.4,0.2-0.7c-0.1-0.3-0.4-0.4-0.7-0.2
		C215.1,50.8,215,51.1,215.2,51.4"/>
	<path fill="#E8B745" d="M216.4,49.7c0.1,0.2,0.3,0.3,0.5,0.2c0.2-0.1,0.3-0.3,0.2-0.5c-0.1-0.2-0.3-0.3-0.5-0.2
		C216.4,49.3,216.3,49.5,216.4,49.7"/>
	<path fill="#E8B745" d="M183.3,63.2c4.9-1.8,9.3-5.4,11.8-11.4c0.6-1.5,2-0.5,1.6,0.5C193.7,58.4,188.9,62,183.3,63.2"/>
	<path fill="#E8B745" d="M195.8,46.5c0.8-2.8,0.4-7.2-0.3-10c-0.6-2.5,2.1-2.6,2.2-0.7C198,39.1,197.7,42.9,195.8,46.5"/>
	<path fill="#E8B745" d="M133.3,19.4c-3.2-5.2-9.3-10.5-15.1-5.9c5.4-0.9,11.6,2.6,14.4,7.1L133.3,19.4z M133.2,51.1
		c-4.9-8.6-5.2-20.2,0.3-28.9c3.3-5.3,8.7-9.8,15.4-8.7c-6.7-5.1-12.9,2.1-16.1,7.5c-3.7,6.4-5,14.4-3.6,21.5
		c-2-6.9-1.9-14.4,1.7-20.3c0.4-0.6-0.2-1-0.6-0.5c-0.8,1.2-2.3,1.8-3.7,1.8c-4,0-4.1-4.4-2-5.5c2.4-1.3,3.8,1.6,2.4,3.5
		c-0.3,0.4,0.5,0.7,1.3,0.3c1.5-0.9,1.2-3.1,0.2-4.1c-2.9-2.6-8.1,0.5-5.9,4.8c1.1,2.2,4.2,2.8,6.3,1.6c-4.1,9-1.6,19.9,3.7,28
		L133.2,51.1z M134.3,52.6c5.5-8.2,8.1-19.2,3.9-28.3c2.1,1.2,5.2,0.6,6.3-1.6c2.2-4.3-3.1-7.5-5.9-4.8c-1.1,1-1.3,3.2,0.2,4.1
		c0.8,0.5,1.6,0.1,1.3-0.3c-1.5-1.9,0-4.8,2.4-3.5c2.1,1.1,2,5.5-2,5.5c-1.4,0-2.9-0.6-3.7-1.8c-0.4-0.6-1-0.2-0.6,0.5
		c3.6,5.9,3.7,13.4,1.7,20.3c1.4-7,0.2-14.8-3.3-21.1l-0.7,1.2c5.3,8.9,5,20.6-0.3,29c-6.1,9.8-15.4,14-27,11.9
		c5.9,0.6,12-0.5,16.7-3.5c3-1.9,5.4-4.6,5.8-6.2c0.5-2.7-1.8-3.8-3.2-3.4c-1,0.3-1.3,1-1.1,2.1c0.8-0.6,1.6-0.4,2.1,0.4
		c1.2,1.6-0.9,4.5-4,6.5c-5.4,3.5-12.1,4.4-18.7,3.1c-4.1-0.8-7.2-2.2-10.6-4.9c-8.7-6.9-11.7-17.8-6.1-28.8
		c6.1-12.2,21.9-15.1,30.1-6.5c3.1,3.3,4.9,8.2,3.7,12.4c-1.3,4.9-6.9,7.9-11.6,5.3c-5-2.7-5.3-8.6-1.9-11.9c4-3.9,9.8-1.3,9.6,3.2
		c-0.2,3.9-5.5,6.1-6.8,3c-0.7-1.7,1.3-1.9,2.3-1.4c0.8,0.4,0.9-0.8,0.4-1.7c-0.6-1-1.9-1.1-2.9-0.4c-2.2,1.6-1.1,5.5,2.2,5.7
		c4.4,0.2,7.6-5.5,4.2-9.4c-3.7-4.2-12.2-2.1-13,5.2c-0.5,4.5,3.7,10,8.7,9.9c-4.5,3.2-3.8,9.8,0.8,11.3c4.9,1.7,9-2.8,7.2-6.6
		c-2.1-4.1-6.9-2.6-5.1,0.9c0.3,0.6,1.5,1.2,1.3,0.2c-0.4-2.4,4.4-1.9,3.3,2.1c-0.9,3.4-5.4,4.3-7.9,1.7c-2-2.1-2.1-5.3-0.4-7.6
		c2.2-3,4.4-1.2,8.2-4.8c5.1-4.9,3.2-13.1-1.4-17.9c-7.5-8-21.7-6.7-29.2,2.9c2.8-5.3,0.2-8.5-3-7.2c1.4,0.5,1.8,2.5,1.7,3.8
		c-0.2,4.5-2.7,9.1-3.7,14.3c-1,5.5,0.2,10.8,2.4,15.4c-3.6-6-3.5-13.2-3.4-19.9c0-4.2-2.5-6.3-5.5-6.3c-5.4,0.1-5.4,7.7-0.9,7.3
		c3.9-0.3,2.9-4.9,0.8-4c1,0.3,1.1,1.8,0.7,2.2c-1.4,1.7-4,0.7-3.6-1.9c0.4-3.2,7.4-3.1,7.5,3c0.1,11.3,1.3,20.2,11,27.5
		c2.4,1.8,7.5,4.1,10.4,5c8.7,2.6,18,1.3,24.9-4.1c2.6-1.9,4.6,0.7,3.3,2c-0.7,0.7-1.9,0.4-1.8-0.5c0.3,0.3,0.7,0.2,0.8-0.1
		c0.5-0.9-1.5-1.1-1.2,0.4c0.5,2.2,3.9,1.2,3.3-1.1c-0.3-1.1-1.6-2.1-3.2-1.7C131.2,56.8,132.9,54.6,134.3,52.6 M155.6,44.1
		c1.7,2.3,1.5,5.5-0.4,7.6c-2.5,2.6-7,1.7-7.9-1.7c-1.1-4,3.8-4.5,3.3-2.1c-0.2,1,0.9,0.4,1.3-0.2c1.8-3.4-3.1-5-5.1-0.9
		c-1.9,3.8,2.2,8.3,7.2,6.6c4.6-1.6,5.3-8.2,0.8-11.3c5,0.1,9.2-5.3,8.7-9.9c-0.8-7.3-9.3-9.4-13-5.2c-3.5,3.9-0.2,9.7,4.2,9.4
		c3.4-0.2,4.4-4.2,2.2-5.7c-0.9-0.7-2.3-0.5-2.9,0.4c-0.6,0.9-0.4,2.1,0.4,1.7c1-0.5,3-0.3,2.3,1.4c-1.2,3.1-6.6,0.9-6.8-3
		c-0.2-4.5,5.6-7.1,9.6-3.2c3.4,3.3,3.1,9.2-1.9,11.9c-4.8,2.6-10.3-0.4-11.6-5.3c-1.2-4.3,0.6-9.1,3.7-12.4
		c8.2-8.6,24-5.7,30.1,6.5c5.5,11.1,2.5,21.9-6.1,28.8c-3.4,2.7-6.5,4.1-10.6,4.9c-6.6,1.3-13.3,0.4-18.7-3.1c-3.1-2-5.2-4.9-4-6.5
		c0.5-0.7,1.3-0.9,2.1-0.4c0.2-1-0.1-1.8-1.1-2.1c-1.4-0.4-3.7,0.7-3.2,3.4c0.3,1.5,2.8,4.3,5.8,6.2c4.7,3,10.8,4.1,16.7,3.5
		c-10.1,1.9-20.3-1.6-25.9-10.4l-0.7,1c1.1,1.7,2.4,3,3.8,4.3c-1.6-0.4-2.9,0.5-3.2,1.7c-0.6,2.4,2.8,3.3,3.3,1.1
		c0.3-1.5-1.7-1.3-1.2-0.4c0.1,0.2,0.5,0.4,0.8,0.1c0.1,0.9-1.1,1.2-1.8,0.5c-1.3-1.3,0.7-4,3.3-2c6.8,5.4,16.2,6.7,24.9,4.1
		c3-0.9,8.1-3.2,10.4-5c9.7-7.3,10.9-16.2,11-27.5c0.1-6.1,7-6.2,7.5-3c0.3,2.6-2.2,3.6-3.6,1.9c-0.4-0.5-0.3-2,0.7-2.2
		c-2.1-0.9-3.1,3.7,0.8,4c4.4,0.4,4.5-7.2-0.9-7.3c-3.1,0-5.6,2.1-5.5,6.3c0.1,6.7,0.2,13.9-3.4,19.9c2.3-4.6,3.4-9.9,2.4-15.4
		c-0.9-5.1-3.5-9.8-3.7-14.3c0-1.4,0.4-3.3,1.7-3.8c-3.3-1.3-5.9,1.9-3,7.2c-7.5-9.6-21.7-10.9-29.2-2.9c-4.6,4.8-6.5,13-1.4,17.9
		C151.1,42.9,153.3,41.1,155.6,44.1"/>
	<path fill="#E8B745" d="M133.5,35.8c4.1,0,7.5,0.3,10.7,0.7c-3.2,0.4-6.6,0.7-10.7,0.7c-4.1,0-7.5-0.3-10.7-0.7
		C126.1,36.1,129.5,35.8,133.5,35.8"/>
	<path fill="#E8B745" d="M63.1,57.5c0,1,1.5,1.3,2.3,0.6c0.4-0.3,0.6-0.7,0.7-1.1c0.2-0.9-0.4-1.9-1.2-2.3c-1.2-0.7-2.6-0.4-3.8,0.3
		L61,55.1l-0.4-0.8l0.1-0.1c1-0.6,2.2-0.9,3.4-0.7c1,0.2,1.9,0.7,2.4,1.5c0.3,0.4,0.4,0.9,0.5,1.4c0.1,1.3-0.6,2.2-1.4,2.6
		c-0.4,0.8-0.2,1.4,0.6,1.7c-0.9,0.2-1.5-0.6-1.1-1.5v0c-1.3,0.4-2.8-0.1-2.9-1.6c-0.1-0.8,0.6-1.9,1.5-1.7c0.6,0.1,1,0.8,0.6,1.4
		C63.9,57.7,63.4,57.8,63.1,57.5"/>
	<path fill="#E8B745" d="M204,57.5c0,1-1.5,1.3-2.3,0.6c-0.4-0.3-0.6-0.7-0.7-1.1c-0.2-0.9,0.4-1.9,1.2-2.3c1.2-0.7,2.6-0.4,3.8,0.3
		l0.1,0.1l0.4-0.8l-0.1-0.1c-1-0.6-2.2-0.9-3.4-0.7c-1,0.2-1.9,0.7-2.4,1.5c-0.3,0.4-0.4,0.9-0.5,1.4c-0.1,1.3,0.6,2.2,1.4,2.6
		c0.4,0.8,0.2,1.4-0.6,1.7c0.9,0.2,1.5-0.6,1.1-1.5l0,0c1.3,0.4,2.8-0.1,2.9-1.6c0.1-0.8-0.6-1.9-1.5-1.7c-0.6,0.1-1,0.8-0.6,1.4
		C203.1,57.7,203.6,57.8,204,57.5"/>
	<path fill="#E8B745" d="M220.1,48.9c1,1.4,1.4,3.2,0.9,5c-1.5,5.6-8.3,6.8-13.2,5.2c-1.6-0.5-1.8,1.8-0.3,2.3
		c5.3,1.7,12.6-1.4,14.2-7.3c0.6-2.2-0.1-4.4-1.5-6C220.3,48.3,220.2,48.6,220.1,48.9 M211.5,53.4c0,0,0.1,0,0.2,0
		c0.1,0,0.1,0,0.2,0c0.3,0,0.6-0.3,0.5-0.7c0-0.2-0.2-0.4-0.4-0.5h0c-3.1-1.3-4-5.9,1.6-6.3c1.8-0.1,3.5,0.3,4.8,1.2
		c0-0.3,0.1-0.5,0.1-0.8c-1.4-0.9-3.1-1.4-4.9-1.4C206.5,45.1,206.9,52,211.5,53.4"/>
	<path fill="#E8B745" d="M167.2,60.7c-0.8-0.7-1.6-1.6-2.4-2.6c-5.7-7.2-1.3-16.9,5.3-18.7c2.3-0.6,4.9-0.3,6.5,1.7
		c2.2,2.8-1.2,5.1-2.6,3.4c-0.6-0.7,2.6-2.3,0.9-2.7c-1.6-0.4-2.5,0.6-2.4,2.2c0.1,1.3,1.2,2.6,3.1,2.4c2.5-0.2,4.1-3.8,1-6.4
		c0.9,0.6,1.8,1.4,2.1,2.6c0.8,3.4-2.5,6.6-5.6,5.3c-3.4-1.4-2.2-6.4-0.7-7.8c-4.3,1.2-9,4.5-9,9.5c0,0.4,0.3,0.6,0.6,0.6
		c0.4,0,0.6-0.3,0.6-0.6c0-3.7,2.3-6.9,6-8.1c-2.4,2.9-0.9,7,2,7.9c2.6,0.8,5.8-0.2,6.9-3.4c0.3-1,0.3-2.1,0-3.3
		c-1.8-6.6-13.9-6.4-17.4,3.9c-1.9,5.5,0.2,11,4.2,14.5C166.6,61,166.9,60.8,167.2,60.7 M208.8,43.1c-3.7-0.4-7.5,2.9-6.2,7.4
		c1.3,4.4,5.7,6.2,9.6,5.5c7.4-1.3,10.7-11.7,4.9-17.4c-3.9-3.8-11.2-4.2-15.7,0.7c-7.3,7.8-6.3,19.2-18.6,23.3c2.7-1,5-3.1,6.9-5.4
		c3.5-4.4,6.7-10.7,5.1-15.8c-1.1-3.4-5.9-4-7.5-0.6c-0.6,1.2-0.5,2.8,0.4,3.9c0.4,0.6,0.9,0.8,1.2,1.5c0.7,1.2,0.2,2.6-0.3,3.1
		c1.9-0.3,2.1-2,1.3-3.3c3.6,1.2,3.9-3.1,2-3.4c0.5,0.9,0,2.4-1.2,2.4c-1.4,0.1-2.1-0.7-2.5-1.9c-0.4-1.6,1-3.5,3.1-3.2
		c1.4,0.2,2,0.9,2.5,1.8c2,4.3-1.8,11.6-4.4,14.8c-4,4.9-10.5,7.7-16.8,6.4c-1.4-0.3-2.6-0.7-3.6-1.3c-0.3,0.1-0.6,0.3-0.9,0.4
		c1.4,0.9,2.9,1.5,4.5,1.9c3.2,0.7,7,0.5,11.3-1c12.7-4.2,11.4-17.5,19.1-23.5c4.4-3.4,10.5-2.4,13.8,0.9c5.1,5.1,0.5,14.4-5.3,14.4
		c-3.7,0.1-6.7-1-8-4.7c-0.6-1.6,1.3-1.5,2.4-2.8C207.1,45.7,206.3,44.2,208.8,43.1"/>
	<path fill="#E8B745" d="M237.9,58.3c0.5,0.7,0.7,1.9,0,2.5c-0.5,0.4-0.5,0.9-0.2,1.5c-0.6-0.3-0.6-0.8-0.4-1.2
		c-1.6,0.4-2.1-1.5-1.1-2c0.7-0.4,1.2,0.1,1.2,0.5c0.1,0.5-0.4,1-1,0.6c0.2,0,0.7-0.2,0.6-0.5c0-0.1-0.3-0.4-0.6-0.2
		c-0.2,0.1-0.5,0.6-0.2,1c0.4,0.6,2,0.5,1.9-0.9c0-0.5-0.3-1.1-0.7-1.4c-1.1-0.9-3.7-1.8-5.1-1.3C233.2,55.8,236.8,56.8,237.9,58.3
		 M226.2,56c2.2-0.7,6.1-1.1,8.5-0.6c3.3,0.7,7.2,3.7,4.1,7.2c1.1,0.5,2.1,0.4,3.1-0.3c1.1-2.1,0.7-4.7-1.2-6.2
		c1.7,2.3,1.9,5.5-1.3,6.5c0.7-1.2,1.1-2.1,1-3.2c-0.2-2.4-2.9-3.8-5.1-4.4c-2.6-0.7-5.8-0.6-8.5,0.4c1.1-1,4.6-2,8.8-0.8
		c3.4,1,6.5,3,5,6.8c2.4-2.4,0.2-5.3-1.7-6.8c0.5,0.3,1.2,0.6,1.7,0.9c2.4,1.6,3.4,4.3,2.1,6.7c3.1,0.4,4.2-10.6-8.6-10.1
		c-4,0.2-8.8,3-12.8,5.4c-3,1.8-5.1,3.2-7.8,3.8c6.9-2.6,12.1-9.8,20.7-10.4c3-0.2,7.7,0.4,9.5,2.4c0.4,0.4,0.2,1.2-0.4,1
		c1.1,1,1.8,2.6,1.9,4.3c0.2,1.5,2.7,2.5,2.9,0.8c-1.1,1-3-0.4-2.7-2.2c0.1,1.5,2.1,3.8,2.9,0.9c0.1,0.8,0.3,1.5-0.2,2.2
		c-0.8,1-2.3,0.7-3-0.4c-0.2,1.9-1.2,3.5-3,3c-1.5,0.9-2.9,0.7-4.2,0c2.8-2.7,0.3-5.9-3.1-6.8c-1.4-0.3-3.1-0.4-4.5-0.1
		c0.1,0.7-0.5,0.9-1.1,0.9c-3-0.2-8,1.7-11.1,2.9C221,58.1,222.9,57,226.2,56"/>
	<path fill="#E8B745" d="M29.1,58.3c-0.5,0.7-0.7,1.9,0,2.5c0.5,0.4,0.5,0.9,0.2,1.5c0.6-0.3,0.6-0.8,0.4-1.2c1.6,0.4,2.1-1.5,1.1-2
		c-0.7-0.4-1.2,0.1-1.3,0.5c-0.1,0.5,0.4,1,1,0.6c-0.2,0-0.7-0.2-0.6-0.5c0-0.1,0.3-0.4,0.6-0.2c0.2,0.1,0.5,0.6,0.2,1
		c-0.4,0.6-2,0.5-1.9-0.9c0-0.5,0.3-1.1,0.7-1.4c1.1-0.9,3.7-1.8,5.1-1.3C33.8,55.8,30.2,56.8,29.1,58.3 M40.8,56
		c-2.2-0.7-6.1-1.1-8.5-0.6c-3.3,0.7-7.2,3.7-4.1,7.2C27,63.2,26.1,63,25,62.3c-1.1-2.1-0.7-4.7,1.2-6.2c-1.7,2.3-1.9,5.5,1.3,6.5
		c-0.7-1.2-1.1-2.1-1-3.2c0.2-2.4,2.9-3.8,5.1-4.4c2.6-0.7,5.8-0.6,8.5,0.4c-1.1-1-4.6-2-8.8-0.8c-3.4,1-6.5,3-5,6.8
		c-2.4-2.4-0.2-5.3,1.7-6.8c-0.5,0.3-1.2,0.6-1.7,0.9c-2.4,1.6-3.4,4.3-2.1,6.7c-3.1,0.4-4.2-10.6,8.6-10.1c4,0.2,8.8,3,12.8,5.4
		c3,1.8,5.1,3.2,7.8,3.8c-6.9-2.6-12.1-9.8-20.7-10.4c-3-0.2-7.7,0.4-9.5,2.4c-0.4,0.4-0.2,1.2,0.4,1c-1.1,1-1.8,2.6-1.9,4.3
		c-0.2,1.5-2.7,2.5-2.9,0.8c1.1,1,3-0.4,2.7-2.2c-0.1,1.5-2.1,3.8-2.9,0.9c-0.1,0.8-0.3,1.5,0.2,2.2c0.8,1,2.3,0.7,3-0.4
		c0.2,1.9,1.2,3.5,3,3c1.5,0.9,2.9,0.7,4.2,0c-2.8-2.7-0.3-5.9,3.1-6.8c1.4-0.3,3.1-0.4,4.5-0.1c-0.1,0.7,0.5,0.9,1.1,0.9
		c3-0.2,8,1.7,11.1,2.9C46,58.1,44.1,57,40.8,56"/>
	<path fill="#E8B745" d="M135.9,136.4c1.5-1.2,4-1.9,6.4-1.6c1.5,0.2,1.4,2.2-0.5,1.7C140.2,136.2,138.1,136.1,135.9,136.4
		 M136.3,137.5c1.2,0.4,1.5,1.4,1,2.3c-0.6,1.1,0.9,1.5,1.3,0.7C139.5,138.8,138.1,137.4,136.3,137.5 M215.9,131.9
		c-0.6,0-1.1,0.5-1.1,1.1c0,0.6,0.5,1.1,1.1,1.1c0.6,0,1.1-0.5,1.1-1.1C217.1,132.4,216.6,131.9,215.9,131.9 M212.2,132.1
		c-0.5,0-0.9,0.4-0.9,0.9c0,0.5,0.4,0.9,0.9,0.9c0.5,0,0.9-0.4,0.9-0.9C213.1,132.5,212.7,132.1,212.2,132.1 M130.7,136.4
		c-1.5-1.2-4-1.9-6.4-1.6c-1.5,0.2-1.4,2.2,0.5,1.7C126.4,136.2,128.5,136.1,130.7,136.4 M130.3,137.5c-1.2,0.4-1.5,1.4-1,2.3
		c0.6,1.1-0.9,1.5-1.3,0.7C127.1,138.8,128.6,137.4,130.3,137.5 M51.1,131.9c0.6,0,1.2,0.5,1.2,1.1c0,0.6-0.5,1.1-1.2,1.1
		c-0.6,0-1.1-0.5-1.1-1.1C49.9,132.4,50.4,131.9,51.1,131.9 M54.8,132.1c0.5,0,0.9,0.4,0.9,0.9c0,0.5-0.4,0.9-0.9,0.9
		c-0.5,0-0.9-0.4-0.9-0.9C53.9,132.5,54.3,132.1,54.8,132.1 M133.3,135.8c0.7,0.6,1.5,1.4,1.9,2.6c0.7,1.9-0.5,3.1-1.9,3.2
		c-1.5,0-2.6-1.3-1.9-3.2C131.8,137.2,132.6,136.4,133.3,135.8 M208,132.6h-62.3c-6.1,0-9.2,0.3-12.4,2.2c-3.2-1.9-6.3-2.2-12.4-2.2
		H59c-0.1-0.2-0.3-0.4-0.6-0.4c-0.3,0-0.7,0.3-0.7,0.8c0,0.4,0.4,0.8,0.7,0.8c0.3,0,0.5-0.1,0.6-0.4h61.9c3.5,0,9.8,0.2,11.6,2
		c-0.8,0.9-1.3,1.7-1.8,2.7c-0.9,2.1-0.1,4.7,2.5,4.8c2.7-0.1,3.5-2.7,2.5-4.8c-0.4-0.9-1-1.8-1.8-2.7c1.9-1.8,8.2-2,11.6-2H208
		c0.1,0.2,0.3,0.4,0.6,0.4c0.3,0,0.8-0.3,0.8-0.8c0-0.4-0.4-0.8-0.8-0.8C208.3,132.3,208.1,132.4,208,132.6"/>
</g>
<g>
	<g>
		<polygon fill="#FFFFFF" points="98.1,92.6 95.9,92.6 93.2,72.6 95.9,72.6 97.1,83 97.1,83.7 97.3,83.7 97.4,83 98.7,72.6 
			100.8,72.6 102,83 102.1,83.7 102.3,83.7 102.4,83 103.6,72.6 106.3,72.6 103.6,92.6 101.3,92.6 99.9,83.2 99.8,82 99.7,82 
			99.5,83.2 		"/>
		<polygon fill="#FFFFFF" points="110.3,72.6 117,72.6 117,75.6 113.2,75.6 113.2,80.9 115.9,80.9 115.9,84.1 113.2,84.1 
			113.2,89.6 117,89.6 117,92.6 110.3,92.6 		"/>
		<path fill="#FFFFFF" d="M124,89.7c1,0,1.6-0.1,1.9-1.1c0.1-0.5,0.2-1.2,0.3-2.1c0-1,0-2.2,0-3.9c0-1.6,0-2.9,0-3.9
			c0-0.9-0.1-1.6-0.3-2.1c-0.3-1-0.9-1.1-1.9-1.1V89.7z M121.1,92.6v-20h2.3c2.7,0,4.2,0.5,5,2.1c0.8,1.5,0.9,4,0.9,7.9
			c0,3.9-0.1,6.4-0.9,7.9c-0.8,1.5-2.3,2.1-5,2.1H121.1z"/>
		<path fill="#FFFFFF" d="M136.4,89.7c1,0,1.6-0.1,1.9-1.1c0.1-0.5,0.2-1.2,0.3-2.1c0-1,0-2.2,0-3.9c0-1.6,0-2.9,0-3.9
			c0-0.9-0.1-1.6-0.3-2.1c-0.3-1-0.9-1.1-1.9-1.1V89.7z M133.5,92.6v-20h2.3c2.7,0,4.2,0.5,5,2.1c0.8,1.5,0.9,4,0.9,7.9
			c0,3.9-0.1,6.4-0.9,7.9c-0.8,1.5-2.3,2.1-5,2.1H133.5z"/>
		<rect x="145.9" y="72.6" fill="#FFFFFF" width="2.9" height="20"/>
		<polygon fill="#FFFFFF" points="156.3,82.2 156,81.3 155.9,81.3 155.9,92.6 153.2,92.6 153.2,72.6 155.8,72.6 158.6,83 158.9,84 
			159.1,84 159.1,72.6 161.7,72.6 161.7,92.6 159.1,92.6 		"/>
		<path fill="#FFFFFF" d="M170.9,79.8v-3.1c0-0.5-0.1-0.9-0.4-1.3c-0.1-0.1-0.4-0.2-0.6-0.2c-0.5,0-0.8,0.4-0.9,0.7
			c-0.1,0.2-0.1,0.5-0.1,0.7v12c0,0.6,0.1,1,0.4,1.3c0.1,0.1,0.3,0.2,0.6,0.2c0.5,0,0.8-0.3,0.9-0.7c0.1-0.2,0.1-0.4,0.1-0.7v-3.6
			h-1.2v-2.5h4.1v10h-1.7l-0.4-1c-0.5,0.7-1.3,1.2-2.3,1.2c-1,0-1.6-0.2-2.1-0.7c-0.5-0.4-0.8-0.9-1-1.5c-0.2-0.6-0.4-1.4-0.3-2.2
			V76.7c0-0.8,0.2-1.5,0.5-2.1c0.2-0.5,0.6-1.1,1.1-1.5c0.5-0.4,1.3-0.7,2.3-0.7s1.7,0.3,2.3,0.7c0.5,0.4,0.9,1,1.2,1.5
			c0.3,0.6,0.5,1.4,0.5,2.1v3.1H170.9z"/>
	</g>
	<g>
		<path fill="#FFFFFF" d="M241.8,114.3c0.1,0.9,0.1,1.8,0.1,2.7c0,1.1,0,2.2-0.1,3.2h1.3l0.4-1.4c1.1,1,2.3,1.9,4.9,1.9
			c2.3,0,7-1,7-6c0-3.6-3-5.1-5-6l-2.7-1.2c-1.6-0.7-2-1.5-2-2.6c0-0.8,0.6-2.5,2.8-2.5c3.2,0,4.2,2.5,4.7,4.2h1.3
			c-0.2-1.7-0.3-3.5-0.2-5.2h-1.3l-0.4,1.2c-1.1-1.2-2.8-1.6-4.2-1.6c-4,0-6.1,2.4-6.1,5.3c0,3.1,1.4,4.4,4.6,5.9l1.8,0.8
			c2.2,1,3,1.6,3,3.3c0,1.5-1,3-3.4,3c-3.4,0-4.4-3.1-5-5.1H241.8z M223.4,120.3c2.2-0.1,5-0.1,8.3-0.1s6.6,0,8.2,0.1l0.2-5.6H239
			c-0.3,2.1-1,4.3-5,4.3c-2.1,0-3.4-0.3-3.4-2.5v-5.3c2.8,0,3.5,0.8,3.9,3.2h1.2c-0.1-0.8-0.1-1.8-0.1-3.6c0-1.8,0-3,0.1-4h-1.2
			c-0.5,3.1-2.1,3.1-3.9,3.1v-6.2c0-0.7,0.3-0.9,0.8-0.9h1.7c2.6,0,4.1,0.6,4.8,3.6h1.1v-4.9c-2,0.1-4.6,0.1-7.8,0.1s-5.7,0-7.8-0.1
			v1.1c2,0,2.7,0.5,2.7,2.2V117c0,1.7-0.6,2.2-2.7,2.2V120.3z M208.1,114.3c0.1,0.9,0.1,1.8,0.1,2.7c0,1.1,0,2.2-0.1,3.2h1.3
			l0.4-1.4c1.1,1,2.3,1.9,4.9,1.9c2.3,0,7-1,7-6c0-3.6-3-5.1-5-6l-2.7-1.2c-1.6-0.7-2-1.5-2-2.6c0-0.8,0.6-2.5,2.8-2.5
			c3.2,0,4.2,2.5,4.7,4.2h1.3c-0.2-1.7-0.3-3.5-0.2-5.2h-1.3l-0.4,1.2c-1.1-1.2-2.8-1.6-4.2-1.6c-4,0-6.1,2.4-6.1,5.3
			c0,3.1,1.4,4.4,4.6,5.9l1.8,0.8c2.2,1,3,1.6,3,3.3c0,1.5-1,3-3.4,3c-3.4,0-4.4-3.1-5-5.1H208.1z M192.8,114.3
			c0.1,0.9,0.1,1.8,0.1,2.7c0,1.1,0,2.2-0.1,3.2h1.3l0.4-1.4c1.1,1,2.3,1.9,4.9,1.9c2.3,0,7-1,7-6c0-3.6-3-5.1-5-6l-2.7-1.2
			c-1.6-0.7-2-1.5-2-2.6c0-0.8,0.6-2.5,2.8-2.5c3.2,0,4.2,2.5,4.7,4.2h1.3c-0.2-1.7-0.3-3.5-0.2-5.2h-1.3l-0.4,1.2
			c-1.1-1.2-2.8-1.6-4.2-1.6c-4,0-6.1,2.4-6.1,5.3c0,3.1,1.4,4.4,4.6,5.9l1.8,0.8c2.2,1,3,1.6,3,3.3c0,1.5-1,3-3.4,3
			c-3.4,0-4.4-3.1-5-5.1H192.8z M182.4,113.1H177l2.7-6.7L182.4,113.1z M171,120.3c0.5-0.1,1.8-0.1,3.4-0.1c1.7,0,2.9,0,3.4,0.1
			v-1.1c-1.5,0-2.4-0.3-2.4-1.5c0-0.3,0.2-1,0.3-1.3l0.8-2h6.4l0.9,2.4c0.2,0.5,0.3,1,0.3,1.2c0,0.9-0.9,1.2-2.4,1.2v1.1
			c0.8-0.1,2.7-0.1,4.8-0.1c1.6,0,3.5,0,4.9,0.1v-1.1c-1.5-0.1-2.3-0.6-2.9-2.1L182,101h-1.4l-6.7,16c-0.8,1.9-1.8,2.3-2.9,2.3
			V120.3z M155.4,117c0,1.7-0.6,2.2-2.7,2.2v1.1c1.7-0.1,3.3-0.1,5-0.1c4.7,0,10.4,0,12.1,0.1l0.2-5.6h-1.2
			c-0.6,2.4-1.5,4.3-5.3,4.3c-1.9,0-3.7-0.3-3.7-2.9v-11.4c0-1.7,0.6-2.2,2.7-2.2v-1.1c-1.6,0.1-3.2,0.1-4.8,0.1c-1.6,0-3.2,0-5-0.1
			v1.1c2,0,2.7,0.5,2.7,2.2V117z M150.2,101.3H149l-0.4,1.5c-1.2-0.8-3-1.9-5.5-1.9c-5.8,0-10.2,4.3-10.2,10.1
			c0,6.5,4.6,9.7,9.7,9.7c3.6,0,5.3-1.3,6.2-2.1l0.6,1.7h1.2v-6.6h-1.2c-0.4,2-1.5,5.5-5.8,5.5c-2.4,0-5.7-1.8-5.7-7.8
			c0-3.7,1.1-8.9,5.8-8.9c3.9,0,4.9,3.4,5.4,4.9h1.2L150.2,101.3z M119.8,103.7c0-1,0.4-1,1.3-1c2.8,0,4,1.2,4,4
			c0,3.5-2.3,3.8-5.3,3.8V103.7z M115.5,117c0,1.7-0.6,2.2-2.7,2.2v1.1c1.7-0.1,3.3-0.1,4.7-0.1c1.6,0,3.2,0,5,0.1v-1.1
			c-2,0-2.7-0.5-2.7-2.2v-5.2h0.9c0.6,0,3.1,3.6,3.2,3.8l3.2,4.6c1.9,0,3.9,0,5.8,0.1v-1c-0.9-0.3-1.3-0.1-2-1.1l-3.2-4.4
			c-0.8-1.1-1.6-1.9-2.4-2.9c2.5-0.5,4.6-2,4.6-4.7c0-3.8-3.6-4.9-6.8-4.9c-1.8,0-3.5,0.1-5.3,0.1c-1.6,0-3.2,0-5-0.1v1.1
			c2,0,2.7,0.5,2.7,2.2V117z M94.2,120.3c2.2-0.1,5-0.1,8.3-0.1s6.6,0,8.2,0.1l0.2-5.6h-1.1c-0.3,2.1-1,4.3-5,4.3
			c-2.1,0-3.4-0.3-3.4-2.5v-5.3c2.8,0,3.5,0.8,3.9,3.2h1.2c-0.1-0.8-0.1-1.8-0.1-3.6c0-1.8,0-3,0.1-4h-1.2c-0.5,3.1-2.1,3.1-3.9,3.1
			v-6.2c0-0.7,0.3-0.9,0.8-0.9h1.7c2.6,0,4.1,0.6,4.8,3.6h1.1v-4.9c-2,0.1-4.6,0.1-7.8,0.1c-3.1,0-5.7,0-7.8-0.1v1.1
			c2,0,2.7,0.5,2.7,2.2V117c0,1.7-0.6,2.2-2.7,2.2V120.3z M78.3,120.3c1.8-0.1,3.4-0.1,5.1-0.1s3.3,0,5.1,0.1v-1.1
			c-2.2,0-2.8-0.5-2.8-2.2v-13.4c0-0.6,0.3-0.8,1.4-0.8c2.4,0,4.3,0.9,4.6,3.9h1.1l-0.2-5.3c-3.1,0.1-6.1,0.1-9.2,0.1
			s-6.2,0-9.2-0.1l-0.2,5.3h1.1c0.3-3,2.2-3.9,4.6-3.9c1.1,0,1.4,0.2,1.4,0.8V117c0,1.7-0.6,2.2-2.8,2.2V120.3z M59.4,114.3
			c0.1,0.9,0.1,1.8,0.1,2.7c0,1.1,0,2.2-0.1,3.2h1.3l0.4-1.4c1.1,1,2.3,1.9,4.9,1.9c2.3,0,7-1,7-6c0-3.6-3-5.1-5-6l-2.7-1.2
			c-1.6-0.7-2-1.5-2-2.6c0-0.8,0.6-2.5,2.8-2.5c3.2,0,4.2,2.5,4.7,4.2h1.3c-0.2-1.7-0.3-3.5-0.2-5.2h-1.3l-0.4,1.2
			c-1.1-1.2-2.8-1.6-4.2-1.6c-4,0-6.1,2.4-6.1,5.3c0,3.1,1.4,4.4,4.6,5.9l1.8,0.8c2.2,1,3,1.6,3,3.3c0,1.5-1,3-3.4,3
			c-3.4,0-4.4-3.1-5-5.1H59.4z M48.9,113.1h-5.3l2.7-6.7L48.9,113.1z M37.5,120.3c0.5-0.1,1.8-0.1,3.4-0.1s2.9,0,3.4,0.1v-1.1
			c-1.5,0-2.4-0.3-2.4-1.5c0-0.3,0.2-1,0.3-1.3l0.8-2h6.4l0.9,2.4c0.2,0.5,0.3,1,0.3,1.2c0,0.9-0.9,1.2-2.4,1.2v1.1
			c0.8-0.1,2.7-0.1,4.8-0.1c1.6,0,3.5,0,4.9,0.1v-1.1c-1.5-0.1-2.3-0.6-2.9-2.1L48.6,101h-1.4l-6.7,16c-0.8,1.9-1.8,2.3-2.9,2.3
			V120.3z M11.8,120.3c1.2-0.1,2.3-0.1,3.4-0.1s2.2,0,3.4,0.1v-1.1c-2.3,0-2.7-1.2-2.7-3.1V106H16l5.9,14.3h1.4L29,106h0.1V117
			c0,1.7-0.6,2.2-2.7,2.2v1.1c1.7-0.1,3.2-0.1,4.8-0.1c1.7,0,3.4,0,4.9,0.1v-1.1c-2,0-2.7-0.5-2.7-2.2v-12.3c0-1.7,0.6-2.2,2.7-2.2
			v-1.1c-1,0.1-2.2,0.1-3.4,0.1c-1.1,0-2.2,0-3.2-0.1l-5.3,13.2l-5.5-13.2c-0.9,0.1-1.7,0.1-2.6,0.1c-1.4,0-2.7,0-4.2-0.1v1.1
			c1.9,0,2.2,0.3,2.5,0.7l0.2,0.2v12.7c0,1.9-0.3,3.1-2.7,3.1V120.3z"/>
	</g>
</g>
</svg>
